<svg width="210" height="207" viewBox="0 0 210 207" fill="none" xmlns="http://www.w3.org/2000/svg">
<g clip-path="url(#clip0_1301_67075)">
<path fill-rule="evenodd" clip-rule="evenodd" d="M100.09 0L148.83 91.16L197.57 182.32H100.09H2.59961L51.3496 91.16L100.09 0Z" fill="#808080"/>
<path fill-rule="evenodd" clip-rule="evenodd" d="M89.7791 27.1484C98.9691 32.4684 103.589 40.4384 103.559 51.0684C103.539 61.7384 97.4691 72.2884 96.4291 81.6684C95.4191 90.7684 99.5291 94.2884 103.159 94.1184C106.559 93.9584 108.229 91.9684 108.089 89.3684C107.499 78.8984 102.829 66.7584 121.019 59.1084C118.349 67.2384 116.279 74.9084 121.019 84.0584C140.399 122.778 87.2691 131.488 77.2891 109.508C74.7291 103.878 74.1591 96.2984 76.0391 86.9084C77.0691 82.1584 79.4091 76.3584 83.4991 69.2384C92.2191 54.0884 103.379 45.4184 89.7791 27.1484Z" fill="white"/>
<path fill-rule="evenodd" clip-rule="evenodd" d="M24.0494 121.331C24.0494 118.611 25.1994 118.201 28.0394 118.291C86.9594 120.121 167.359 153.491 196.919 165.661C137.029 135.241 67.3694 113.901 22.1694 113.521C10.5494 113.421 17.5194 118.271 24.0494 121.321V121.331Z" fill="#1D2331"/>
<path fill-rule="evenodd" clip-rule="evenodd" d="M18.4704 133.13C18.2004 129.55 21.2004 130.07 24.9204 130.26C85.9804 134.81 182.17 168.99 209.88 179.41C150.62 150.09 62.8704 126.82 16.9204 125.13C5.3104 124.7 11.9404 130.07 18.4804 133.13H18.4704Z" fill="#1D2331"/>
<path fill-rule="evenodd" clip-rule="evenodd" d="M6.91 200.268L7.77 203.448H10.68L7.14 190.618H3.58L0 203.448H2.84L3.64 200.268H6.91ZM4 198.178L4.69 195.478C4.88 194.718 5.07 193.628 5.24 192.848H5.28C5.45 193.628 5.66 194.698 5.85 195.458L6.54 198.178H4.01H4ZM13.9 190.618V196.268C13.9 198.378 13.73 199.958 12.95 200.758C12.65 201.058 12.21 201.288 11.67 201.388L12.07 203.658C12.98 203.658 13.78 203.388 14.37 203.028C16.22 201.848 16.56 199.278 16.56 196.078V192.918H19.17V203.448H21.95V190.618H13.9ZM24.77 190.618V203.388C25.4 203.478 26.37 203.578 27.64 203.578C29.56 203.578 31.39 203.158 32.51 202.128C33.23 201.438 33.69 200.468 33.69 199.218C33.69 197.848 33.14 196.838 32.28 196.188C31.39 195.498 30.15 195.158 28.91 195.158C28.45 195.158 27.94 195.198 27.52 195.258V192.918H32.68V190.618H24.76H24.77ZM27.53 197.338C27.83 197.298 28.14 197.278 28.42 197.278C29.05 197.278 29.7 197.468 30.15 197.868C30.53 198.188 30.78 198.688 30.78 199.318C30.78 199.948 30.55 200.438 30.19 200.818C29.77 201.218 29.14 201.448 28.48 201.448C28.14 201.448 27.81 201.428 27.53 201.388V197.338ZM41.73 200.268L42.59 203.448H45.5L41.96 190.618H38.4L34.82 203.448H37.66L38.46 200.268H41.73ZM38.82 198.178L39.51 195.478C39.7 194.718 39.89 193.628 40.06 192.848H40.1C40.27 193.628 40.48 194.698 40.67 195.458L41.36 198.178H38.83H38.82ZM47.52 190.618V203.448H61.36V190.618H58.64V201.148H55.8V190.618H53.08V201.148H50.24V190.618H47.52ZM64.18 190.618V203.448H66.96V198.078H71.09V203.448H73.87V190.618H71.09V195.628H66.96V190.618H64.18ZM83.65 195.678H79.46V192.918H83.88V190.618H76.68V203.448H84.14V201.148H79.46V197.948H83.65V195.678ZM90.88 190.078V191.168C88.56 191.418 85.82 193.068 85.82 197.048C85.82 201.028 88.22 202.588 90.86 202.838V203.958H93.43V202.838C96.09 202.548 98.49 200.938 98.49 196.978C98.49 193.018 96.05 191.418 93.45 191.168V190.078H90.88ZM90.88 200.868C89.83 200.718 88.6 199.588 88.6 197.018C88.6 194.258 89.86 193.268 90.88 193.098V200.868ZM93.43 193.098C94.5 193.248 95.71 194.198 95.71 196.958C95.71 199.718 94.47 200.708 93.43 200.858V193.088V193.098ZM102.47 203.438H105.25V193.008H108.39V190.608H99.37V193.008H102.47V203.438ZM117.2 195.668H113.01V192.908H117.43V190.608H110.23V203.438H117.69V201.138H113.01V197.938H117.2V195.668ZM119.98 190.608V203.438H122.76V192.908H126.72V203.438H129.5V190.608H119.98ZM132.3 203.438H135.06V198.778C135.29 198.818 135.57 198.838 135.9 198.838C137.4 198.838 138.83 198.418 139.76 197.528C140.48 196.808 140.9 195.758 140.9 194.468C140.9 193.268 140.42 192.198 139.62 191.558C138.76 190.838 137.51 190.528 135.81 190.528C134.29 190.528 133.13 190.638 132.29 190.798V203.458L132.3 203.438ZM135.06 192.758C135.25 192.698 135.59 192.658 136.07 192.658C137.44 192.658 138.14 193.418 138.14 194.578C138.14 195.838 137.3 196.648 135.86 196.648C135.52 196.648 135.27 196.628 135.06 196.588V192.738V192.758ZM147.89 203.628C151.22 203.628 153.52 201.268 153.52 196.868C153.52 193.498 151.75 190.418 148.06 190.418C144.58 190.418 142.43 193.328 142.43 197.078C142.43 200.828 144.35 203.628 147.87 203.628H147.89ZM147.99 201.358C146.3 201.358 145.34 199.478 145.36 197.018C145.34 194.638 146.27 192.678 147.99 192.678C149.71 192.678 150.6 194.678 150.6 196.958C150.6 199.488 149.71 201.358 148.01 201.358H147.99ZM156.86 190.598V193.968C156.86 195.508 156.73 196.958 156.38 198.288C156.13 199.318 155.75 200.268 155.28 201.178L154.25 201.258L154.36 206.528H156.45L156.6 203.428H163.53L163.68 206.528H165.77L165.88 201.258L164.7 201.178V190.598H156.84H156.86ZM159.43 192.898H161.94V201.118H158.11C158.43 200.448 158.72 199.618 158.93 198.798C159.25 197.488 159.42 196.018 159.42 194.538V192.898H159.43ZM166.44 190.598L170.36 199.488C170.45 199.718 170.49 199.908 170.4 200.138C170.17 200.748 169.58 201.358 168.78 201.358C168.38 201.358 168.11 201.318 167.92 201.278L167.75 203.528C168.07 203.628 168.45 203.698 169.04 203.698C170.41 203.698 171.44 203.048 172.22 202.008C173.08 200.868 173.78 198.958 174.47 197.098L176.72 190.608H173.83L172.59 195.248C172.34 196.238 172.17 197.058 172.02 197.628H171.96C171.73 196.928 171.5 196.148 171.2 195.308L169.54 190.608H166.44V190.598ZM178.17 190.598V203.428H180.91V198.038H181.35C182.76 198.038 183.27 199.108 183.67 200.548C183.94 201.518 184.16 202.528 184.56 203.418H187.49C186.96 202.158 186.6 200.828 186.2 199.498C185.72 197.958 185.08 196.798 183.52 196.378L187.54 190.588H184.25L181.15 196.018H180.92V190.588H178.18L178.17 190.598ZM191.67 203.428H194.45V192.998H197.59V190.598H188.57V192.998H191.67V203.428Z" fill="#1D2331"/>
</g>
<defs>
<clipPath id="clip0_1301_67075">
<rect width="209.88" height="206.56" fill="white"/>
</clipPath>
</defs>
</svg>
