<svg width="300" height="115" viewBox="0 0 300 115" fill="none" xmlns="http://www.w3.org/2000/svg">
<g clip-path="url(#clip0_1301_66944)">
<path fill-rule="evenodd" clip-rule="evenodd" d="M0 76.0598C3.27 81.9998 12.95 80.8998 15.82 75.0898C19.05 81.6098 29.56 81.6198 32.79 75.0898C33.98 77.4998 36.4 79.1898 39.06 79.9198C42.53 80.7398 46.62 79.4098 48.91 76.5798L48.93 76.5499C49.29 76.0999 49.61 75.6098 49.87 75.0898C53.1 81.6098 63.61 81.6198 66.84 75.0898C69.71 80.8798 79.39 82.0198 82.69 76.0198V79.9298C78.24 83.8098 70.66 83.4298 66.84 78.6698C64.85 81.0798 62.51 82.2598 59.42 82.5298C55.79 82.8698 52.21 81.5798 49.87 78.6698C47.27 81.8998 42.95 83.1198 39.05 82.3598C36.64 81.8798 34.39 80.6598 32.79 78.6698C30.8 81.0798 28.46 82.2598 25.37 82.5298C21.74 82.8698 18.16 81.5798 15.82 78.6698C11.99 83.4298 4.43 83.8198 0 79.9698V76.0698L0 76.0598Z" fill="#99C1E5"/>
<path fill-rule="evenodd" clip-rule="evenodd" d="M85.1506 78.0898C89.5806 81.3798 96.9906 80.3898 99.6106 75.0898C102.461 80.8498 112.061 81.9998 115.411 76.0998V76.0598V76.0798L115.461 76.0198V76.1498C118.781 81.9898 128.371 80.8698 131.231 75.0898C134.461 81.6098 144.971 81.6198 148.201 75.0898C149.391 77.4998 151.811 79.1898 154.471 79.9198C157.941 80.7398 162.031 79.4098 164.321 76.5798L164.341 76.5499C164.701 76.0999 165.021 75.6098 165.281 75.0898C168.511 81.6098 179.021 81.6198 182.251 75.0898C185.121 80.8798 194.801 82.0198 198.101 76.0198V76.0798C201.381 81.9898 211.041 80.8898 213.911 75.0898C217.141 81.6098 227.651 81.6198 230.881 75.0898C232.071 77.4998 234.491 79.1898 237.151 79.9198C240.621 80.7398 244.711 79.4098 247.001 76.5798L247.021 76.5499C247.381 76.0999 247.701 75.6098 247.961 75.0898C251.191 81.6098 261.701 81.6198 264.931 75.0898C267.801 80.8798 277.481 82.0198 280.781 76.0198V76.0898C284.061 81.9998 293.721 80.8998 296.591 75.0898V78.6698C292.761 83.4298 285.201 83.8198 280.771 79.9698V79.9498C276.321 83.8198 268.751 83.4298 264.931 78.6798C262.941 81.0898 260.601 82.2698 257.511 82.5398C253.881 82.8798 250.301 81.5898 247.961 78.6798C245.361 81.9098 241.041 83.1299 237.141 82.3699C234.731 81.8899 232.481 80.6698 230.881 78.6798C228.891 81.0898 226.551 82.2698 223.461 82.5398C219.831 82.8798 216.251 81.5898 213.911 78.6798C210.081 83.4398 202.521 83.8299 198.091 79.9799V79.9598C193.641 83.8298 186.071 83.4398 182.251 78.6898C180.261 81.0998 177.921 82.2799 174.831 82.5499C171.201 82.8899 167.621 81.5998 165.281 78.6898C162.681 81.9198 158.361 83.1398 154.461 82.3798C152.051 81.8998 149.801 80.6798 148.201 78.6898C146.211 81.0998 143.871 82.2799 140.781 82.5499C137.151 82.8899 133.571 81.5998 131.231 78.6898C127.401 83.4499 119.851 83.8398 115.411 79.9898C110.961 83.8298 103.421 83.4298 99.6006 78.6898C97.6106 81.0998 95.2706 82.2799 92.1806 82.5499C89.6806 82.7899 87.2006 82.2498 85.1406 80.9398V78.1098L85.1506 78.0898Z" fill="#99C1E5"/>
<path fill-rule="evenodd" clip-rule="evenodd" d="M64.4092 0.570312L47.4792 16.8903C32.9192 31.4503 25.6392 38.7403 25.6392 38.7403C18.2692 46.6203 19.7892 55.5303 25.9092 62.5003C29.0192 66.6903 30.7492 68.6003 31.0992 68.2303C40.7492 58.2203 45.5692 53.2103 45.5692 53.2103C40.7992 49.5503 38.3392 45.5503 38.1992 41.1903C38.2492 35.4903 41.3492 29.8503 47.4792 24.2603V69.3203L64.4092 53.0003V0.570312ZM97.7092 32.9803C102.809 32.9803 106.939 28.2903 106.939 22.5103C106.939 10.0603 92.6992 9.50031 84.8692 16.0203L69.9692 30.9303L68.2192 32.6203V113.72L85.1492 97.4003V25.7603C85.2092 22.9403 87.8892 20.2003 88.8492 20.0303C87.5792 21.2803 86.7392 32.9703 97.7092 32.9703V32.9803Z" fill="#99C1E5" stroke="#5B62A6" stroke-width="1.13" stroke-linecap="round" stroke-linejoin="round"/>
<path fill-rule="evenodd" clip-rule="evenodd" d="M3.77008 69.4297H296.1L292.66 73.2497H0.330078L3.77008 69.4297Z" fill="#5B62A6"/>
<path fill-rule="evenodd" clip-rule="evenodd" d="M108.971 41.1884H106.621V39.8984H116.111V41.1884H113.731L119.331 60.4184H121.451V61.7084H112.281V60.4184H114.601L112.321 52.5084C111.811 54.8584 110.941 56.9584 109.711 58.8184C108.251 61.0184 106.711 62.1184 105.081 62.1184C104.091 62.1184 103.301 61.8384 102.701 61.2784C101.991 60.6184 101.641 59.6684 101.641 58.4184C101.641 56.7984 102.101 54.9584 103.021 52.9284C103.731 51.3884 104.831 49.4684 106.331 47.1784C106.951 46.2584 107.571 45.3384 108.201 44.4184C108.761 43.4784 109.041 42.6184 109.041 41.8484C109.041 41.6984 109.021 41.4684 108.981 41.1684L108.971 41.1884ZM104.431 56.3084C104.431 56.9684 104.591 57.4684 104.911 57.8184C105.231 58.1584 105.631 58.3284 106.101 58.3284C106.681 58.3284 107.151 58.0984 107.521 57.6484C108.211 56.7784 108.921 55.6884 109.671 54.4084C110.701 52.6484 111.281 51.2684 111.411 50.2684L110.031 44.7484C109.341 45.6884 108.661 46.6184 107.971 47.5384C107.391 48.3484 106.931 49.0784 106.591 49.7184C106.161 50.4884 105.711 51.5384 105.241 52.8584C104.701 54.3784 104.441 55.5184 104.441 56.2984L104.431 56.3084Z" fill="#5B62A6"/>
<path fill-rule="evenodd" clip-rule="evenodd" d="M141.97 47.9084H133.96V46.6184H135.28C135.28 44.5984 134.93 43.1484 134.21 42.2484C133.65 41.5384 132.91 41.1884 131.98 41.1884C130.97 41.1884 130.15 41.6184 129.52 42.4784C128.7 43.6184 128.29 45.3684 128.29 47.7484C128.29 48.9484 128.38 50.0984 128.55 51.1884C128.72 52.2784 129.02 53.6884 129.43 55.3984C129.85 57.1184 130.06 58.5384 130.06 59.6784C130.06 59.9384 130.03 60.1684 129.98 60.3884C129.93 60.6084 129.88 60.7984 129.84 60.9684L129.71 61.4184C129.84 61.5284 130.07 61.5784 130.42 61.5784C131.58 61.5784 132.68 60.7984 133.72 59.2484C134.76 57.6984 135.28 55.9884 135.28 54.1184V53.3084H133.96V52.0184H141.97V53.3084H140.72C140.72 55.8284 139.57 57.9984 137.28 59.8284C135.16 61.5284 132.85 62.3784 130.36 62.3784C129.76 62.3784 129.33 62.3484 129.06 62.2984C128.79 62.2484 128.48 62.1384 128.11 61.9884V61.5684C128.11 60.9284 127.95 60.3184 127.64 59.7384C127.33 59.1584 126.58 58.1084 125.4 56.5884C124.35 55.2584 123.64 54.0184 123.28 52.8584C123.04 52.1084 122.93 51.2084 122.93 50.1584V49.3584C122.93 46.5084 123.86 44.1884 125.73 42.4084C127.49 40.7384 129.68 39.8984 132.29 39.8984C135.12 39.8984 137.29 40.7484 138.79 42.4384C139.78 43.5584 140.42 44.9484 140.72 46.6184H141.97V47.9084Z" fill="#5B62A6"/>
<path fill-rule="evenodd" clip-rule="evenodd" d="M152.269 60.4297V41.6497H150.979C149.759 41.6497 148.989 41.7897 148.659 42.0697C148.059 42.5797 147.479 43.9097 146.919 46.0697C146.789 46.6197 146.719 46.9197 146.689 46.9697C146.539 47.3897 146.279 47.6097 145.919 47.6097C145.529 47.6097 145.289 47.4897 145.179 47.2397C145.069 46.9897 145.019 46.6597 145.019 46.2297C145.019 45.3697 144.839 44.4797 144.469 43.5597C144.379 43.2997 144.179 42.8197 143.859 42.1097C143.649 41.6397 143.539 41.2997 143.539 41.0797C143.539 40.7797 143.659 40.5097 143.889 40.2797C144.129 40.0397 144.459 39.9297 144.889 39.9297C145.449 40.0397 146.059 40.1397 146.739 40.2397C147.419 40.3397 148.169 40.3797 149.009 40.3797H160.269C161.209 40.3797 161.989 40.3297 162.589 40.2397C163.189 40.1397 163.789 40.0397 164.389 39.9297C164.819 39.9297 165.149 40.0497 165.369 40.2997C165.589 40.5497 165.709 40.8097 165.709 41.0897C165.709 41.3297 165.579 41.7497 165.309 42.3797C165.039 42.9997 164.879 43.3997 164.809 43.5697C164.639 43.9997 164.499 44.4497 164.389 44.9197C164.279 45.3897 164.229 45.8297 164.229 46.2397C164.229 46.6697 164.209 46.9497 164.169 47.0797C164.039 47.4397 163.769 47.6297 163.369 47.6297C163.009 47.6297 162.729 47.3297 162.529 46.7297C162.469 46.5597 162.319 46.0197 162.079 45.0997C161.689 43.6497 161.219 42.6797 160.659 42.1797C160.269 41.8397 159.679 41.6697 158.889 41.6697H156.989V60.4497H159.559V61.7397H149.749V60.4497H152.259L152.269 60.4297Z" fill="#5B62A6"/>
<path fill-rule="evenodd" clip-rule="evenodd" d="M174.97 53.5402V60.4202H177.51V61.7102H167.67V60.4202H170.21L170.24 49.2302V42.3802C170.24 41.4802 171.08 40.8102 172.75 40.3902C174.04 40.0702 175.68 39.9102 177.67 39.9102C180.07 39.9102 181.98 40.5002 183.4 41.6802C184.73 42.8002 185.39 44.2402 185.39 46.0202C185.39 47.8002 184.9 49.1202 183.93 50.2502C182.95 51.3802 181.73 51.9402 180.26 51.9402C179.66 51.9402 179.12 51.8302 178.63 51.6202C178.24 51.4102 177.95 51.2402 177.76 51.1402L177.09 50.8202L174.97 53.5502V53.5402ZM174.97 51.7102L176.92 49.2302C177.3 49.5702 177.68 49.7402 178.04 49.7402C178.7 49.7402 179.2 49.3902 179.53 48.6902C179.86 47.9902 180.02 47.0802 180.02 45.9402C180.02 44.4402 179.87 43.3302 179.57 42.6302C179.16 41.6702 178.46 41.1802 177.46 41.1802C176.31 41.1802 175.56 41.8902 175.22 43.3002C175.05 44.0102 174.96 45.4302 174.96 47.5802V51.7002L174.97 51.7102Z" fill="#5B62A6"/>
<path fill-rule="evenodd" clip-rule="evenodd" d="M195.17 41.1884H192.82V39.8984H202.31V41.1884H199.93L205.53 60.4184H207.65V61.7084H198.48V60.4184H200.8L198.52 52.5084C198.01 54.8584 197.14 56.9584 195.91 58.8184C194.45 61.0184 192.91 62.1184 191.28 62.1184C190.29 62.1184 189.5 61.8384 188.9 61.2784C188.19 60.6184 187.84 59.6684 187.84 58.4184C187.84 56.7984 188.3 54.9584 189.22 52.9284C189.93 51.3884 191.03 49.4684 192.53 47.1784C193.15 46.2584 193.77 45.3384 194.4 44.4184C194.96 43.4784 195.24 42.6184 195.24 41.8484C195.24 41.6984 195.22 41.4684 195.18 41.1684L195.17 41.1884ZM190.63 56.3084C190.63 56.9684 190.79 57.4684 191.11 57.8184C191.43 58.1584 191.83 58.3284 192.3 58.3284C192.88 58.3284 193.35 58.0984 193.72 57.6484C194.41 56.7784 195.12 55.6884 195.87 54.4084C196.9 52.6484 197.48 51.2684 197.61 50.2684L196.23 44.7484C195.54 45.6884 194.86 46.6184 194.17 47.5384C193.59 48.3484 193.13 49.0784 192.79 49.7184C192.36 50.4884 191.91 51.5384 191.44 52.8584C190.9 54.3784 190.64 55.5184 190.64 56.2984L190.63 56.3084Z" fill="#5B62A6"/>
<path fill-rule="evenodd" clip-rule="evenodd" d="M226.92 61.7086H217.4V60.4186H219.94V57.6886L218.75 58.0386C218.21 58.2086 217.73 58.3286 217.3 58.4086C216.87 58.4886 216.35 58.5186 215.72 58.5186C213.96 58.5186 212.45 58.0386 211.18 57.0686C209.79 56.0186 209.09 54.6686 209.09 53.0186C209.09 51.2786 209.88 49.6286 211.47 48.0686C212.31 47.2286 213.7 46.1986 215.65 44.9786C216.46 44.4886 217.12 44.0586 217.61 43.6886C218.3 43.1986 219.07 42.5986 219.93 41.8886V41.5986H217.39V40.3086H226.91V41.5986H224.37V41.8886C225.36 42.6986 226.12 43.3086 226.65 43.6886C226.99 43.9286 227.66 44.3486 228.64 44.9786C230.57 46.1986 231.95 47.2186 232.79 48.0386C234.4 49.6286 235.2 51.2886 235.2 53.0286C235.2 54.6586 234.5 55.9986 233.11 57.0486C231.8 58.0386 230.29 58.5286 228.58 58.5286C227.83 58.5286 227.3 58.4986 227 58.4486C226.7 58.3986 226.22 58.2586 225.55 58.0486L224.36 57.6986V60.4286H226.9V61.7186L226.92 61.7086ZM224.38 43.4086V56.6286C224.81 56.7386 225.29 56.7886 225.83 56.7886C227.22 56.7886 228.32 56.2186 229.11 55.0886C229.8 54.0986 230.14 52.9486 230.14 51.6186C230.14 50.1586 229.59 48.7386 228.5 47.3386C227.75 46.3786 226.38 45.0686 224.38 43.4186V43.4086ZM219.94 43.4086C218.52 44.5886 217.54 45.4586 216.98 46.0186C216.06 46.9386 215.36 47.8386 214.89 48.7186C214.42 49.5986 214.18 50.5586 214.18 51.6086C214.18 52.9786 214.51 54.1386 215.18 55.0786C215.97 56.2186 217.09 56.7786 218.52 56.7786C218.84 56.7786 219.09 56.7686 219.26 56.7486C219.43 56.7286 219.66 56.6886 219.94 56.6186V43.3986V43.4086Z" fill="#5B62A6"/>
<path fill-rule="evenodd" clip-rule="evenodd" d="M247.34 60.4303H249.33C248.6 58.2203 247.93 55.7303 247.3 52.9703C246.98 51.5303 246.61 49.7103 246.21 47.5003L245.7 44.9603C245.38 45.3203 245.09 45.7203 244.83 46.1303C244.57 46.5503 244.28 47.0703 243.96 47.6903C243.12 49.1903 242.52 50.5503 242.16 51.7903C241.8 53.0203 241.61 54.1103 241.61 55.0503C241.61 56.4003 241.67 57.2503 241.8 57.5903C241.93 57.9303 242.12 58.1003 242.38 58.1003C242.68 58.1003 242.88 58.2103 242.99 58.4203C243.18 58.8303 243.28 59.7703 243.28 61.2503C243.28 61.5703 243.16 61.7803 242.93 61.8803C242.69 61.9803 242.45 62.0203 242.19 62.0303C242.02 62.0303 241.83 62.0103 241.61 61.9803C241.4 61.9503 241.22 61.9303 241.1 61.9003C240.97 61.8803 240.82 61.8703 240.63 61.8703H240.23C239.84 61.8703 239.54 61.9003 239.33 61.9503C239.12 62.0003 238.93 62.0303 238.78 62.0303C238.48 62.0303 238.23 61.9503 238.02 61.8003C237.82 61.6503 237.69 61.3603 237.65 60.9303V59.8303C237.65 58.6903 237.83 57.5703 238.2 56.4603C238.56 55.3503 239.34 53.6503 240.52 51.3503L242.55 47.4503C243.28 46.0903 243.7 45.3003 243.8 45.0603C244.4 43.7903 244.7 42.9003 244.7 42.3803C244.7 42.0403 244.62 41.8203 244.46 41.7403C244.3 41.6503 244.04 41.6103 243.67 41.6103H241.58V40.3203H251.65V41.6103H249.78C250.14 44.2503 250.67 47.1003 251.36 50.1703C251.96 52.8303 252.68 55.5503 253.51 58.3403C253.6 58.6203 253.7 58.9803 253.82 59.4203C253.94 59.8603 254.03 60.2003 254.09 60.4303H256.31V61.7203H247.34V60.4303Z" fill="#5B62A6"/>
<path fill-rule="evenodd" clip-rule="evenodd" d="M266.699 39.4609C266.909 39.4609 267.159 39.6109 267.439 39.9109C267.609 40.1209 267.789 40.3309 267.989 40.5209C268.459 41.0109 268.809 41.3609 269.039 41.5709C269.269 41.7709 269.879 42.3209 270.889 43.1909C272.579 44.6709 273.709 46.0409 274.269 47.2809C274.739 48.3109 274.979 49.5009 274.979 50.8609C274.979 52.3009 274.699 53.6009 274.139 54.7609C273.669 55.7209 272.899 56.7509 271.839 57.8409C270.779 58.9209 269.699 59.9909 268.609 61.0509C267.619 62.0409 266.939 62.5309 266.549 62.5309C266.309 62.5309 266.009 62.4009 265.649 62.1409C265.289 61.8809 264.549 61.2809 263.429 60.3309C261.589 58.7209 260.389 57.5509 259.829 56.8209C258.629 55.2109 258.029 53.3909 258.029 51.3509C258.029 49.1809 258.759 47.1009 260.219 45.1009C261.099 43.9009 262.359 42.6309 264.019 41.3009C264.379 41.0209 264.639 40.8209 264.779 40.7109C264.919 40.5909 265.099 40.4209 265.309 40.2009C265.519 39.9709 265.739 39.8009 265.949 39.6709C266.159 39.5409 266.419 39.4809 266.719 39.4809L266.699 39.4609ZM264.669 43.5409C263.579 43.6909 262.689 44.2209 261.999 45.1209C261.309 46.0209 260.969 46.9909 260.969 48.0109C260.969 48.9509 261.369 50.0109 262.159 51.1909C262.889 52.2609 264.029 53.5609 265.569 55.0809C266.529 56.0209 267.179 56.7109 267.499 57.1509C267.819 57.5909 268.009 58.0709 268.079 58.5809C268.979 58.2209 269.799 57.6509 270.539 56.8809C271.279 56.1109 271.719 55.2709 271.869 54.3709C271.909 54.1609 271.929 53.9809 271.929 53.8609C271.929 53.7409 271.909 53.5609 271.869 53.3509C271.719 52.4509 271.069 51.3109 269.909 49.9409C268.989 48.9109 268.289 48.1309 267.819 47.5909C266.639 46.3009 266.019 45.6209 265.949 45.5309C265.259 44.7609 264.839 44.0909 264.659 43.5409H264.669Z" fill="#5B62A6"/>
<path fill-rule="evenodd" clip-rule="evenodd" d="M285.679 60.4297V41.6497H284.389C283.169 41.6497 282.399 41.7897 282.069 42.0697C281.469 42.5797 280.889 43.9097 280.329 46.0697C280.199 46.6197 280.129 46.9197 280.099 46.9697C279.949 47.3897 279.689 47.6097 279.329 47.6097C278.939 47.6097 278.699 47.4897 278.589 47.2397C278.479 46.9897 278.429 46.6597 278.429 46.2297C278.429 45.3697 278.249 44.4797 277.879 43.5597C277.789 43.2997 277.589 42.8197 277.269 42.1097C277.059 41.6397 276.949 41.2997 276.949 41.0797C276.949 40.7797 277.069 40.5097 277.299 40.2797C277.529 40.0497 277.869 39.9297 278.299 39.9297C278.859 40.0397 279.469 40.1397 280.149 40.2397C280.829 40.3397 281.579 40.3797 282.419 40.3797H293.679C294.619 40.3797 295.399 40.3297 295.999 40.2397C296.599 40.1397 297.199 40.0397 297.799 39.9297C298.229 39.9297 298.559 40.0497 298.779 40.2997C299.009 40.5497 299.119 40.8097 299.119 41.0897C299.119 41.3297 298.989 41.7497 298.719 42.3797C298.449 42.9997 298.289 43.3997 298.219 43.5697C298.049 43.9997 297.909 44.4497 297.799 44.9197C297.689 45.3897 297.639 45.8297 297.639 46.2397C297.639 46.6697 297.619 46.9497 297.579 47.0797C297.449 47.4397 297.179 47.6297 296.779 47.6297C296.419 47.6297 296.139 47.3297 295.939 46.7297C295.879 46.5597 295.729 46.0197 295.489 45.0997C295.099 43.6497 294.629 42.6797 294.069 42.1797C293.679 41.8397 293.089 41.6697 292.299 41.6697H290.399V60.4497H292.969V61.7397H283.159V60.4497H285.669L285.679 60.4297Z" fill="#5B62A6"/>
<path fill-rule="evenodd" clip-rule="evenodd" d="M108.961 101.411L109.571 101.491C109.431 102.571 109.031 103.411 108.381 104.021C107.731 104.631 106.911 104.931 105.911 104.931C104.681 104.931 103.661 104.471 102.851 103.551C102.041 102.631 101.641 101.471 101.641 100.071C101.641 98.6706 102.041 97.4706 102.831 96.5406C103.621 95.6106 104.631 95.1406 105.841 95.1406C106.291 95.1406 106.711 95.2106 107.091 95.3506C107.481 95.4906 107.831 95.7006 108.171 95.9906L108.661 95.1906H109.151L109.321 98.9506L108.821 98.9806C108.631 97.9206 108.291 97.1106 107.811 96.5506C107.331 95.9906 106.731 95.7106 106.011 95.7106C105.111 95.7106 104.441 96.0706 103.991 96.7806C103.541 97.4906 103.321 98.5706 103.321 100.011C103.321 101.451 103.551 102.551 104.001 103.251C104.451 103.941 105.151 104.291 106.101 104.291C106.841 104.291 107.451 104.041 107.941 103.551C108.431 103.061 108.771 102.341 108.961 101.411Z" fill="#5B62A6"/>
<path fill-rule="evenodd" clip-rule="evenodd" d="M112.671 96.6494C112.561 96.3794 112.441 96.1994 112.301 96.1094C112.171 96.0194 111.991 95.9694 111.751 95.9694C111.751 95.9694 111.741 95.9694 111.731 95.9694C111.691 95.9694 111.651 95.9694 111.611 95.9694H111.311V95.3594H115.161V95.9694H114.681C114.681 95.9694 114.641 95.9694 114.601 95.9694C114.571 95.9694 114.541 95.9694 114.521 95.9694C114.311 95.9694 114.151 95.9894 114.061 96.0394C113.971 96.0894 113.921 96.1594 113.921 96.2694C113.921 96.3494 113.971 96.4694 114.051 96.6594C114.091 96.7394 114.121 96.7994 114.141 96.8394L116.091 101.229L117.761 97.3794C117.811 97.2694 117.841 97.1494 117.871 97.0094C117.901 96.8694 117.911 96.7294 117.911 96.6094C117.911 96.3894 117.831 96.2394 117.681 96.1294C117.531 96.0194 117.301 95.9694 116.991 95.9694H116.621V95.3594H120.001V95.9694C120.001 95.9694 119.931 95.9694 119.891 95.9694C119.841 95.9694 119.811 95.9694 119.791 95.9694C119.311 95.9694 118.931 96.2994 118.641 96.9594C118.621 96.9994 118.611 97.0294 118.591 97.0494L116.581 101.769C116.021 103.079 115.541 103.929 115.141 104.319C114.741 104.709 114.241 104.909 113.641 104.909C113.041 104.909 112.571 104.719 112.181 104.339C111.801 103.959 111.611 103.479 111.611 102.899C111.611 102.499 111.711 102.169 111.921 101.919C112.131 101.669 112.401 101.549 112.751 101.549C113.031 101.549 113.261 101.639 113.431 101.809C113.611 101.979 113.701 102.209 113.701 102.479C113.701 102.769 113.561 103.019 113.291 103.239C113.011 103.449 112.881 103.629 112.881 103.769C112.881 103.929 112.961 104.049 113.111 104.139C113.261 104.229 113.471 104.279 113.741 104.279C114.071 104.279 114.371 104.149 114.641 103.899C114.911 103.649 115.151 103.269 115.351 102.779L112.651 96.6494H112.671Z" fill="#5B62A6"/>
<path fill-rule="evenodd" clip-rule="evenodd" d="M124.73 95.9498C124.69 97.8398 124.54 99.4399 124.3 100.73C124.05 102.03 123.68 103.14 123.2 104.06H127.07V95.9498H124.74H124.73ZM122.61 95.3398H129.83V95.9498H128.99C128.81 95.9498 128.68 95.9998 128.59 96.0998C128.5 96.1998 128.46 96.3598 128.46 96.5698V104.06H129.83V107.24H129.34C129.27 106.28 129.06 105.61 128.71 105.23C128.36 104.85 127.76 104.67 126.91 104.67H124.01C123.17 104.67 122.57 104.86 122.21 105.23C121.86 105.61 121.64 106.27 121.57 107.24H121.1V104.06H122.41C122.9 103.27 123.28 102.27 123.57 101.07C123.85 99.8598 123.99 98.5998 123.99 97.2798C123.99 96.7098 123.93 96.3398 123.8 96.1898C123.68 96.0298 123.43 95.9498 123.06 95.9498H122.6V95.3398H122.61Z" fill="#5B62A6"/>
<path fill-rule="evenodd" clip-rule="evenodd" d="M134.18 100.009C134.18 101.459 134.41 102.539 134.86 103.249C135.31 103.959 136.01 104.309 136.95 104.309C137.89 104.309 138.56 103.949 139.02 103.239C139.48 102.529 139.71 101.449 139.71 100.009C139.71 98.5694 139.48 97.4594 139.03 96.7594C138.58 96.0594 137.88 95.7094 136.95 95.7094C136.02 95.7094 135.32 96.0694 134.87 96.7694C134.42 97.4694 134.19 98.5594 134.19 100.009H134.18ZM132.5 100.009C132.5 98.5794 132.92 97.4094 133.75 96.4894C134.58 95.5694 135.65 95.1094 136.94 95.1094C138.23 95.1094 139.29 95.5694 140.12 96.4794C140.95 97.3994 141.37 98.5694 141.37 99.9994C141.37 101.429 140.96 102.609 140.13 103.519C139.31 104.429 138.24 104.879 136.94 104.879C135.64 104.879 134.58 104.419 133.74 103.509C132.91 102.599 132.49 101.429 132.49 99.9994L132.5 100.009Z" fill="#5B62A6"/>
<path fill-rule="evenodd" clip-rule="evenodd" d="M146.459 104.072V104.682H142.869V104.072H142.959C143.319 104.072 143.659 103.952 143.959 103.722C144.269 103.492 144.639 103.072 145.059 102.462L146.699 100.122L144.169 96.4616C144.009 96.2516 143.889 96.1116 143.779 96.0516C143.679 95.9916 143.529 95.9616 143.339 95.9616H142.899V95.3516H146.789V95.9616H146.079C145.979 95.9616 145.899 95.9816 145.839 96.0116C145.779 96.0416 145.759 96.0916 145.759 96.1516C145.759 96.2016 145.759 96.2416 145.779 96.2916C145.789 96.3316 145.829 96.4016 145.879 96.4916L147.529 98.9316L148.879 97.0016C148.959 96.8916 149.019 96.7916 149.059 96.7016C149.099 96.6116 149.119 96.5316 149.119 96.4516C149.119 96.2916 149.049 96.1716 148.909 96.0916C148.769 96.0116 148.549 95.9716 148.269 95.9716H148.069V95.3616H151.529V95.9616C151.109 95.9616 150.779 96.0416 150.519 96.1816C150.259 96.3216 149.979 96.6116 149.659 97.0516L147.939 99.5016L150.629 103.412C150.819 103.682 150.999 103.862 151.159 103.942C151.319 104.032 151.559 104.072 151.879 104.072H152.059V104.682H147.889V104.072H148.499C148.719 104.072 148.879 104.052 148.969 104.012C149.069 103.972 149.109 103.902 149.109 103.812C149.109 103.752 149.099 103.692 149.069 103.622C149.039 103.552 148.969 103.442 148.869 103.292L147.079 100.692L145.739 102.582C145.589 102.792 145.489 102.962 145.429 103.102C145.369 103.242 145.339 103.372 145.339 103.502C145.339 103.692 145.419 103.832 145.589 103.922C145.759 104.022 146.009 104.062 146.339 104.062H146.469L146.459 104.072Z" fill="#5B62A6"/>
<path fill-rule="evenodd" clip-rule="evenodd" d="M155.19 100.009C155.19 101.459 155.42 102.539 155.87 103.249C156.32 103.959 157.02 104.309 157.96 104.309C158.9 104.309 159.57 103.949 160.03 103.239C160.49 102.529 160.72 101.449 160.72 100.009C160.72 98.5694 160.49 97.4594 160.04 96.7594C159.59 96.0594 158.89 95.7094 157.96 95.7094C157.03 95.7094 156.33 96.0694 155.88 96.7694C155.43 97.4694 155.2 98.5594 155.2 100.009H155.19ZM153.51 100.009C153.51 98.5794 153.93 97.4094 154.76 96.4894C155.59 95.5694 156.66 95.1094 157.95 95.1094C159.24 95.1094 160.3 95.5694 161.13 96.4794C161.96 97.3994 162.38 98.5694 162.38 99.9994C162.38 101.429 161.97 102.609 161.14 103.519C160.32 104.429 159.25 104.879 157.95 104.879C156.65 104.879 155.59 104.419 154.75 103.509C153.92 102.599 153.5 101.429 153.5 99.9994L153.51 100.009Z" fill="#5B62A6"/>
<path fill-rule="evenodd" clip-rule="evenodd" d="M167.71 95.9498C167.67 97.8398 167.52 99.4399 167.28 100.73C167.03 102.03 166.66 103.14 166.18 104.06H170.04V95.9498H167.71ZM165.59 95.3398H172.81V95.9498H171.97C171.79 95.9498 171.66 95.9998 171.57 96.0998C171.48 96.1998 171.44 96.3598 171.44 96.5698V104.06H172.81V107.24H172.32C172.25 106.28 172.04 105.61 171.69 105.23C171.34 104.85 170.74 104.67 169.89 104.67H166.99C166.15 104.67 165.55 104.86 165.19 105.23C164.84 105.61 164.62 106.27 164.55 107.24H164.08V104.06H165.39C165.88 103.27 166.26 102.27 166.55 101.07C166.83 99.8598 166.97 98.5998 166.97 97.2798C166.97 96.7098 166.91 96.3398 166.78 96.1898C166.66 96.0298 166.41 95.9498 166.04 95.9498H165.58V95.3398H165.59Z" fill="#5B62A6"/>
<path fill-rule="evenodd" clip-rule="evenodd" d="M175.33 95.3498H179.45V95.9598H178.61C178.43 95.9598 178.3 96.0098 178.22 96.0998C178.14 96.1998 178.1 96.3598 178.1 96.5698V99.4498H182.47V96.5698C182.47 96.3498 182.43 96.1898 182.34 96.0898C182.25 95.9998 182.11 95.9498 181.91 95.9498H181.1V95.3398H185.23V95.9498H184.39C184.21 95.9498 184.08 95.9998 183.99 96.0998C183.9 96.1998 183.86 96.3598 183.86 96.5698V103.44C183.86 103.68 183.91 103.84 184 103.93C184.09 104.02 184.28 104.06 184.55 104.06H185.23V104.67H181.1V104.06H181.79C182.05 104.06 182.23 104.01 182.33 103.93C182.42 103.84 182.47 103.68 182.47 103.44V100.11H178.1V103.44C178.1 103.68 178.15 103.84 178.24 103.93C178.33 104.02 178.51 104.06 178.77 104.06H179.46V104.67H175.34V104.06H176.01C176.28 104.06 176.46 104.01 176.55 103.93C176.64 103.84 176.69 103.68 176.69 103.44V96.5698C176.69 96.3498 176.65 96.1898 176.56 96.0898C176.47 95.9998 176.33 95.9498 176.13 95.9498H175.33V95.3398V95.3498Z" fill="#5B62A6"/>
<path fill-rule="evenodd" clip-rule="evenodd" d="M192.329 100.98L190.799 97.2302L189.319 100.98H192.329ZM190.909 95.1902H191.409L194.699 103.41C194.809 103.67 194.909 103.84 195.019 103.92C195.129 104 195.309 104.04 195.579 104.04H195.849V104.66H191.989V104.04H192.569C192.829 104.04 193.019 104.01 193.119 103.96C193.219 103.91 193.269 103.82 193.269 103.7C193.269 103.65 193.269 103.59 193.239 103.52C193.219 103.45 193.189 103.36 193.149 103.25L192.559 101.62H189.079L188.679 102.62C188.629 102.76 188.589 102.9 188.549 103.05C188.519 103.2 188.499 103.3 188.499 103.37C188.499 103.59 188.579 103.76 188.729 103.87C188.889 103.98 189.119 104.03 189.449 104.03H189.769V104.65H186.439V104.03H186.549C186.889 104.03 187.159 103.96 187.339 103.81C187.529 103.67 187.699 103.38 187.879 102.94L190.909 95.1602V95.1902Z" fill="#5B62A6"/>
<path fill-rule="evenodd" clip-rule="evenodd" d="M202.66 99.5298V96.4898C202.66 96.2598 202.61 96.1098 202.52 96.0398C202.43 95.9598 202.26 95.9298 202 95.9298H201.16C200.43 95.9298 199.9 96.0698 199.58 96.3498C199.26 96.6298 199.1 97.0898 199.1 97.7198C199.1 98.3898 199.3 98.8698 199.69 99.1398C200.09 99.4198 200.8 99.5499 201.83 99.5499H202.01L202.64 99.5198L202.66 99.5298ZM196.73 102.58H197.22C197.24 103.07 197.29 103.42 197.37 103.62C197.45 103.83 197.58 103.93 197.75 103.93C197.88 103.93 198 103.86 198.09 103.73C198.18 103.6 198.26 103.38 198.33 103.08L198.67 101.62C198.79 101.11 198.99 100.72 199.28 100.46C199.57 100.2 199.98 100.03 200.5 99.9498C199.55 99.8498 198.84 99.6099 198.36 99.2299C197.88 98.8399 197.64 98.3198 197.64 97.6398C197.64 96.9098 197.89 96.3398 198.38 95.9398C198.88 95.5398 199.58 95.3398 200.5 95.3398H205.41V95.9498H204.56C204.38 95.9498 204.25 95.9998 204.17 96.0898C204.09 96.1898 204.05 96.3398 204.05 96.5598V103.43C204.05 103.67 204.1 103.83 204.19 103.92C204.28 104.01 204.46 104.05 204.73 104.05H205.4V104.66H201.16V104.05H201.95C202.22 104.05 202.4 104.01 202.49 103.92C202.58 103.83 202.63 103.67 202.63 103.43V100.14H201.75C201.19 100.14 200.76 100.27 200.47 100.54C200.17 100.81 199.99 101.22 199.93 101.78L199.79 103.07C199.72 103.73 199.56 104.2 199.33 104.48C199.1 104.76 198.74 104.89 198.25 104.89C197.76 104.89 197.37 104.72 197.09 104.36C196.82 104.01 196.68 103.51 196.68 102.86C196.68 102.83 196.68 102.78 196.68 102.72C196.68 102.65 196.68 102.6 196.68 102.56L196.73 102.58Z" fill="#5B62A6"/>
<path fill-rule="evenodd" clip-rule="evenodd" d="M215.42 99.6599C215.98 99.7399 216.41 99.8998 216.72 100.15C217.03 100.4 217.26 100.77 217.42 101.28C217.52 101.59 217.61 102.04 217.7 102.61C217.84 103.5 218.07 103.94 218.4 103.94C218.59 103.94 218.73 103.84 218.82 103.63C218.91 103.43 218.96 103.08 218.97 102.59H219.46V102.89C219.46 103.55 219.33 104.05 219.07 104.4C218.81 104.75 218.42 104.92 217.92 104.92C217 104.92 216.43 104.07 216.21 102.37C216.17 102.11 216.15 101.9 216.13 101.77C216.03 101.13 215.86 100.69 215.62 100.46C215.38 100.23 214.98 100.11 214.43 100.11H213.54V103.44C213.54 103.68 213.59 103.84 213.68 103.93C213.77 104.02 213.95 104.06 214.21 104.06H214.9V104.67H210.78V104.06H211.45C211.72 104.06 211.9 104.01 211.99 103.93C212.08 103.84 212.13 103.68 212.13 103.44V96.5698C212.13 96.3498 212.09 96.1898 212 96.0898C211.91 95.9998 211.77 95.9498 211.57 95.9498H210.77V95.3398H214.89V95.9498H214.05C213.87 95.9498 213.74 95.9998 213.66 96.0898C213.58 96.1898 213.54 96.3498 213.54 96.5598V99.4799H214.04C214.62 99.4799 215.05 99.3698 215.33 99.1498C215.62 98.9298 215.82 98.5298 215.93 97.9698C215.97 97.7698 216.02 97.4799 216.08 97.1199C216.17 96.5099 216.27 96.1098 216.36 95.8998C216.49 95.6398 216.67 95.4399 216.91 95.2999C217.15 95.1599 217.44 95.0898 217.76 95.0898C218.2 95.0898 218.56 95.2098 218.84 95.4598C219.12 95.7098 219.26 96.0299 219.26 96.4099C219.26 96.6699 219.18 96.8798 219.02 97.0398C218.86 97.2098 218.65 97.2898 218.4 97.2898C218.15 97.2898 217.92 97.2298 217.76 97.0998C217.6 96.9698 217.52 96.7998 217.52 96.5898C217.52 96.4198 217.57 96.2598 217.68 96.0998C217.79 95.9398 217.84 95.8498 217.84 95.8298C217.84 95.7798 217.82 95.7498 217.77 95.7198C217.72 95.6898 217.66 95.6798 217.58 95.6798C217.18 95.6798 216.9 96.1398 216.74 97.0698C216.71 97.2398 216.69 97.3698 216.68 97.4498C216.53 98.2298 216.37 98.7598 216.19 99.0398C216.01 99.3198 215.75 99.5198 215.4 99.6398L215.42 99.6599Z" fill="#5B62A6"/>
<path fill-rule="evenodd" clip-rule="evenodd" d="M222.831 100.009C222.831 101.459 223.061 102.539 223.511 103.249C223.961 103.959 224.661 104.309 225.601 104.309C226.541 104.309 227.211 103.949 227.671 103.239C228.131 102.529 228.361 101.449 228.361 100.009C228.361 98.5694 228.131 97.4594 227.681 96.7594C227.231 96.0594 226.531 95.7094 225.601 95.7094C224.671 95.7094 223.971 96.0694 223.521 96.7694C223.061 97.4794 222.841 98.5594 222.841 100.009H222.831ZM221.151 100.009C221.151 98.5794 221.571 97.4094 222.401 96.4894C223.231 95.5694 224.301 95.1094 225.591 95.1094C226.881 95.1094 227.941 95.5694 228.771 96.4794C229.601 97.3994 230.021 98.5694 230.021 99.9994C230.021 101.429 229.611 102.609 228.781 103.519C227.961 104.429 226.891 104.879 225.591 104.879C224.291 104.879 223.231 104.419 222.391 103.509C221.561 102.599 221.141 101.429 221.141 99.9994L221.151 100.009Z" fill="#5B62A6"/>
<path fill-rule="evenodd" clip-rule="evenodd" d="M231.799 95.3498H235.029L237.539 102.48L239.959 95.3498H243.109V95.9598H242.269C242.089 95.9598 241.959 96.0098 241.879 96.0998C241.799 96.1998 241.759 96.3598 241.759 96.5698V103.44C241.759 103.68 241.809 103.84 241.899 103.93C241.989 104.02 242.169 104.06 242.429 104.06H243.119V104.66H238.929V104.06H239.699C239.969 104.06 240.149 104.01 240.239 103.93C240.329 103.84 240.379 103.68 240.379 103.44V96.1698L237.489 104.67H236.989L233.899 96.1698V102.62C233.899 103.18 234.009 103.57 234.239 103.79C234.469 104.01 234.869 104.12 235.439 104.12V104.68H231.689V104.12C232.289 104.12 232.689 104 232.909 103.79C233.129 103.58 233.239 103.16 233.239 102.53V96.5698C233.239 96.3298 233.189 96.1598 233.099 96.0798C233.009 95.9998 232.829 95.9498 232.559 95.9498H231.799V95.3398V95.3498Z" fill="#5B62A6"/>
<path fill-rule="evenodd" clip-rule="evenodd" d="M244.891 95.3498H254.791V95.9598H253.951C253.771 95.9598 253.641 96.0098 253.551 96.1098C253.461 96.2098 253.421 96.3698 253.421 96.5798V103.45C253.421 103.69 253.471 103.85 253.561 103.94C253.651 104.03 253.841 104.07 254.111 104.07H254.791V104.68H250.661V104.07H251.351C251.611 104.07 251.791 104.02 251.891 103.94C251.981 103.85 252.031 103.69 252.031 103.45V96.5398C252.031 96.3198 251.991 96.1598 251.901 96.0698C251.821 95.9798 251.671 95.9298 251.471 95.9298H248.181C248.001 95.9298 247.871 95.9798 247.791 96.0698C247.711 96.1598 247.671 96.3198 247.671 96.5298V103.44C247.671 103.68 247.721 103.84 247.811 103.93C247.901 104.02 248.081 104.06 248.341 104.06H249.031V104.67H244.911V104.06H245.581C245.851 104.06 246.031 104.01 246.121 103.93C246.211 103.84 246.261 103.68 246.261 103.44V96.5698C246.261 96.3498 246.221 96.1898 246.131 96.0898C246.041 95.9998 245.901 95.9498 245.701 95.9498H244.901V95.3398L244.891 95.3498Z" fill="#5B62A6"/>
<path fill-rule="evenodd" clip-rule="evenodd" d="M261.88 100.98L260.35 97.2302L258.87 100.98H261.88ZM260.46 95.1902H260.96L264.25 103.41C264.36 103.67 264.46 103.84 264.57 103.92C264.68 104 264.86 104.04 265.13 104.04H265.4V104.66H261.54V104.04H262.12C262.38 104.04 262.57 104.01 262.67 103.96C262.77 103.91 262.82 103.82 262.82 103.7C262.82 103.65 262.82 103.59 262.79 103.52C262.77 103.45 262.74 103.36 262.7 103.25L262.11 101.62H258.63L258.23 102.62C258.18 102.76 258.14 102.9 258.1 103.05C258.07 103.2 258.05 103.3 258.05 103.37C258.05 103.59 258.13 103.76 258.28 103.87C258.44 103.98 258.67 104.03 259 104.03H259.32V104.65H255.99V104.03H256.1C256.44 104.03 256.71 103.96 256.89 103.81C257.08 103.67 257.25 103.38 257.43 102.94L260.46 95.1602V95.1902Z" fill="#5B62A6"/>
<path fill-rule="evenodd" clip-rule="evenodd" d="M266.65 95.3498H270.77V95.9598H269.93C269.75 95.9598 269.62 96.0098 269.54 96.0998C269.46 96.1998 269.42 96.3598 269.42 96.5698V99.4498H273.79V96.5698C273.79 96.3498 273.75 96.1898 273.66 96.0898C273.57 95.9998 273.43 95.9498 273.23 95.9498H272.42V95.3398H276.55V95.9498H275.71C275.53 95.9498 275.4 95.9998 275.31 96.0998C275.22 96.1998 275.18 96.3598 275.18 96.5698V103.44C275.18 103.68 275.23 103.84 275.32 103.93C275.41 104.02 275.6 104.06 275.87 104.06H276.55V104.67H272.42V104.06H273.11C273.37 104.06 273.55 104.01 273.65 103.93C273.74 103.84 273.79 103.68 273.79 103.44V100.11H269.42V103.44C269.42 103.68 269.47 103.84 269.56 103.93C269.65 104.02 269.83 104.06 270.09 104.06H270.78V104.67H266.66V104.06H267.33C267.6 104.06 267.78 104.01 267.87 103.93C267.96 103.84 268.01 103.68 268.01 103.44V96.5698C268.01 96.3498 267.97 96.1898 267.88 96.0898C267.79 95.9998 267.65 95.9498 267.45 95.9498H266.65V95.3398V95.3498Z" fill="#5B62A6"/>
<path fill-rule="evenodd" clip-rule="evenodd" d="M278.35 95.3498H282.47V95.9598H281.63C281.45 95.9598 281.32 96.0098 281.24 96.0998C281.16 96.1998 281.12 96.3598 281.12 96.5698V101.76L285.49 97.0098V96.5698C285.49 96.3498 285.45 96.1898 285.36 96.0898C285.27 95.9998 285.13 95.9498 284.93 95.9498H284.12V95.3398H288.25V95.9498H287.41C287.23 95.9498 287.1 95.9998 287.01 96.0998C286.92 96.1998 286.88 96.3598 286.88 96.5698V103.44C286.88 103.68 286.93 103.84 287.02 103.93C287.11 104.02 287.3 104.06 287.57 104.06H288.25V104.67H284.12V104.06H284.81C285.07 104.06 285.25 104.01 285.35 103.93C285.44 103.84 285.49 103.68 285.49 103.44V98.1698L281.12 102.91V103.44C281.12 103.68 281.17 103.84 281.26 103.93C281.35 104.02 281.53 104.06 281.79 104.06H282.48V104.67H278.36V104.06H279.03C279.3 104.06 279.48 104.01 279.57 103.93C279.66 103.84 279.71 103.68 279.71 103.44V96.5698C279.71 96.3498 279.67 96.1898 279.58 96.0898C279.49 95.9998 279.35 95.9498 279.15 95.9498H278.35V95.3398V95.3498Z" fill="#5B62A6"/>
<path fill-rule="evenodd" clip-rule="evenodd" d="M295.611 99.5298V96.4898C295.611 96.2598 295.561 96.1098 295.471 96.0398C295.381 95.9598 295.211 95.9298 294.951 95.9298H294.111C293.381 95.9298 292.851 96.0698 292.531 96.3498C292.211 96.6298 292.051 97.0898 292.051 97.7198C292.051 98.3898 292.251 98.8698 292.641 99.1398C293.041 99.4198 293.751 99.5499 294.781 99.5499H294.961L295.591 99.5198L295.611 99.5298ZM289.681 102.58H290.171C290.191 103.07 290.241 103.42 290.321 103.62C290.401 103.83 290.531 103.93 290.701 103.93C290.831 103.93 290.951 103.86 291.041 103.73C291.131 103.6 291.211 103.38 291.281 103.08L291.621 101.62C291.741 101.11 291.941 100.72 292.231 100.46C292.521 100.2 292.931 100.03 293.451 99.9498C292.501 99.8498 291.791 99.6099 291.311 99.2299C290.831 98.8399 290.591 98.3198 290.591 97.6398C290.591 96.9098 290.841 96.3398 291.331 95.9398C291.831 95.5398 292.531 95.3398 293.451 95.3398H298.361V95.9498H297.511C297.331 95.9498 297.201 95.9998 297.121 96.0898C297.041 96.1898 297.001 96.3398 297.001 96.5598V103.43C297.001 103.67 297.051 103.83 297.141 103.92C297.231 104.01 297.411 104.05 297.681 104.05H298.351V104.66H294.111V104.05H294.901C295.171 104.05 295.351 104.01 295.441 103.92C295.531 103.83 295.581 103.67 295.581 103.43V100.14H294.701C294.141 100.14 293.711 100.27 293.421 100.54C293.121 100.81 292.941 101.22 292.881 101.78L292.741 103.07C292.671 103.73 292.511 104.2 292.281 104.48C292.051 104.76 291.691 104.89 291.201 104.89C290.711 104.89 290.321 104.72 290.041 104.36C289.771 104.01 289.631 103.51 289.631 102.86C289.631 102.83 289.631 102.78 289.631 102.72C289.631 102.65 289.631 102.6 289.631 102.56L289.681 102.58Z" fill="#5B62A6"/>
</g>
<defs>
<clipPath id="clip0_1301_66944">
<rect width="299.12" height="114.28" fill="white"/>
</clipPath>
</defs>
</svg>
