<svg width="140" height="42" viewBox="0 0 140 42" fill="none" xmlns="http://www.w3.org/2000/svg">
<g clip-path="url(#clip0_1301_66873)">
<path d="M2.36 26.9081C4.89 20.0881 7.25 11.7381 9.42 2.28812V2.21812C9.42 1.64812 8.14 1.07812 8.14 1.07812H16.42C16.42 1.07812 14.99 1.46812 14.99 2.71812C14.99 2.78813 15.02 2.85812 15.02 2.96812C15.34 5.06812 15.98 9.03813 17.38 15.0981C18.63 20.6681 19.84 24.8781 20.52 27.1581C20.95 28.5881 22.12 29.1181 22.12 29.1181H14.59C14.59 29.1181 16.34 28.2981 16.34 27.1581C16.34 24.8781 15.31 20.8381 14.16 15.6681H7.24L4.06 27.0481C4.03 27.1581 4.03 27.2981 4.03 27.4081C4.03 28.5881 5.78 29.1181 5.78 29.1181H0C0 29.1181 1.86 28.2281 2.36 26.9081ZM13.88 14.4881C12.56 8.77812 11.45 4.92812 10.85 2.88813L7.6 14.4881H13.88Z" fill="#162135"/>
<path d="M25.3496 1.07H27.9596L34.9196 1C38.8796 1 42.0896 4.25 42.0896 8.21C42.0896 10.81 40.6996 13.1 38.5896 14.35C42.3696 14.71 45.3396 17.88 45.3396 21.74C45.3396 25.84 42.0196 29.13 37.9196 29.13H25.3896C25.3896 29.13 26.5696 28.49 26.6396 27.88C26.8196 25.99 27.0696 21.88 27.0696 15.14C27.0696 8.4 26.9996 4.11 26.6696 2.29C26.5696 1.72 25.3496 1.08 25.3496 1.08V1.07ZM33.0596 2.21C32.3496 2.21 31.5996 2.25 30.8796 2.28C30.7396 4.21 30.4496 8.45 30.4196 14.23H33.6296C36.6996 14.23 39.2296 11.27 39.2296 8.2C39.2296 5.13 36.8396 2.35 33.8096 2.2H33.0596V2.21ZM36.6996 15.52C35.7396 15.49 34.4196 15.45 33.0996 15.45C32.1696 15.45 31.2396 15.49 30.4196 15.49C30.4196 21.77 30.6696 25.73 30.8496 27.66C32.7396 27.8 34.9896 27.98 36.5596 27.98C39.7396 27.98 42.3796 24.91 42.3796 21.74C42.3796 18.57 39.8796 15.67 36.7096 15.53L36.6996 15.52Z" fill="#162135"/>
<path d="M53.5791 15.38V16.81C53.5791 22.73 53.7891 26.48 54.0391 28.01C54.1091 28.69 55.2491 29.12 55.2491 29.12H48.5391C48.5391 29.12 49.6791 28.51 49.7891 27.91C49.9291 26.05 50.2191 21.88 50.2191 15.1C50.2191 8.32 49.9691 4.04 49.7191 1.93C49.6491 1.47 48.5391 1.07 48.5391 1.07H51.1491L58.0691 1C62.0291 1 65.2391 4.25 65.2391 8.21C65.2391 12.17 62.0591 15.35 58.0991 15.35L53.5691 15.39L53.5791 15.38ZM56.1491 2.21C55.4691 2.21 54.7191 2.21 54.0391 2.25C53.8991 4.18 53.6091 8.46 53.5791 14.2H56.7891C59.8591 14.2 62.3891 11.24 62.3891 8.21C62.3891 5.18 59.9991 2.36 56.9691 2.21H56.1491Z" fill="#162135"/>
<path d="M110.591 1.01172L103.681 1.08172H101.061C101.061 1.08172 102.171 1.47172 102.241 1.94172C102.491 4.04172 102.711 17.1317 102.691 17.7517L106.131 17.8017L106.111 15.3917L110.631 15.3617C114.601 15.3617 117.771 12.1517 117.771 8.23172C117.771 4.31172 114.561 1.02172 110.591 1.02172V1.01172ZM109.311 14.2017H106.101C106.131 8.45172 106.421 4.18172 106.551 2.25172C107.241 2.22172 107.981 2.22172 108.671 2.22172H109.481C112.521 2.35172 114.911 5.14172 114.911 8.22172C114.911 11.3017 112.371 14.2017 109.311 14.2017Z" fill="#162135"/>
<path d="M132.02 29.1186H139.55C139.55 29.1186 138.37 28.5786 137.94 27.1486C137.27 24.8586 136.06 20.6486 134.8 15.0786C133.42 9.00859 132.77 5.05859 132.45 2.94859C132.45 2.84859 132.42 2.77859 132.42 2.70859C132.42 1.44859 133.85 1.05859 133.85 1.05859H125.56C125.56 1.05859 126.85 1.62859 126.85 2.19859V2.26859C124.67 11.7286 122.31 20.0786 119.79 26.8886C119.29 28.2186 117.42 29.1086 117.42 29.1086H123.2C123.2 29.1086 121.45 28.5686 121.45 27.3986C121.45 27.2786 121.45 27.1486 121.48 27.0486L124.66 15.6586H131.58C132.72 20.8386 133.76 24.8686 133.76 27.1586C133.76 28.2986 132.01 29.1286 132.01 29.1286L132.02 29.1186ZM125.03 14.4786L128.27 2.87859C128.87 4.90859 129.98 8.75859 131.3 14.4786H125.03Z" fill="#162135"/>
<path d="M4.67 35.9688V36.8288H2.83V40.2487H1.84V36.8288H0V35.9688H4.67Z" fill="#162135"/>
<path d="M10.6098 40.3716C10.1298 40.3716 9.69977 40.3116 9.34977 40.1916C8.98977 40.0716 8.69977 39.9116 8.45977 39.7016C8.21977 39.4916 8.04977 39.2516 7.92977 38.9816C7.80977 38.7116 7.75977 38.4216 7.75977 38.1116C7.75977 37.8016 7.81977 37.5116 7.92977 37.2416C8.03977 36.9716 8.21977 36.7316 8.45977 36.5216C8.69977 36.3116 8.98977 36.1516 9.34977 36.0316C9.70977 35.9116 10.1298 35.8516 10.6098 35.8516C11.0898 35.8516 11.5198 35.9116 11.8698 36.0316C12.2298 36.1516 12.5198 36.3116 12.7598 36.5216C12.9998 36.7316 13.1698 36.9716 13.2898 37.2416C13.4098 37.5116 13.4598 37.8016 13.4598 38.1116C13.4598 38.4216 13.3998 38.7116 13.2898 38.9816C13.1798 39.2516 12.9998 39.4916 12.7598 39.7016C12.5198 39.9116 12.2298 40.0716 11.8698 40.1916C11.5098 40.3116 11.0898 40.3716 10.6098 40.3716ZM10.6098 39.5116C10.9398 39.5116 11.2198 39.4716 11.4498 39.3916C11.6798 39.3116 11.8698 39.2116 12.0198 39.0816C12.1698 38.9516 12.2698 38.8016 12.3398 38.6316C12.4098 38.4616 12.4398 38.2916 12.4398 38.1016C12.4398 37.9116 12.4098 37.7416 12.3398 37.5716C12.2698 37.4016 12.1698 37.2516 12.0198 37.1216C11.8698 36.9916 11.6798 36.8916 11.4498 36.8116C11.2198 36.7316 10.9398 36.6916 10.6098 36.6916C10.2798 36.6916 9.99977 36.7316 9.76977 36.8116C9.53977 36.8916 9.34977 36.9916 9.19977 37.1216C9.04977 37.2516 8.94977 37.4016 8.87977 37.5716C8.80977 37.7416 8.77977 37.9116 8.77977 38.1016C8.77977 38.2916 8.80977 38.4616 8.87977 38.6316C8.94977 38.8016 9.04977 38.9516 9.19977 39.0816C9.34977 39.2116 9.53977 39.3116 9.76977 39.3916C9.99977 39.4716 10.2798 39.5116 10.6098 39.5116Z" fill="#162135"/>
<path d="M17.4506 39.4609H18.4606L17.5406 41.0809H16.6406L17.4506 39.4609Z" fill="#162135"/>
<path d="M31.4692 40.2487H30.4792V38.7388C30.4792 38.7388 30.4092 38.8387 30.3392 38.8887C30.2692 38.9487 30.1892 38.9987 30.0792 39.0487C29.9692 39.0987 29.8392 39.1387 29.6892 39.1687C29.5392 39.1987 29.3592 39.2188 29.1592 39.2188C28.8292 39.2188 28.5292 39.1787 28.2592 39.0987C27.9892 39.0187 27.7592 38.8987 27.5592 38.7487C27.3692 38.5987 27.2192 38.3987 27.1092 38.1687C26.9992 37.9387 26.9492 37.6787 26.9492 37.3787V35.9688H27.9392V37.3787C27.9392 37.5287 27.9692 37.6687 28.0192 37.7887C28.0692 37.9087 28.1492 38.0187 28.2592 38.1087C28.3692 38.1987 28.4992 38.2687 28.6592 38.3187C28.8192 38.3687 28.9992 38.3887 29.2192 38.3887C29.4392 38.3887 29.6092 38.3687 29.7692 38.3187C29.9292 38.2687 30.0592 38.1987 30.1692 38.1087C30.2692 38.0187 30.3492 37.9187 30.4092 37.7887C30.4592 37.6687 30.4892 37.5287 30.4892 37.3787V35.9688H31.4792V40.2487H31.4692Z" fill="#162135"/>
<path d="M39.8009 35.9688V36.8288H37.9609V40.2487H36.9709V36.8288H35.1309V35.9688H39.8009Z" fill="#162135"/>
<path d="M45.7309 40.3716C45.2509 40.3716 44.8209 40.3116 44.4709 40.1916C44.1109 40.0716 43.8209 39.9116 43.5809 39.7016C43.3409 39.4916 43.1709 39.2516 43.0509 38.9816C42.9309 38.7116 42.8809 38.4216 42.8809 38.1116C42.8809 37.8016 42.9409 37.5116 43.0509 37.2416C43.1609 36.9716 43.3409 36.7316 43.5809 36.5216C43.8209 36.3116 44.1109 36.1516 44.4709 36.0316C44.8309 35.9116 45.2509 35.8516 45.7309 35.8516C46.2109 35.8516 46.6409 35.9116 46.9909 36.0316C47.3509 36.1516 47.6409 36.3116 47.8809 36.5216C48.1209 36.7316 48.2909 36.9716 48.4109 37.2416C48.5309 37.5116 48.5809 37.8016 48.5809 38.1116C48.5809 38.4216 48.5209 38.7116 48.4109 38.9816C48.3009 39.2516 48.1209 39.4916 47.8809 39.7016C47.6409 39.9116 47.3509 40.0716 46.9909 40.1916C46.6309 40.3116 46.2109 40.3716 45.7309 40.3716ZM45.7309 39.5116C46.0609 39.5116 46.3409 39.4716 46.5709 39.3916C46.8009 39.3116 46.9909 39.2116 47.1409 39.0816C47.2909 38.9516 47.3909 38.8016 47.4609 38.6316C47.5309 38.4616 47.5609 38.2916 47.5609 38.1016C47.5609 37.9116 47.5309 37.7416 47.4609 37.5716C47.3909 37.4016 47.2909 37.2516 47.1409 37.1216C46.9909 36.9916 46.8009 36.8916 46.5709 36.8116C46.3409 36.7316 46.0609 36.6916 45.7309 36.6916C45.4009 36.6916 45.1209 36.7316 44.8909 36.8116C44.6609 36.8916 44.4709 36.9916 44.3209 37.1216C44.1709 37.2516 44.0709 37.4016 44.0009 37.5716C43.9309 37.7416 43.9009 37.9116 43.9009 38.1016C43.9009 38.2916 43.9309 38.4616 44.0009 38.6316C44.0709 38.8016 44.1709 38.9516 44.3209 39.0816C44.4709 39.2116 44.6609 39.3116 44.8909 39.3916C45.1209 39.4716 45.4009 39.5116 45.7309 39.5116Z" fill="#162135"/>
<path d="M61.5606 35.9688V36.8288H59.7206V40.2487H58.7306V36.8288H56.8906V35.9688H61.5606Z" fill="#162135"/>
<path d="M69.2607 37.6709V38.5009H66.2207V39.3809H69.4207V40.2409H65.2207V35.9609H69.3907V36.8209H66.2207V37.6609H69.2607V37.6709Z" fill="#162135"/>
<path d="M77.1694 35.9709V36.8309H74.1795V37.4809H76.0594C76.2994 37.4809 76.5094 37.5109 76.6994 37.5809C76.8894 37.6509 77.0394 37.7409 77.1694 37.8609C77.2994 37.9809 77.3894 38.1309 77.4594 38.2909C77.5194 38.4609 77.5594 38.6409 77.5594 38.8409C77.5594 39.0409 77.5294 39.2209 77.4594 39.3909C77.3894 39.5609 77.2994 39.7109 77.1694 39.8309C77.0394 39.9509 76.8894 40.0509 76.6994 40.1309C76.5094 40.2109 76.2994 40.2409 76.0594 40.2409H73.1895V35.9609H77.1795L77.1694 35.9709ZM76.0594 39.3909C76.1594 39.3909 76.2395 39.3809 76.2995 39.3409C76.3595 39.3109 76.4194 39.2709 76.4494 39.2209C76.4794 39.1709 76.5094 39.1109 76.5294 39.0509C76.5394 38.9909 76.5495 38.9209 76.5495 38.8609C76.5495 38.8009 76.5494 38.7309 76.5294 38.6709C76.5094 38.6109 76.4894 38.5509 76.4494 38.5009C76.4094 38.4509 76.3595 38.4109 76.2995 38.3809C76.2395 38.3509 76.1494 38.3309 76.0594 38.3309H74.1795V39.4009H76.0594V39.3909Z" fill="#162135"/>
<path d="M85.3095 37.6709V38.5009H82.2695V39.3809H85.4695V40.2409H81.2695V35.9609H85.4395V36.8209H82.2695V37.6609H85.3095V37.6709Z" fill="#162135"/>
<path d="M94.9106 38.1016C94.9106 38.2816 94.9406 38.4616 95.0106 38.6316C95.0806 38.8016 95.1806 38.9516 95.3306 39.0816C95.4806 39.2116 95.6706 39.3116 95.9006 39.3916C96.1306 39.4716 96.4106 39.5116 96.7406 39.5116C96.9506 39.5116 97.1406 39.4916 97.3106 39.4616C97.4906 39.4316 97.6406 39.3816 97.7706 39.3416C97.9206 39.2916 98.0606 39.2316 98.1806 39.1616L98.6506 39.8616C98.5306 39.9616 98.3806 40.0416 98.2006 40.1216C98.1206 40.1516 98.0306 40.1816 97.9406 40.2116C97.8506 40.2416 97.7306 40.2716 97.6106 40.2916C97.4906 40.3116 97.3606 40.3316 97.2106 40.3516C97.0706 40.3616 96.9106 40.3716 96.7406 40.3716C96.2606 40.3716 95.8306 40.3116 95.4806 40.1916C95.1206 40.0716 94.8306 39.9116 94.5906 39.7016C94.3506 39.4916 94.1806 39.2516 94.0606 38.9816C93.9406 38.7116 93.8906 38.4216 93.8906 38.1116C93.8906 37.8016 93.9506 37.5116 94.0606 37.2416C94.1706 36.9716 94.3506 36.7316 94.5906 36.5216C94.8306 36.3116 95.1206 36.1516 95.4806 36.0316C95.8406 35.9116 96.2606 35.8516 96.7406 35.8516C96.9106 35.8516 97.0606 35.8516 97.2106 35.8716C97.3606 35.8816 97.4906 35.9016 97.6106 35.9316C97.7306 35.9516 97.8406 35.9816 97.9406 36.0116C98.0406 36.0416 98.1306 36.0716 98.2006 36.1016C98.3806 36.1816 98.5306 36.2616 98.6506 36.3616L98.1806 37.0616C98.0606 37.0016 97.9206 36.9416 97.7706 36.8916C97.6406 36.8516 97.4906 36.8116 97.3106 36.7716C97.1406 36.7316 96.9406 36.7116 96.7406 36.7116C96.4106 36.7116 96.1306 36.7516 95.9006 36.8316C95.6706 36.9116 95.4806 37.0116 95.3306 37.1416C95.1806 37.2716 95.0806 37.4216 95.0106 37.5916C94.9406 37.7616 94.9106 37.9316 94.9106 38.1216V38.1016Z" fill="#162135"/>
<path d="M105.881 35.9688H106.871V40.2487H105.881V38.4987H103.301V40.2487H102.311V35.9688H103.301V37.6387H105.881V35.9688Z" fill="#162135"/>
<path d="M115.351 40.2487H114.361V37.1387L111.981 40.2487H110.721V35.9688H111.711V39.0788L114.091 35.9688H115.361V40.2487H115.351Z" fill="#162135"/>
<path d="M123.67 35.9688V36.8288H121.83V40.2487H120.84V36.8288H119V35.9688H123.67Z" fill="#162135"/>
<path d="M127.79 38.1016C127.79 38.2816 127.82 38.4616 127.89 38.6316C127.96 38.8016 128.06 38.9516 128.21 39.0816C128.36 39.2116 128.54 39.3116 128.78 39.3916C129.01 39.4716 129.29 39.5116 129.62 39.5116C129.82 39.5116 130.01 39.4916 130.19 39.4616C130.36 39.4316 130.52 39.3816 130.65 39.3416C130.8 39.2916 130.94 39.2316 131.06 39.1616L131.53 39.8616C131.41 39.9616 131.26 40.0416 131.08 40.1216C131 40.1516 130.91 40.1816 130.82 40.2116C130.73 40.2416 130.61 40.2716 130.49 40.2916C130.37 40.3116 130.24 40.3316 130.09 40.3516C129.95 40.3616 129.79 40.3716 129.62 40.3716C129.13 40.3716 128.71 40.3116 128.35 40.1916C127.99 40.0716 127.7 39.9116 127.46 39.7016C127.22 39.4916 127.05 39.2516 126.93 38.9816C126.81 38.7116 126.76 38.4216 126.76 38.1116C126.76 37.8016 126.82 37.5116 126.93 37.2416C127.04 36.9716 127.22 36.7316 127.46 36.5216C127.7 36.3116 127.99 36.1516 128.35 36.0316C128.71 35.9116 129.13 35.8516 129.62 35.8516C129.79 35.8516 129.94 35.8516 130.09 35.8716C130.24 35.8816 130.37 35.9016 130.49 35.9316C130.61 35.9516 130.72 35.9816 130.82 36.0116C130.92 36.0416 131.01 36.0716 131.08 36.1016C131.26 36.1816 131.41 36.2616 131.53 36.3616L131.06 37.0616C130.94 37.0016 130.8 36.9416 130.65 36.8916C130.52 36.8516 130.37 36.8116 130.19 36.7716C130.01 36.7316 129.82 36.7116 129.62 36.7116C129.29 36.7116 129.01 36.7516 128.78 36.8316C128.55 36.9116 128.36 37.0116 128.21 37.1416C128.06 37.2716 127.96 37.4216 127.89 37.5916C127.82 37.7616 127.79 37.9316 127.79 38.1216V38.1016Z" fill="#162135"/>
<path d="M138.55 40.2505V38.7805H136.97L136.11 40.2505H135L135.93 38.6505C135.64 38.5505 135.43 38.4105 135.27 38.2005C135.11 37.9905 135.04 37.7405 135.04 37.4205C135.04 37.2305 135.07 37.0505 135.14 36.8805C135.2 36.7105 135.31 36.5505 135.45 36.4205C135.59 36.2905 135.76 36.1805 135.97 36.1005C136.18 36.0205 136.43 35.9805 136.72 35.9805H139.53V40.2605H138.53L138.55 40.2505ZM136.73 36.8305C136.6 36.8305 136.49 36.8505 136.4 36.8805C136.32 36.9105 136.25 36.9605 136.19 37.0105C136.13 37.0605 136.1 37.1305 136.08 37.2005C136.06 37.2705 136.05 37.3405 136.05 37.4205C136.05 37.5005 136.06 37.5705 136.08 37.6405C136.1 37.7105 136.14 37.7705 136.19 37.8305C136.24 37.8805 136.31 37.9305 136.4 37.9605C136.49 37.9905 136.6 38.0105 136.73 38.0105H138.55V36.8405H136.73V36.8305Z" fill="#162135"/>
<path d="M97.7891 13.49L94.1691 14.67C94.1191 13.98 94.0391 13.28 93.8991 12.64C93.3991 10.28 92.4591 7.88 91.1491 6.18C89.2491 3.75 86.2391 2.02 82.9991 1.81C82.7791 1.78 82.5791 1.78 82.3791 1.78C81.6491 1.78 80.9491 1.86 80.2191 1.98C75.9691 2.94 72.7991 6.57 72.0391 10.32C71.8691 11.24 71.7491 12.32 71.7491 13.44C71.7491 14.75 71.8891 16.07 72.1591 17.31C72.3091 18.03 72.5391 18.79 72.8291 19.51C73.0691 20.15 73.3391 20.78 73.6091 21.35C73.6891 21.52 73.7791 21.68 73.8491 21.84C73.9691 22.06 74.0791 22.28 74.1891 22.47C74.3391 22.74 74.4791 22.98 74.6191 23.19C74.6291 23.22 74.6491 23.24 74.6591 23.26C74.6791 23.27 74.6991 23.31 74.7091 23.33C74.7891 23.45 74.8591 23.56 74.9491 23.67C75.1491 23.97 75.3691 24.24 75.5891 24.5C75.7291 24.65 75.8591 24.8 75.9991 24.94C76.0491 24.99 76.1091 25.05 76.1591 25.1C76.3191 25.25 76.4791 25.4 76.6391 25.53C76.7091 25.6 76.7891 25.66 76.8591 25.72C77.0591 25.89 77.2691 26.04 77.4691 26.17C78.1691 26.66 78.8691 27.01 79.5391 27.27C80.4591 27.64 81.4391 27.85 82.4291 27.9L81.8591 29.75V29.78C81.7091 29.77 81.5591 29.77 81.4191 29.75C78.4991 29.57 75.7691 28.58 73.5491 26.82C73.1291 26.49 72.7291 26.14 72.3491 25.74C72.2391 25.64 72.1291 25.53 72.0291 25.41C71.8891 25.26 71.7591 25.11 71.6391 24.96C71.5591 24.88 71.4891 24.79 71.4191 24.7C71.0891 24.29 70.7791 23.85 70.4891 23.39C70.1691 22.91 69.8891 22.37 69.6191 21.81C69.0991 20.67 68.6791 19.43 68.4091 18.05C68.1691 17.11 68.1191 16.08 68.1191 15.16C68.1191 7.85 73.7991 1.63 79.7491 0.35C80.8291 0.12 81.8691 0 82.9291 0H82.9991C89.7991 0.02 95.9891 4.79 97.4791 11.71C97.6391 12.3 97.7191 12.91 97.7891 13.49Z" fill="#162135"/>
<path d="M83.9297 11.8991C83.9297 11.8991 85.5997 10.7691 86.5497 12.3691C86.5497 12.3691 87.3897 11.1691 89.2697 12.3691C89.2697 12.3691 86.8897 12.2191 86.4397 13.4591C86.4397 13.4591 85.6497 11.5891 83.9297 11.8991Z" fill="#162135"/>
<path d="M58.8691 24.8194C58.8691 24.8194 59.6091 24.3194 60.0191 25.0294C60.0191 25.0294 60.3891 24.4994 61.2191 25.0294C61.2191 25.0294 60.1691 24.9694 59.9691 25.5094C59.9691 25.5094 59.6191 24.6894 58.8691 24.8194Z" fill="#162135"/>
<path d="M73.4199 14.5919C73.4199 14.5919 74.4099 13.2419 75.2299 14.0719C75.2299 14.0719 75.6499 12.9419 77.0599 13.1819C77.0599 13.1819 75.4499 13.8519 75.2799 14.8819C75.2799 14.8819 74.5299 13.8019 73.4199 14.5819V14.5919Z" fill="#162135"/>
<path d="M62.6191 21.3189C62.6191 21.3189 63.4591 20.3689 64.6691 21.3389C64.6691 21.3389 64.8891 20.4289 66.6391 21.0289C66.6391 21.0289 64.8691 21.1989 64.9391 22.0889C64.9391 22.0889 63.7591 20.9089 62.6191 21.3189Z" fill="#162135"/>
<path d="M78.5703 10.8708C78.5703 10.8708 79.5903 10.5208 79.8603 11.4808C79.8603 11.4808 80.4603 10.9808 81.2703 11.8608C81.2703 11.8608 80.0603 11.4608 79.6503 12.0308C79.6503 12.0308 79.5003 10.9508 78.5703 10.8808V10.8708Z" fill="#162135"/>
<path d="M92.1093 18.1778L75.5893 24.4978L72.3493 25.7378C72.2393 25.6378 72.1293 25.5278 72.0293 25.4078L74.9493 23.6678L88.6993 15.5078L92.1093 18.1778Z" fill="#162135"/>
<path d="M97.0795 19.4775L92.9295 18.4375L74.1895 25.6275L97.0795 19.4775Z" fill="#162135"/>
<path d="M76.4004 25.8005L77.2704 25.6505L114.97 19.4805H99.1604L74.4004 26.1305L76.4004 25.8005Z" fill="#162135"/>
<path d="M116.451 19.8008L107.221 29.7508H81.4208C78.5008 29.5708 75.7708 28.5808 73.5508 26.8208L74.7108 26.6308L77.4708 26.1708L78.1008 26.0608L116.451 19.8008Z" fill="#162135"/>
<path d="M85.6399 16.6394L74.6199 23.1894L71.6399 24.9594C71.5599 24.8794 71.4899 24.7894 71.4199 24.6994L74.1899 22.4694L83.0299 15.3594L85.6399 16.6394Z" fill="#162135"/>
<path d="M80.4601 16.5178L71.0801 24.0678L79.0401 15.5078L80.4601 16.5178Z" fill="#162135"/>
</g>
<defs>
<clipPath id="clip0_1301_66873">
<rect width="139.55" height="41.08" fill="white"/>
</clipPath>
</defs>
</svg>
