<svg width="295" height="111" viewBox="0 0 295 111" fill="none" xmlns="http://www.w3.org/2000/svg">
<g clip-path="url(#clip0_1301_67041)">
<path d="M51.8855 80.6136C73.6441 75.4781 87.1199 53.676 81.9843 31.9174C76.8488 10.1587 55.0468 -3.31698 33.2882 1.81853C11.5295 6.95404 -1.94622 28.7561 3.18929 50.5147C8.3248 72.2734 30.1268 85.7491 51.8855 80.6136Z" stroke="#204A9A" stroke-width="1.48" stroke-miterlimit="22.93"/>
<path d="M42.5902 79.8094C63.9084 79.8094 81.1902 62.5276 81.1902 41.2094C81.1902 19.8912 63.9084 2.60938 42.5902 2.60938C21.272 2.60938 3.99023 19.8912 3.99023 41.2094C3.99023 62.5276 21.272 79.8094 42.5902 79.8094Z" stroke="#204A9A" stroke-width="0.74" stroke-miterlimit="22.93"/>
<path fill-rule="evenodd" clip-rule="evenodd" d="M15.4395 74.7302C20.1895 74.7302 22.8395 73.8802 26.9595 71.8002C32.0395 69.2402 35.7195 68.1602 41.5295 68.1602C47.3395 68.1602 51.0195 69.2402 56.0995 71.8002C60.2295 73.8802 62.8695 74.7302 67.6195 74.7302C72.3695 74.7302 75.0195 73.8802 79.1495 71.8002C84.2295 69.2402 87.9095 68.1602 93.7195 68.1602C99.5295 68.1602 103.21 69.2402 108.29 71.8002C112.42 73.8802 115.06 74.7302 119.81 74.7302C124.56 74.7302 127.21 73.8802 131.33 71.8002C136.41 69.2402 140.09 68.1602 145.9 68.1602C151.71 68.1602 155.39 69.2402 160.47 71.8002C164.6 73.8802 167.24 74.7302 171.99 74.7302C176.74 74.7302 179.39 73.8802 183.51 71.8002C188.59 69.2402 192.27 68.1602 198.08 68.1602C203.89 68.1602 207.57 69.2402 212.65 71.8002C216.78 73.8802 219.42 74.7302 224.18 74.7302C228.94 74.7302 231.58 73.8802 235.7 71.8002C240.78 69.2402 244.46 68.1602 250.27 68.1602C256.08 68.1602 259.76 69.2402 264.84 71.8002C268.97 73.8802 271.61 74.7302 276.37 74.7302C281.13 74.7302 283.77 73.8802 287.89 71.8002C289.9 70.7902 291.69 70.0102 293.48 69.4302V74.9302C292.68 75.2702 291.85 75.6702 290.94 76.1202C285.86 78.6802 282.18 79.7602 276.37 79.7602C270.56 79.7602 266.88 78.6802 261.8 76.1202C257.67 74.0402 255.03 73.1902 250.28 73.1902C245.53 73.1902 242.88 74.0402 238.76 76.1202C233.67 78.6802 230 79.7602 224.19 79.7602C218.38 79.7602 214.7 78.6802 209.62 76.1202C205.49 74.0402 202.85 73.1902 198.09 73.1902C193.33 73.1902 190.69 74.0402 186.57 76.1202C181.49 78.6802 177.81 79.7602 172 79.7602C166.19 79.7602 162.51 78.6802 157.43 76.1202C153.3 74.0402 150.66 73.1902 145.91 73.1902C141.16 73.1902 138.51 74.0402 134.39 76.1202C129.31 78.6802 125.63 79.7602 119.82 79.7602C114.01 79.7602 110.33 78.6802 105.25 76.1202C101.12 74.0402 98.4795 73.1902 93.7295 73.1902C88.9795 73.1902 86.3295 74.0402 82.2095 76.1202C77.1295 78.6802 73.4495 79.7602 67.6395 79.7602C61.8295 79.7602 58.1495 78.6802 53.0695 76.1202C48.9395 74.0402 46.2995 73.1902 41.5495 73.1902C36.7995 73.1902 34.1495 74.0402 30.0295 76.1202C24.9495 78.6802 21.2695 79.7602 15.4595 79.7602C9.64953 79.7602 5.96953 78.6802 0.889531 76.1202C0.589531 75.9702 0.299531 75.8302 0.0195312 75.6902V70.0201C1.26953 70.5101 2.54953 71.0902 3.93953 71.7902C8.06953 73.8702 10.7095 74.7202 15.4595 74.7202L15.4395 74.7302Z" fill="url(#paint0_linear_1301_67041)"/>
<path fill-rule="evenodd" clip-rule="evenodd" d="M100.619 59.9195V58.4495L102.009 58.3495C102.289 58.3495 102.489 58.2895 102.619 58.1995C102.739 58.0995 102.799 57.9395 102.799 57.7095C102.799 57.6295 102.779 57.5195 102.749 57.3895C102.719 57.2595 102.669 57.1095 102.599 56.9295L101.329 53.7795H94.1091L93.4591 55.2595C93.3691 55.4695 93.2991 55.7095 93.2391 55.9795C93.1791 56.2395 93.1591 56.4895 93.1591 56.7095C93.1591 57.3195 93.3791 57.7495 93.8191 58.0095C94.2591 58.2695 95.0291 58.4195 96.1191 58.4595V59.9295H88.1191V58.4595C88.9091 58.3095 89.5791 57.9695 90.1191 57.4095C90.6591 56.8595 91.2091 55.9495 91.7491 54.6695L98.3491 39.2695H100.449L108.219 57.2595C108.409 57.6995 108.639 57.9995 108.889 58.1595C109.149 58.3195 109.549 58.4195 110.089 58.4595V59.9295H100.609L100.619 59.9195ZM97.8391 45.1495L94.8891 51.9995H100.619L97.8391 45.1495Z" fill="#204A9A"/>
<path fill-rule="evenodd" clip-rule="evenodd" d="M131.73 53.0211C131.24 55.4311 130.22 57.2811 128.7 58.5511C127.17 59.8211 125.2 60.4611 122.79 60.4611C119.75 60.4611 117.26 59.4611 115.33 57.4511C113.39 55.4411 112.43 52.8811 112.43 49.7511C112.43 46.6211 113.41 44.1011 115.37 42.1111C117.33 40.1211 119.86 39.1211 122.97 39.1211C124 39.1211 124.94 39.2511 125.79 39.5011C126.64 39.7511 127.45 40.1511 128.21 40.6911L129.78 39.2311H130.96L131.36 47.4311L129.93 47.5411C129.33 45.2311 128.47 43.4911 127.37 42.3111C126.27 41.1411 124.93 40.5511 123.35 40.5511C121.49 40.5511 120.15 41.2611 119.31 42.6811C118.47 44.1011 118.05 46.4011 118.05 49.5611C118.05 52.7211 118.49 55.1211 119.37 56.5011C120.25 57.8811 121.71 58.5611 123.74 58.5611C125.32 58.5611 126.66 58.0411 127.76 57.0111C128.86 55.9811 129.67 54.4711 130.19 52.5111L131.72 53.0211H131.73Z" fill="#204A9A"/>
<path fill-rule="evenodd" clip-rule="evenodd" d="M153.029 47.2381C152.779 45.2681 152.249 43.7281 151.429 42.5881C150.609 41.4581 149.629 40.8881 148.469 40.8881C147.969 40.8881 147.639 40.9881 147.459 41.1781C147.289 41.3681 147.199 41.7481 147.199 42.3181V56.9481C147.199 57.5681 147.299 57.9581 147.489 58.1381C147.679 58.3181 148.059 58.4081 148.639 58.4081H150.019V59.8981H139.339V58.4081H140.759C141.309 58.4081 141.679 58.3181 141.869 58.1381C142.059 57.9581 142.159 57.5581 142.159 56.9481V42.3181C142.159 41.7381 142.079 41.3581 141.909 41.1681C141.739 40.9781 141.409 40.8881 140.919 40.8881C139.759 40.8881 138.759 41.4481 137.949 42.5881C137.129 43.7181 136.599 45.2681 136.349 47.2381H134.949L135.389 39.5781H153.969L154.429 47.2381H153.039H153.029Z" fill="#204A9A"/>
<path fill-rule="evenodd" clip-rule="evenodd" d="M164.6 56.9681C164.6 57.5881 164.69 57.9781 164.86 58.1581C165.03 58.3381 165.4 58.4281 165.98 58.4281H167.75V59.9181H156.59V58.4281H158.1C158.67 58.4281 159.05 58.3381 159.25 58.1481C159.45 57.9681 159.55 57.5681 159.55 56.9681V42.5281C159.55 41.9081 159.45 41.5181 159.25 41.3281C159.05 41.1381 158.67 41.0481 158.1 41.0481H156.59V39.5781H169.02C171.56 39.5781 173.49 40.0681 174.8 41.0481C176.11 42.0281 176.77 43.4681 176.77 45.3581C176.77 47.3481 176 48.8281 174.48 49.7781C172.95 50.7381 170.6 51.2181 167.42 51.2181C166.95 51.2181 166.48 51.2181 166.03 51.2181C165.57 51.2181 165.1 51.2181 164.61 51.1981V56.9781L164.6 56.9681ZM164.6 42.8181V49.5681C164.79 49.6081 164.99 49.6381 165.19 49.6481C165.39 49.6581 165.66 49.6681 166.02 49.6681C168.09 49.6681 169.5 49.3481 170.26 48.7081C171.02 48.0681 171.39 46.9481 171.39 45.3481C171.39 43.7481 171.06 42.6881 170.39 42.0281C169.72 41.3781 168.6 41.0481 167 41.0481C165.89 41.0481 165.22 41.1481 164.97 41.3581C164.72 41.5681 164.6 42.0581 164.6 42.8181Z" fill="#204A9A"/>
<path fill-rule="evenodd" clip-rule="evenodd" d="M190.45 40.6503C188.73 40.6503 187.47 41.4103 186.66 42.9203C185.85 44.4403 185.45 46.8103 185.45 50.0403C185.45 52.9903 185.86 55.2003 186.69 56.6703C187.52 58.1303 188.77 58.8603 190.44 58.8603C192.11 58.8603 193.37 58.1103 194.2 56.6103C195.03 55.1003 195.44 52.8203 195.44 49.7703C195.44 46.7203 195.03 44.3703 194.21 42.8803C193.39 41.4003 192.13 40.6603 190.43 40.6603L190.45 40.6503ZM179.82 49.8703C179.82 46.6403 180.8 44.0403 182.75 42.0503C184.7 40.0603 187.26 39.0703 190.45 39.0703C193.64 39.0703 196.2 40.0603 198.16 42.0303C200.12 44.0103 201.1 46.5803 201.1 49.7503C201.1 51.3303 200.88 52.6903 200.45 53.8503C200.02 55.0103 199.31 56.0903 198.34 57.1003C197.29 58.1903 196.11 59.0203 194.78 59.5703C193.45 60.1203 192.01 60.4003 190.45 60.4003C188.89 60.4003 187.43 60.1403 186.16 59.6103C184.89 59.0803 183.73 58.2603 182.68 57.1503C181.69 56.1203 180.97 55.0303 180.51 53.8603C180.05 52.7003 179.83 51.3603 179.83 49.8603L179.82 49.8703Z" fill="#204A9A"/>
<path fill-rule="evenodd" clip-rule="evenodd" d="M216.55 58.4303H217.97C218.52 58.4303 218.89 58.3403 219.08 58.1603C219.27 57.9803 219.37 57.5803 219.37 56.9703V50.3403H211.9V56.9703C211.9 57.5903 212 57.9803 212.2 58.1603C212.4 58.3403 212.78 58.4303 213.35 58.4303H214.75V59.9203H204.01V58.4303H205.44C206 58.4303 206.37 58.3403 206.57 58.1603C206.76 57.9803 206.86 57.5803 206.86 56.9703V42.5303C206.86 41.9103 206.76 41.5103 206.56 41.3203C206.36 41.1403 205.99 41.0403 205.44 41.0403H204.01V39.5703H214.75V41.0403H213.35C212.79 41.0403 212.41 41.1303 212.21 41.3203C212.01 41.5003 211.91 41.9003 211.91 42.5303V48.5103H219.38V42.5303C219.38 41.9103 219.29 41.5103 219.09 41.3203C218.9 41.1403 218.53 41.0403 217.98 41.0403H216.56V39.5703H227.3V41.0403H225.86C225.31 41.0403 224.93 41.1303 224.74 41.3103C224.55 41.4903 224.45 41.9003 224.45 42.5303V56.9703C224.45 57.6003 224.54 58.0103 224.73 58.1803C224.92 58.3503 225.29 58.4303 225.85 58.4303H227.29V59.9203H216.55V58.4303Z" fill="#204A9A"/>
<path fill-rule="evenodd" clip-rule="evenodd" d="M241.16 59.9195V58.4495L242.55 58.3495C242.83 58.3495 243.03 58.2895 243.16 58.1995C243.28 58.0995 243.34 57.9395 243.34 57.7095C243.34 57.6295 243.32 57.5195 243.29 57.3895C243.26 57.2595 243.21 57.1095 243.14 56.9295L241.87 53.7795H234.65L234 55.2595C233.91 55.4695 233.84 55.7095 233.78 55.9795C233.72 56.2395 233.7 56.4895 233.7 56.7095C233.7 57.3195 233.92 57.7495 234.36 58.0095C234.8 58.2695 235.57 58.4195 236.66 58.4595V59.9295H228.66V58.4595C229.45 58.3095 230.12 57.9695 230.66 57.4095C231.2 56.8595 231.75 55.9495 232.29 54.6695L238.89 39.2695H240.99L248.76 57.2595C248.95 57.6995 249.18 57.9995 249.43 58.1595C249.69 58.3195 250.09 58.4195 250.63 58.4595V59.9295H241.15L241.16 59.9195ZM238.38 45.1495L235.43 51.9995H241.16L238.38 45.1495Z" fill="#204A9A"/>
<path fill-rule="evenodd" clip-rule="evenodd" d="M252.4 59.9181V58.4281H253.91C254.48 58.4281 254.86 58.3381 255.06 58.1481C255.26 57.9681 255.36 57.5681 255.36 56.9681V42.5281C255.36 41.9181 255.26 41.5181 255.06 41.3281C254.86 41.1381 254.48 41.0481 253.91 41.0481H252.4V39.5781H264.46C266.78 39.5781 268.56 39.9981 269.8 40.8281C271.04 41.6681 271.65 42.8681 271.65 44.4281C271.65 45.8181 271.18 46.9081 270.23 47.6981C269.28 48.4981 267.85 49.0081 265.94 49.2381C268.03 49.3781 269.67 49.9181 270.86 50.8581C272.05 51.7981 272.64 53.0181 272.64 54.5081C272.64 56.2781 271.91 57.6281 270.46 58.5381C269 59.4581 266.88 59.9181 264.08 59.9181H252.41H252.4ZM260.35 56.3981C260.35 57.2681 260.47 57.8181 260.71 58.0481C260.95 58.2781 261.59 58.3881 262.64 58.3881C264.38 58.3881 265.6 58.0681 266.32 57.4181C267.04 56.7681 267.4 55.7081 267.4 54.2181C267.4 53.4681 267.26 52.8081 267 52.2481C266.73 51.6881 266.33 51.2381 265.81 50.8981C265.43 50.6581 264.97 50.4881 264.42 50.3981C263.87 50.2981 262.85 50.2481 261.35 50.2481C261.19 50.2481 261.04 50.2481 260.9 50.2481C260.75 50.2481 260.58 50.2681 260.36 50.2981V56.3881L260.35 56.3981ZM260.35 42.5781V48.6481C260.49 48.6681 260.64 48.6781 260.8 48.6881C260.96 48.6881 261.19 48.6981 261.48 48.6981C263.41 48.6981 264.76 48.4081 265.51 47.8281C266.26 47.2481 266.64 46.2481 266.64 44.8381C266.64 43.4281 266.33 42.4581 265.7 41.8981C265.08 41.3281 263.95 41.0481 262.34 41.0481C261.49 41.0481 260.94 41.1381 260.71 41.3081C260.48 41.4781 260.36 41.8381 260.36 42.3681V42.5881L260.35 42.5781Z" fill="#204A9A"/>
<path fill-rule="evenodd" clip-rule="evenodd" d="M293.6 47.2381C293.35 45.2681 292.82 43.7281 292 42.5881C291.18 41.4581 290.2 40.8881 289.04 40.8881C288.54 40.8881 288.21 40.9881 288.03 41.1781C287.86 41.3681 287.77 41.7481 287.77 42.3181V56.9481C287.77 57.5681 287.87 57.9581 288.06 58.1381C288.25 58.3181 288.63 58.4081 289.21 58.4081H290.59V59.8981H279.91V58.4081H281.33C281.88 58.4081 282.25 58.3181 282.44 58.1381C282.63 57.9581 282.73 57.5581 282.73 56.9481V42.3181C282.73 41.7381 282.65 41.3581 282.48 41.1681C282.31 40.9781 281.98 40.8881 281.49 40.8881C280.33 40.8881 279.33 41.4481 278.52 42.5881C277.7 43.7181 277.17 45.2681 276.92 47.2381H275.52L275.96 39.5781H294.54L295 47.2381H293.61H293.6Z" fill="#204A9A"/>
<path fill-rule="evenodd" clip-rule="evenodd" d="M20.6591 62.3998C27.4991 50.2698 43.2091 50.3698 67.7891 62.7098C54.2891 48.4198 48.7591 29.2098 51.1891 5.08984C25.8591 16.0798 15.6891 35.1798 20.6591 62.3998Z" fill="#A8CBEC" stroke="#204A9A" stroke-width="0.89" stroke-linecap="round" stroke-linejoin="round"/>
<path fill-rule="evenodd" clip-rule="evenodd" d="M38.0798 31.5584C39.1498 31.5584 40.0498 30.7484 40.2598 29.6684C40.3798 29.0384 40.3598 28.1284 40.3998 27.5184C40.4798 26.1584 40.5998 24.0384 40.7798 21.1484C39.8298 22.1384 36.7898 25.8784 36.0198 28.2384C35.9098 28.5884 35.8398 28.8984 35.8398 29.1784C35.8398 30.4984 36.8398 31.5684 38.0698 31.5684L38.0798 31.5584Z" fill="white"/>
<path fill-rule="evenodd" clip-rule="evenodd" d="M18.8901 71.6797C22.6001 71.3097 25.5601 70.2597 29.3501 68.3497C33.6901 66.1597 36.6301 65.2597 41.5401 65.2597C46.4501 65.2597 49.3901 66.1597 53.7301 68.3497C58.1501 70.5797 61.4501 71.6197 66.1201 71.7997C66.9701 71.1497 67.7901 70.4597 68.5801 69.7397C68.2701 69.7397 67.9601 69.7497 67.6401 69.7497C62.7301 69.7497 59.7901 68.8497 55.4501 66.6597C50.5701 64.1997 47.0501 63.1797 41.5401 63.1797C36.0301 63.1797 32.5201 64.1997 27.6301 66.6597C23.6401 68.6697 20.8301 69.5997 16.5801 69.7297C17.3201 70.4097 18.0901 71.0497 18.8801 71.6697L18.8901 71.6797Z" fill="#204A9A"/>
<path fill-rule="evenodd" clip-rule="evenodd" d="M11.1104 101.368L12.0304 101.478C11.8204 103.088 11.2204 104.348 10.2504 105.268C9.28039 106.178 8.04039 106.628 6.55039 106.628C4.70039 106.628 3.18039 105.938 1.97039 104.568C0.760391 103.188 0.150391 101.458 0.150391 99.3583C0.150391 97.2583 0.740391 95.4683 1.93039 94.0783C3.12039 92.6883 4.62039 91.9883 6.44039 91.9883C7.11039 91.9883 7.74039 92.0883 8.31039 92.2983C8.89039 92.5083 9.43039 92.8283 9.93039 93.2583L10.6704 92.0583H11.4004L11.6504 97.6883L10.9004 97.7283C10.6204 96.1383 10.1104 94.9283 9.39039 94.0883C8.67039 93.2483 7.77039 92.8283 6.69039 92.8283C5.34039 92.8283 4.33039 93.3683 3.66039 94.4383C2.99039 95.5083 2.65039 97.1183 2.65039 99.2783C2.65039 101.438 2.99039 103.078 3.67039 104.128C4.35039 105.168 5.39039 105.688 6.82039 105.688C7.93039 105.688 8.85039 105.318 9.58039 104.578C10.3104 103.838 10.8204 102.768 11.1004 101.368H11.1104Z" fill="#204A9A"/>
<path fill-rule="evenodd" clip-rule="evenodd" d="M16.6609 94.2491C16.4909 93.8491 16.3109 93.5791 16.1109 93.4391C15.9209 93.2991 15.6409 93.2291 15.2909 93.2291C15.2909 93.2291 15.2709 93.2291 15.2509 93.2291C15.1909 93.2291 15.1309 93.2291 15.0709 93.2291H14.6309V92.3191H20.4009V93.2291H19.6809C19.6809 93.2291 19.6209 93.2291 19.5609 93.2291C19.5109 93.2291 19.4709 93.2291 19.4409 93.2291C19.1209 93.2291 18.8909 93.2691 18.7509 93.3291C18.6109 93.3991 18.5409 93.5091 18.5409 93.6691C18.5409 93.7791 18.6109 93.9791 18.7409 94.2491C18.7909 94.3591 18.8409 94.4491 18.8709 94.5191L21.7809 101.099L24.2809 95.3291C24.3509 95.1691 24.4109 94.9891 24.4509 94.7691C24.4909 94.5491 24.5109 94.3491 24.5109 94.1591C24.5109 93.8391 24.3909 93.5991 24.1709 93.4391C23.9409 93.2791 23.6009 93.1991 23.1409 93.1991H22.5809V92.2891H27.6509V93.1991C27.6509 93.1991 27.5509 93.1991 27.4909 93.1991C27.4209 93.1991 27.3709 93.1991 27.3409 93.1991C26.6209 93.1991 26.0509 93.6891 25.6209 94.6791C25.5909 94.7391 25.5709 94.7791 25.5509 94.8191L22.5409 101.879C21.7009 103.839 20.9809 105.119 20.3809 105.699C19.7709 106.279 19.0309 106.579 18.1309 106.579C17.2309 106.579 16.5209 106.299 15.9509 105.729C15.3809 105.159 15.0909 104.439 15.0909 103.579C15.0909 102.979 15.2409 102.489 15.5609 102.109C15.8709 101.739 16.2909 101.549 16.8009 101.549C17.2209 101.549 17.5609 101.679 17.8309 101.939C18.1009 102.199 18.2309 102.539 18.2309 102.949C18.2309 103.389 18.0209 103.769 17.6109 104.079C17.2009 104.389 16.9909 104.659 16.9909 104.879C16.9909 105.109 17.1109 105.299 17.3309 105.429C17.5609 105.569 17.8809 105.629 18.2809 105.629C18.7709 105.629 19.2209 105.439 19.6309 105.059C20.0409 104.679 20.3909 104.119 20.7009 103.389L16.6609 94.2191V94.2491Z" fill="#204A9A"/>
<path fill-rule="evenodd" clip-rule="evenodd" d="M34.7191 93.2108C34.6591 96.0408 34.4391 98.4308 34.0691 100.371C33.6991 102.311 33.1491 103.971 32.4191 105.351H38.2091V93.2008H34.7291L34.7191 93.2108ZM31.5391 92.3008H42.3591V93.2108H41.0991C40.8291 93.2108 40.6291 93.2808 40.4991 93.4308C40.3691 93.5808 40.3091 93.8108 40.3091 94.1308V105.351H42.3591V110.111H41.6191C41.5191 108.671 41.1991 107.671 40.6791 107.101C40.1491 106.541 39.2491 106.261 37.9891 106.261H33.6391C32.3791 106.261 31.4791 106.541 30.9491 107.101C30.4191 107.661 30.0991 108.661 29.9991 110.111H29.2891V105.351H31.2591C31.9891 104.171 32.5691 102.671 32.9891 100.871C33.4091 99.0608 33.6291 97.1708 33.6291 95.2008C33.6291 94.3508 33.5391 93.8008 33.3491 93.5608C33.1691 93.3208 32.7991 93.2108 32.2391 93.2108H31.5591V92.3008H31.5391Z" fill="#204A9A"/>
<path fill-rule="evenodd" clip-rule="evenodd" d="M48.8794 99.2909C48.8794 101.461 49.2194 103.081 49.8994 104.141C50.5794 105.201 51.6194 105.731 53.0294 105.731C54.4394 105.731 55.4494 105.191 56.1294 104.121C56.8194 103.051 57.1594 101.441 57.1594 99.2809C57.1594 97.1209 56.8194 95.4709 56.1394 94.4109C55.4594 93.3509 54.4194 92.8309 53.0294 92.8309C51.6394 92.8309 50.5894 93.3609 49.9094 94.4209C49.2294 95.4809 48.8794 97.1009 48.8794 99.2709V99.2909ZM46.3594 99.2909C46.3594 97.1509 46.9894 95.3909 48.2394 94.0209C49.4894 92.6409 51.0794 91.9609 53.0194 91.9609C54.9594 91.9609 56.5394 92.6509 57.7894 94.0209C59.0294 95.3909 59.6594 97.1509 59.6594 99.3009C59.6594 101.451 59.0394 103.211 57.7994 104.571C56.5594 105.931 54.9694 106.611 53.0194 106.611C51.0694 106.611 49.4794 105.931 48.2294 104.561C46.9794 103.191 46.3594 101.441 46.3594 99.3009V99.2909Z" fill="#204A9A"/>
<path fill-rule="evenodd" clip-rule="evenodd" d="M67.2706 105.359V106.269H61.8906V105.359H62.0206C62.5606 105.359 63.0606 105.189 63.5206 104.829C63.9806 104.479 64.5306 103.849 65.1706 102.939L67.6306 99.4386L63.8406 93.9586C63.6106 93.6386 63.4106 93.4286 63.2606 93.3486C63.1106 93.2586 62.8906 93.2186 62.6006 93.2186H61.9406V92.3086H67.7606V93.2186H66.7006C66.5506 93.2186 66.4306 93.2486 66.3506 93.2886C66.2706 93.3386 66.2206 93.4086 66.2206 93.4986C66.2206 93.5686 66.2206 93.6386 66.2506 93.6986C66.2706 93.7586 66.3206 93.8686 66.4006 94.0086L68.8706 97.6686L70.8906 94.7786C71.0106 94.6186 71.1006 94.4686 71.1506 94.3286C71.2006 94.1886 71.2306 94.0686 71.2306 93.9486C71.2306 93.7086 71.1206 93.5286 70.9106 93.4086C70.6906 93.2886 70.3806 93.2286 69.9606 93.2286H69.6706V92.3186H74.8506V93.2186C74.2306 93.2286 73.7206 93.3386 73.3306 93.5486C72.9406 93.7586 72.5106 94.1886 72.0406 94.8486L69.4706 98.5286L73.5006 104.389C73.7806 104.789 74.0506 105.059 74.2906 105.189C74.5406 105.319 74.9006 105.379 75.3706 105.379H75.6406V106.289H69.3906V105.379H70.3006C70.6306 105.379 70.8606 105.349 71.0106 105.289C71.1606 105.229 71.2306 105.129 71.2306 104.999C71.2306 104.909 71.2106 104.819 71.1706 104.709C71.1206 104.599 71.0206 104.439 70.8706 104.219L68.1906 100.329L66.1806 103.149C65.9606 103.459 65.8006 103.719 65.7106 103.929C65.6206 104.139 65.5706 104.339 65.5706 104.529C65.5706 104.809 65.7006 105.019 65.9406 105.169C66.1906 105.319 66.5606 105.389 67.0606 105.389H67.2506L67.2706 105.359Z" fill="#204A9A"/>
<path fill-rule="evenodd" clip-rule="evenodd" d="M80.3403 99.2909C80.3403 101.461 80.6803 103.081 81.3603 104.141C82.0403 105.201 83.0803 105.731 84.4903 105.731C85.9003 105.731 86.9103 105.191 87.6003 104.121C88.2903 103.051 88.6303 101.441 88.6303 99.2809C88.6303 97.1209 88.2903 95.4709 87.6103 94.4109C86.9303 93.3609 85.8903 92.8309 84.5003 92.8309C83.1103 92.8309 82.0603 93.3609 81.3803 94.4209C80.7003 95.4809 80.3503 97.1009 80.3503 99.2709L80.3403 99.2909ZM77.8203 99.2909C77.8203 97.1509 78.4503 95.3909 79.7003 94.0209C80.9503 92.6409 82.5403 91.9609 84.4803 91.9609C86.4203 91.9609 88.0003 92.6509 89.2503 94.0209C90.4903 95.3909 91.1203 97.1509 91.1203 99.3009C91.1203 101.451 90.5003 103.211 89.2603 104.571C88.0203 105.931 86.4303 106.611 84.4803 106.611C82.5303 106.611 80.9403 105.931 79.6903 104.561C78.4403 103.191 77.8203 101.441 77.8203 99.3009V99.2909Z" fill="#204A9A"/>
<path fill-rule="evenodd" clip-rule="evenodd" d="M99.0804 93.2108C99.0204 96.0408 98.8004 98.4308 98.4304 100.371C98.0604 102.311 97.5104 103.971 96.7804 105.351H102.57V93.2008H99.0904L99.0804 93.2108ZM95.9004 92.3008H106.72V93.2108H105.46C105.19 93.2108 104.99 93.2808 104.86 93.4308C104.73 93.5808 104.67 93.8108 104.67 94.1308V105.351H106.72V110.111H105.98C105.88 108.671 105.56 107.671 105.04 107.101C104.51 106.541 103.61 106.261 102.35 106.261H98.0004C96.7404 106.261 95.8404 106.541 95.3104 107.101C94.7804 107.661 94.4604 108.661 94.3604 110.111H93.6504V105.351H95.6204C96.3504 104.171 96.9304 102.671 97.3504 100.871C97.7704 99.0608 97.9904 97.1708 97.9904 95.2008C97.9904 94.3508 97.9004 93.8008 97.7104 93.5608C97.5304 93.3208 97.1604 93.2108 96.6004 93.2108H95.9204V92.3008H95.9004Z" fill="#204A9A"/>
<path fill-rule="evenodd" clip-rule="evenodd" d="M110.5 92.3008H116.67V93.2108H115.41C115.14 93.2108 114.94 93.2808 114.82 93.4308C114.7 93.5808 114.64 93.8108 114.64 94.1408V98.4608H121.18V94.1408C121.18 93.8108 121.12 93.5708 120.99 93.4308C120.86 93.2908 120.65 93.2208 120.35 93.2208H119.13V92.3108H125.32V93.2208H124.06C123.79 93.2208 123.59 93.2908 123.46 93.4408C123.33 93.5908 123.27 93.8208 123.27 94.1408V104.431C123.27 104.791 123.34 105.031 123.48 105.161C123.62 105.291 123.89 105.361 124.3 105.361H125.32V106.271H119.13V105.361H120.16C120.56 105.361 120.82 105.291 120.97 105.161C121.11 105.031 121.18 104.781 121.18 104.431V99.4508H114.64V104.431C114.64 104.791 114.71 105.031 114.84 105.161C114.98 105.291 115.24 105.361 115.64 105.361H116.67V106.271H110.5V105.361H111.5C111.9 105.361 112.17 105.291 112.32 105.161C112.46 105.031 112.53 104.781 112.53 104.431V94.1408C112.53 93.8108 112.47 93.5708 112.34 93.4308C112.21 93.2908 112 93.2208 111.7 93.2208H110.5V92.3108V92.3008Z" fill="#204A9A"/>
<path fill-rule="evenodd" clip-rule="evenodd" d="M135.949 100.741L133.649 95.1308L131.439 100.741H135.949ZM133.819 92.0708H134.569L139.499 104.391C139.659 104.781 139.819 105.041 139.969 105.161C140.129 105.281 140.409 105.341 140.809 105.341H141.219V106.271H135.439V105.341H136.309C136.709 105.341 136.979 105.301 137.129 105.231C137.279 105.151 137.359 105.021 137.359 104.831C137.359 104.761 137.349 104.671 137.319 104.571C137.289 104.461 137.249 104.331 137.179 104.161L136.289 101.721H131.079L130.479 103.221C130.409 103.431 130.339 103.641 130.289 103.861C130.239 104.081 130.209 104.241 130.209 104.341C130.209 104.681 130.329 104.921 130.549 105.091C130.779 105.251 131.139 105.331 131.619 105.331H132.099V106.261H127.109V105.331H127.269C127.789 105.331 128.179 105.221 128.459 105.001C128.739 104.781 128.999 104.351 129.259 103.701L133.799 92.0508L133.819 92.0708Z" fill="#204A9A"/>
<path fill-rule="evenodd" clip-rule="evenodd" d="M151.429 98.5686V94.0186C151.429 93.6786 151.359 93.4486 151.229 93.3386C151.089 93.2286 150.829 93.1686 150.449 93.1686H149.189C148.099 93.1686 147.309 93.3786 146.829 93.7986C146.349 94.2186 146.109 94.9086 146.109 95.8586C146.109 96.8686 146.409 97.5786 146.999 97.9886C147.589 98.3986 148.659 98.6086 150.209 98.6086H150.479L151.429 98.5686ZM142.549 103.139H143.289C143.319 103.879 143.399 104.399 143.519 104.699C143.639 105.009 143.829 105.159 144.079 105.159C144.279 105.159 144.449 105.059 144.589 104.859C144.729 104.659 144.849 104.329 144.949 103.889L145.449 101.709C145.619 100.949 145.929 100.369 146.369 99.9786C146.799 99.5886 147.409 99.3286 148.199 99.2086C146.779 99.0686 145.719 98.6986 144.999 98.1286C144.279 97.5486 143.929 96.7586 143.929 95.7486C143.929 94.6486 144.299 93.8086 145.049 93.2086C145.789 92.6086 146.849 92.3086 148.229 92.3086H155.589V93.2186H154.319C154.059 93.2186 153.859 93.2886 153.739 93.4386C153.619 93.5886 153.559 93.8186 153.559 94.1486V104.439C153.559 104.799 153.629 105.039 153.769 105.169C153.909 105.299 154.179 105.369 154.589 105.369H155.599V106.279H149.249V105.369H150.429C150.829 105.369 151.099 105.309 151.239 105.169C151.379 105.039 151.449 104.789 151.449 104.439V99.5086H150.129C149.289 99.5086 148.649 99.7086 148.209 100.109C147.769 100.509 147.489 101.129 147.399 101.969L147.189 103.899C147.079 104.889 146.849 105.599 146.499 106.009C146.149 106.419 145.609 106.629 144.879 106.629C144.149 106.629 143.549 106.369 143.149 105.839C142.739 105.309 142.539 104.559 142.539 103.589C142.539 103.539 142.539 103.469 142.539 103.379C142.539 103.279 142.539 103.209 142.539 103.149L142.549 103.139Z" fill="#204A9A"/>
<path fill-rule="evenodd" clip-rule="evenodd" d="M170.53 98.7614C171.37 98.8814 172.02 99.1214 172.48 99.4914C172.94 99.8614 173.29 100.421 173.52 101.181C173.66 101.651 173.8 102.311 173.94 103.171C174.15 104.501 174.49 105.161 174.98 105.161C175.27 105.161 175.48 105.011 175.62 104.701C175.76 104.391 175.83 103.871 175.85 103.141H176.59V103.591C176.59 104.581 176.39 105.331 176 105.861C175.61 106.381 175.03 106.641 174.28 106.641C172.91 106.641 172.05 105.371 171.72 102.821C171.67 102.421 171.62 102.121 171.6 101.921C171.45 100.961 171.2 100.301 170.84 99.9614C170.48 99.6214 169.88 99.4414 169.06 99.4414H167.73V104.421C167.73 104.781 167.8 105.031 167.93 105.161C168.07 105.291 168.33 105.361 168.73 105.361H169.76V106.271H163.59V105.361H164.59C164.99 105.361 165.26 105.291 165.41 105.161C165.55 105.031 165.62 104.781 165.62 104.421V94.1314C165.62 93.8014 165.56 93.5614 165.43 93.4214C165.3 93.2814 165.09 93.2114 164.79 93.2114H163.59V92.3014H169.76V93.2114H168.5C168.23 93.2114 168.03 93.2814 167.91 93.4314C167.79 93.5814 167.73 93.8114 167.73 94.1414V98.5214H168.48C169.34 98.5214 169.99 98.3514 170.42 98.0214C170.85 97.6814 171.15 97.0914 171.33 96.2514C171.39 95.9514 171.47 95.5214 171.56 94.9814C171.7 94.0714 171.84 93.4714 171.98 93.1614C172.17 92.7714 172.44 92.4714 172.8 92.2614C173.16 92.0514 173.59 91.9414 174.08 91.9414C174.73 91.9414 175.27 92.1314 175.69 92.5014C176.11 92.8714 176.32 93.3514 176.32 93.9314C176.32 94.3114 176.2 94.6314 175.96 94.8814C175.72 95.1314 175.41 95.2514 175.02 95.2514C174.63 95.2514 174.3 95.1514 174.07 94.9614C173.83 94.7714 173.71 94.5214 173.71 94.2014C173.71 93.9514 173.79 93.7014 173.95 93.4614C174.11 93.2214 174.19 93.0914 174.19 93.0514C174.19 92.9814 174.15 92.9314 174.09 92.8914C174.02 92.8514 173.93 92.8314 173.81 92.8314C173.2 92.8314 172.78 93.5214 172.55 94.9114C172.5 95.1614 172.48 95.3514 172.46 95.4814C172.24 96.6414 171.99 97.4414 171.72 97.8714C171.45 98.2914 171.06 98.6014 170.54 98.7714L170.53 98.7614Z" fill="#204A9A"/>
<path fill-rule="evenodd" clip-rule="evenodd" d="M181.629 99.2909C181.629 101.461 181.969 103.081 182.649 104.141C183.329 105.201 184.369 105.731 185.779 105.731C187.189 105.731 188.199 105.191 188.889 104.121C189.579 103.051 189.919 101.441 189.919 99.2809C189.919 97.1209 189.579 95.4709 188.899 94.4109C188.219 93.3609 187.179 92.8309 185.789 92.8309C184.399 92.8309 183.349 93.3609 182.669 94.4209C181.989 95.4809 181.639 97.1009 181.639 99.2709L181.629 99.2909ZM179.109 99.2909C179.109 97.1509 179.739 95.3909 180.989 94.0209C182.239 92.6409 183.829 91.9609 185.769 91.9609C187.709 91.9609 189.289 92.6509 190.539 94.0209C191.779 95.3909 192.409 97.1509 192.409 99.3009C192.409 101.451 191.789 103.211 190.549 104.571C189.309 105.931 187.719 106.611 185.769 106.611C183.819 106.611 182.229 105.931 180.979 104.561C179.729 103.191 179.109 101.441 179.109 99.3009V99.2909Z" fill="#204A9A"/>
<path fill-rule="evenodd" clip-rule="evenodd" d="M195.06 92.3008H199.89L203.64 102.981L207.27 92.3008H211.99V93.2108H210.73C210.46 93.2108 210.26 93.2808 210.14 93.4308C210.02 93.5808 209.96 93.8108 209.96 94.1408V104.431C209.96 104.791 210.03 105.041 210.16 105.171C210.3 105.301 210.56 105.371 210.96 105.371H211.99V106.281H205.72V105.371H206.88C207.28 105.371 207.55 105.301 207.7 105.171C207.84 105.041 207.91 104.791 207.91 104.431V93.5408L203.58 106.281H202.83L198.2 93.5408V103.201C198.2 104.041 198.37 104.631 198.71 104.961C199.05 105.291 199.65 105.451 200.51 105.451V106.281H194.9V105.451C195.8 105.441 196.4 105.271 196.73 104.961C197.06 104.641 197.22 104.021 197.22 103.071V94.1508C197.22 93.7908 197.15 93.5408 197.02 93.4108C196.88 93.2808 196.61 93.2208 196.2 93.2208H195.06V92.3108V92.3008Z" fill="#204A9A"/>
<path fill-rule="evenodd" clip-rule="evenodd" d="M214.66 92.3008H229.48V93.2108H228.22C227.95 93.2108 227.75 93.2808 227.62 93.4308C227.49 93.5808 227.43 93.8108 227.43 94.1308V104.421C227.43 104.781 227.5 105.021 227.64 105.151C227.78 105.281 228.05 105.351 228.46 105.351H229.48V106.261H223.29V105.351H224.32C224.72 105.351 224.98 105.281 225.13 105.151C225.27 105.021 225.34 104.771 225.34 104.421V94.0808C225.34 93.7408 225.28 93.5108 225.15 93.3708C225.02 93.2308 224.81 93.1708 224.51 93.1708H219.58C219.31 93.1708 219.11 93.2408 218.99 93.3808C218.87 93.5208 218.81 93.7508 218.81 94.0808V104.421C218.81 104.781 218.88 105.021 219.01 105.151C219.15 105.281 219.41 105.351 219.81 105.351H220.84V106.261H214.67V105.351H215.67C216.07 105.351 216.34 105.281 216.49 105.151C216.63 105.021 216.7 104.771 216.7 104.421V94.1308C216.7 93.8008 216.64 93.5608 216.51 93.4208C216.38 93.2808 216.17 93.2108 215.87 93.2108H214.67V92.3008H214.66Z" fill="#204A9A"/>
<path fill-rule="evenodd" clip-rule="evenodd" d="M240.11 100.741L237.81 95.1308L235.6 100.741H240.11ZM237.98 92.0708H238.73L243.66 104.391C243.82 104.781 243.98 105.041 244.13 105.161C244.29 105.281 244.57 105.341 244.97 105.341H245.38V106.271H239.6V105.341H240.47C240.87 105.341 241.14 105.301 241.29 105.231C241.44 105.151 241.52 105.021 241.52 104.831C241.52 104.761 241.51 104.671 241.48 104.571C241.45 104.461 241.41 104.331 241.34 104.161L240.45 101.721H235.24L234.64 103.221C234.57 103.431 234.5 103.641 234.45 103.861C234.4 104.081 234.37 104.241 234.37 104.341C234.37 104.681 234.49 104.921 234.71 105.091C234.94 105.251 235.3 105.331 235.78 105.331H236.26V106.261H231.27V105.331H231.43C231.95 105.331 232.34 105.221 232.62 105.001C232.9 104.781 233.16 104.351 233.42 103.701L237.96 92.0508L237.98 92.0708Z" fill="#204A9A"/>
<path fill-rule="evenodd" clip-rule="evenodd" d="M247.25 92.3008H253.42V93.2108H252.16C251.89 93.2108 251.69 93.2808 251.57 93.4308C251.45 93.5808 251.39 93.8108 251.39 94.1408V98.4608H257.93V94.1408C257.93 93.8108 257.87 93.5708 257.74 93.4308C257.61 93.2908 257.4 93.2208 257.1 93.2208H255.88V92.3108H262.07V93.2208H260.81C260.54 93.2208 260.34 93.2908 260.21 93.4408C260.08 93.5908 260.02 93.8208 260.02 94.1408V104.431C260.02 104.791 260.09 105.031 260.23 105.161C260.37 105.291 260.64 105.361 261.05 105.361H262.07V106.271H255.88V105.361H256.91C257.31 105.361 257.57 105.291 257.72 105.161C257.86 105.031 257.93 104.781 257.93 104.431V99.4508H251.39V104.431C251.39 104.791 251.46 105.031 251.59 105.161C251.73 105.291 251.99 105.361 252.39 105.361H253.42V106.271H247.25V105.361H248.25C248.65 105.361 248.92 105.291 249.07 105.161C249.21 105.031 249.28 104.781 249.28 104.431V94.1408C249.28 93.8108 249.22 93.5708 249.09 93.4308C248.96 93.2908 248.75 93.2208 248.45 93.2208H247.25V92.3108V92.3008Z" fill="#204A9A"/>
<path fill-rule="evenodd" clip-rule="evenodd" d="M264.77 92.3008H270.94V93.2108H269.68C269.41 93.2108 269.21 93.2808 269.09 93.4308C268.97 93.5808 268.91 93.8108 268.91 94.1408V101.911L275.45 94.8008V94.1408C275.45 93.8108 275.39 93.5708 275.26 93.4308C275.13 93.2908 274.92 93.2208 274.62 93.2208H273.4V92.3108H279.59V93.2208H278.33C278.06 93.2208 277.86 93.2908 277.73 93.4408C277.6 93.5908 277.54 93.8208 277.54 94.1408V104.431C277.54 104.791 277.61 105.031 277.75 105.161C277.89 105.291 278.16 105.361 278.57 105.361H279.59V106.271H273.4V105.361H274.43C274.83 105.361 275.09 105.291 275.24 105.161C275.38 105.031 275.45 104.781 275.45 104.431V96.5408L268.91 103.641V104.431C268.91 104.791 268.98 105.031 269.11 105.161C269.25 105.291 269.51 105.361 269.91 105.361H270.94V106.271H264.77V105.361H265.77C266.17 105.361 266.44 105.291 266.59 105.161C266.73 105.031 266.8 104.781 266.8 104.431V94.1408C266.8 93.8108 266.74 93.5708 266.61 93.4308C266.48 93.2908 266.27 93.2208 265.97 93.2208H264.77V92.3108V92.3008Z" fill="#204A9A"/>
<path fill-rule="evenodd" clip-rule="evenodd" d="M290.63 98.5686V94.0186C290.63 93.6786 290.56 93.4486 290.43 93.3386C290.29 93.2286 290.03 93.1686 289.65 93.1686H288.39C287.3 93.1686 286.51 93.3786 286.03 93.7986C285.55 94.2186 285.31 94.9086 285.31 95.8586C285.31 96.8686 285.61 97.5786 286.2 97.9886C286.79 98.3986 287.86 98.6086 289.41 98.6086H289.68L290.63 98.5686ZM281.75 103.139H282.49C282.52 103.879 282.6 104.399 282.72 104.699C282.84 105.009 283.03 105.159 283.28 105.159C283.48 105.159 283.65 105.059 283.79 104.859C283.93 104.659 284.05 104.329 284.15 103.889L284.65 101.709C284.82 100.949 285.13 100.369 285.57 99.9786C286 99.5886 286.61 99.3286 287.4 99.2086C285.98 99.0686 284.92 98.6986 284.2 98.1286C283.48 97.5486 283.13 96.7586 283.13 95.7486C283.13 94.6486 283.5 93.8086 284.25 93.2086C284.99 92.6086 286.05 92.3086 287.43 92.3086H294.78V93.2186H293.51C293.25 93.2186 293.05 93.2886 292.93 93.4386C292.81 93.5886 292.75 93.8186 292.75 94.1486V104.439C292.75 104.799 292.82 105.039 292.96 105.169C293.1 105.299 293.37 105.369 293.78 105.369H294.79V106.279H288.44V105.369H289.62C290.02 105.369 290.29 105.309 290.43 105.169C290.57 105.039 290.64 104.789 290.64 104.439V99.5086H289.32C288.48 99.5086 287.84 99.7086 287.4 100.109C286.96 100.509 286.68 101.129 286.59 101.969L286.38 103.899C286.27 104.889 286.04 105.599 285.69 106.009C285.34 106.419 284.8 106.629 284.07 106.629C283.34 106.629 282.74 106.369 282.34 105.839C281.93 105.309 281.73 104.559 281.73 103.589C281.73 103.539 281.73 103.469 281.73 103.379C281.73 103.279 281.73 103.209 281.73 103.149L281.75 103.139Z" fill="#204A9A"/>
</g>
<defs>
<linearGradient id="paint0_linear_1301_67041" x1="290.59" y1="73.9601" x2="1.58952" y2="73.9601" gradientUnits="userSpaceOnUse">
<stop stop-color="#A8CBEC"/>
<stop offset="0.11" stop-color="#204A9A"/>
<stop offset="0.89" stop-color="#204A9A"/>
<stop offset="1" stop-color="#A8CBEC"/>
</linearGradient>
<clipPath id="clip0_1301_67041">
<rect width="294.98" height="110.12" fill="white"/>
</clipPath>
</defs>
</svg>
