<svg width="163" height="111" viewBox="0 0 163 111" fill="none" xmlns="http://www.w3.org/2000/svg">
<g clip-path="url(#clip0_1301_67131)">
<path d="M81.8206 69.4795C81.6406 70.0395 81.4506 70.6095 81.2506 71.1795C81.1806 71.3795 81.1106 71.5395 81.0306 71.6695C80.9506 71.7995 80.8706 71.8795 80.7806 71.9495C80.6906 72.0095 80.6006 72.0595 80.5006 72.0795C80.4006 72.0995 80.2906 72.1095 80.1706 72.1195H79.8106V71.5395H80.0806C80.1706 71.5395 80.2506 71.5195 80.3206 71.4695C80.3906 71.4295 80.4506 71.3395 80.5106 71.1995C80.5106 71.1695 80.5306 71.1495 80.5406 71.1195C80.5506 71.0895 80.5606 71.0595 80.5706 71.0295L79.3906 67.7795H80.1606L80.5906 69.1095L80.9206 70.1295H80.9506C80.9806 70.0095 81.0306 69.8495 81.1006 69.6395C81.1606 69.4295 81.2306 69.2095 81.3006 68.9695C81.3706 68.7295 81.4406 68.5095 81.5006 68.2895C81.5606 68.0695 81.6106 67.8995 81.6506 67.7695H82.3806C82.1906 68.3395 82.0006 68.9095 81.8206 69.4695V69.4795Z" fill="#27AAE1"/>
<path d="M85.4915 72.0795V68.4195H84.2615V72.0795H83.5215V67.7695H86.2315V72.0795H85.4915Z" fill="#27AAE1"/>
<path d="M90.4509 69.0978C90.4509 69.2878 90.4209 69.4578 90.3709 69.6178C90.3109 69.7778 90.2309 69.9178 90.1209 70.0378C90.0109 70.1578 89.8709 70.2478 89.7009 70.3178C89.5309 70.3878 89.3309 70.4178 89.1109 70.4178H88.4509V72.0678H87.7109V67.7578H89.0809C89.2909 67.7578 89.4809 67.7878 89.6509 67.8378C89.8209 67.8878 89.9609 67.9678 90.0909 68.0778C90.2109 68.1878 90.3009 68.3278 90.3709 68.4978C90.4409 68.6678 90.4709 68.8678 90.4709 69.0878L90.4509 69.0978ZM89.7109 69.0778C89.7109 68.8678 89.6609 68.6978 89.5509 68.5878C89.4409 68.4778 89.2809 68.4178 89.0509 68.4178H88.4309V69.7478H89.0509C89.2709 69.7478 89.4309 69.6878 89.5409 69.5678C89.6509 69.4478 89.7009 69.2878 89.7009 69.0778H89.7109Z" fill="#27AAE1"/>
<path d="M93.2902 71.1473H92.0302C92.0302 71.1473 92.0002 71.2473 91.9802 71.3373C91.9602 71.4273 91.9302 71.5173 91.9002 71.6173C91.8702 71.7173 91.8502 71.8073 91.8202 71.8973C91.8002 71.9873 91.7802 72.0473 91.7602 72.0873H90.9902L92.3002 67.7773H93.0202L94.3302 72.0873H93.5402L93.2902 71.1573V71.1473ZM92.4302 69.6473L92.2002 70.5173H93.1202L92.8902 69.6573C92.8902 69.6573 92.8702 69.5573 92.8502 69.4673C92.8302 69.3773 92.8102 69.2873 92.7802 69.1973C92.7602 69.0973 92.7302 69.0073 92.7102 68.9273C92.6902 68.8473 92.6802 68.7773 92.6702 68.7473H92.6402L92.4302 69.6473Z" fill="#27AAE1"/>
<path d="M98.1697 70.7995C98.1697 71.2095 98.0497 71.5295 97.8197 71.7495C97.5897 71.9695 97.2797 72.0795 96.8897 72.0795H95.4297V67.7695H96.8197C97.2497 67.7695 97.5697 67.8795 97.7897 68.0895C97.9997 68.2995 98.1097 68.5895 98.1097 68.9495C98.1097 69.1295 98.0697 69.2995 97.9897 69.4495C97.9097 69.5995 97.7697 69.7295 97.5597 69.8195V69.8495C97.6697 69.8795 97.7597 69.9295 97.8397 69.9995C97.9197 70.0595 97.9797 70.1395 98.0297 70.2295C98.0797 70.3195 98.1197 70.4095 98.1397 70.5095C98.1597 70.6095 98.1797 70.7095 98.1797 70.8195L98.1697 70.7995ZM97.3797 68.9695C97.3797 68.7995 97.3297 68.6595 97.2297 68.5595C97.1297 68.4595 96.9797 68.4095 96.7597 68.4095H96.1697V69.5395H96.7597C96.9697 69.5395 97.1297 69.4895 97.2297 69.3795C97.3297 69.2695 97.3797 69.1395 97.3797 68.9695ZM97.4497 70.7595C97.4497 70.5795 97.3997 70.4295 97.3097 70.3195C97.2097 70.2095 97.0597 70.1495 96.8297 70.1495H96.1797V71.4095H96.8397C96.9597 71.4095 97.0497 71.3895 97.1297 71.3595C97.2097 71.3295 97.2697 71.2795 97.3197 71.2195C97.3697 71.1595 97.3997 71.0895 97.4197 71.0095C97.4397 70.9295 97.4497 70.8495 97.4497 70.7595Z" fill="#27AAE1"/>
<path d="M100.541 70.0178C100.541 70.3578 100.521 70.6578 100.491 70.9078C100.451 71.1578 100.391 71.3678 100.291 71.5378C100.201 71.7078 100.071 71.8478 99.9209 71.9478C99.7609 72.0478 99.5709 72.1178 99.3309 72.1678L99.1309 71.6178C99.2709 71.5678 99.3809 71.4978 99.4809 71.4278C99.5709 71.3578 99.6509 71.2678 99.7009 71.1478C99.7609 71.0378 99.8009 70.8978 99.8209 70.7278C99.8409 70.5578 99.8609 70.3578 99.8609 70.1078V67.7578H102.311V72.0678H101.571V68.4178H100.541V70.0178Z" fill="#27AAE1"/>
<path d="M106.48 67.77V72.08H105.73V70.25H105.33C105.18 70.25 105.05 70.3 104.92 70.39C104.79 70.48 104.7 70.66 104.63 70.91L104.36 72.07H103.58L103.89 70.78C103.93 70.61 103.99 70.47 104.07 70.35C104.14 70.23 104.26 70.14 104.41 70.08C104.17 70 104 69.87 103.9 69.67C103.8 69.48 103.75 69.27 103.75 69.04C103.75 68.84 103.78 68.66 103.84 68.5C103.9 68.34 103.99 68.21 104.11 68.09C104.23 67.97 104.36 67.89 104.52 67.84C104.68 67.78 104.86 67.75 105.05 67.75H106.49L106.48 67.77ZM104.48 69.06C104.48 69.27 104.54 69.41 104.67 69.49C104.8 69.57 104.96 69.61 105.15 69.61H105.73V68.41H105.13C104.91 68.41 104.75 68.47 104.64 68.58C104.53 68.69 104.48 68.85 104.48 69.05V69.06Z" fill="#27AAE1"/>
<path d="M110.43 67.7383C110.66 67.7383 110.87 67.7683 111.03 67.8383C111.2 67.9083 111.33 67.9983 111.44 68.1183C111.55 68.2383 111.63 68.3783 111.68 68.5383C111.73 68.6983 111.76 68.8683 111.76 69.0583V70.8183C111.76 71.2383 111.64 71.5683 111.4 71.7883C111.16 72.0183 110.84 72.1283 110.42 72.1283C110.19 72.1283 109.98 72.0983 109.82 72.0283C109.65 71.9583 109.52 71.8683 109.41 71.7483C109.3 71.6283 109.23 71.4883 109.18 71.3183C109.13 71.1483 109.11 70.9783 109.11 70.7783V70.2283H108.64V72.0883H107.9V67.7783H108.64V69.5883H109.11V69.0583C109.11 68.8883 109.14 68.7183 109.19 68.5583C109.24 68.3983 109.32 68.2583 109.43 68.1383C109.54 68.0183 109.67 67.9283 109.84 67.8583C110.01 67.7883 110.21 67.7483 110.44 67.7483L110.43 67.7383ZM110.43 68.4083C110.32 68.4083 110.22 68.4283 110.15 68.4583C110.08 68.4883 110.01 68.5383 109.97 68.5983C109.92 68.6583 109.89 68.7283 109.87 68.7983C109.85 68.8683 109.84 68.9483 109.84 69.0183V70.7783C109.84 70.9783 109.89 71.1383 109.98 71.2583C110.07 71.3783 110.23 71.4483 110.44 71.4483C110.61 71.4483 110.76 71.3983 110.87 71.2983C110.98 71.1983 111.03 71.0483 111.03 70.8483V69.0183C111.03 68.9483 111.03 68.8783 111 68.8083C110.97 68.7383 110.95 68.6683 110.9 68.6083C110.85 68.5483 110.79 68.4983 110.72 68.4583C110.65 68.4183 110.55 68.3983 110.43 68.3983V68.4083Z" fill="#27AAE1"/>
<path d="M117.16 72.0795H113.09V67.7695H113.84V71.4295H114.86V67.7695H115.61V71.4295H116.65V67.7695H117.39V71.4295H117.81V72.9695H117.17V72.0795H117.16Z" fill="#27AAE1"/>
<path d="M120.931 71.1473H119.671C119.671 71.1473 119.641 71.2473 119.621 71.3373C119.601 71.4273 119.571 71.5173 119.541 71.6173C119.511 71.7173 119.491 71.8073 119.461 71.8973C119.441 71.9873 119.421 72.0473 119.401 72.0873H118.631L119.941 67.7773H120.661L121.971 72.0873H121.181L120.931 71.1573V71.1473ZM120.071 69.6473L119.841 70.5173H120.761L120.531 69.6573C120.531 69.6573 120.511 69.5573 120.491 69.4673C120.471 69.3773 120.451 69.2873 120.421 69.1973C120.401 69.0973 120.371 69.0073 120.351 68.9273C120.331 68.8473 120.321 68.7773 120.311 68.7473H120.281L120.071 69.6473Z" fill="#27AAE1"/>
<path d="M125.761 67.77V72.08H125.011V70.25H124.611C124.461 70.25 124.331 70.3 124.201 70.39C124.071 70.48 123.981 70.66 123.911 70.91L123.641 72.07H122.861L123.171 70.78C123.211 70.61 123.271 70.47 123.351 70.35C123.421 70.23 123.541 70.14 123.691 70.08C123.451 70 123.281 69.87 123.181 69.67C123.081 69.48 123.031 69.27 123.031 69.04C123.031 68.84 123.061 68.66 123.121 68.5C123.181 68.34 123.271 68.21 123.391 68.09C123.511 67.97 123.641 67.89 123.801 67.84C123.961 67.78 124.141 67.75 124.331 67.75H125.771L125.761 67.77ZM123.761 69.06C123.761 69.27 123.821 69.41 123.951 69.49C124.081 69.57 124.241 69.61 124.431 69.61H125.011V68.41H124.411C124.191 68.41 124.031 68.47 123.921 68.58C123.811 68.69 123.761 68.85 123.761 69.05V69.06Z" fill="#27AAE1"/>
<path d="M129.34 72.0795V67.7695H130.09V69.5795H130.45C130.51 69.5795 130.58 69.5795 130.65 69.5495C130.72 69.5195 130.79 69.4995 130.85 69.4595C130.91 69.4195 130.97 69.3495 131.03 69.2695C131.08 69.1895 131.13 69.0895 131.16 68.9595L131.49 67.7795H132.21L131.86 69.0495C131.8 69.2595 131.72 69.4395 131.62 69.5695C131.52 69.7095 131.39 69.7995 131.26 69.8495C131.44 69.9095 131.58 70.0095 131.68 70.1395C131.78 70.2695 131.86 70.4495 131.91 70.6695L132.29 72.0795H131.53L131.21 70.8495C131.14 70.5895 131.04 70.4195 130.92 70.3295C130.8 70.2495 130.66 70.1995 130.49 70.1995H130.1V72.0695H129.35L129.34 72.0795Z" fill="#27AAE1"/>
<path d="M136.081 70.7683C136.081 70.9783 136.051 71.1583 135.981 71.3283C135.911 71.4983 135.821 71.6383 135.691 71.7483C135.561 71.8583 135.421 71.9583 135.251 72.0183C135.081 72.0783 134.891 72.1083 134.691 72.1083C134.441 72.1083 134.231 72.0683 134.051 71.9983C133.871 71.9183 133.731 71.8183 133.621 71.6883C133.511 71.5583 133.431 71.4083 133.381 71.2383C133.331 71.0683 133.301 70.8883 133.301 70.6983V69.0683C133.301 68.9183 133.331 68.7583 133.381 68.6083C133.431 68.4483 133.511 68.3083 133.621 68.1783C133.731 68.0483 133.871 67.9483 134.051 67.8583C134.231 67.7783 134.441 67.7383 134.701 67.7383C134.941 67.7383 135.141 67.7783 135.321 67.8583C135.491 67.9383 135.641 68.0383 135.751 68.1683C135.861 68.2983 135.951 68.4383 136.001 68.5983C136.051 68.7583 136.081 68.9183 136.081 69.0783V70.7783V70.7683ZM135.331 69.0583C135.331 69.0083 135.331 68.9383 135.301 68.8683C135.271 68.7983 135.251 68.7283 135.201 68.6583C135.151 68.5883 135.091 68.5383 135.011 68.4883C134.931 68.4383 134.831 68.4183 134.701 68.4183C134.571 68.4183 134.471 68.4383 134.381 68.4883C134.301 68.5283 134.231 68.5883 134.181 68.6483C134.131 68.7083 134.091 68.7783 134.071 68.8583C134.051 68.9383 134.041 69.0083 134.041 69.0683V70.7183C134.041 70.9283 134.101 71.0983 134.201 71.2383C134.301 71.3783 134.471 71.4483 134.711 71.4483C134.881 71.4483 135.031 71.3983 135.151 71.2883C135.271 71.1783 135.341 71.0283 135.341 70.8383V69.0583H135.331Z" fill="#27AAE1"/>
<path d="M140.27 72.0795V69.5595H140.24L139.91 70.3695L139.48 71.3095H138.95L138.51 70.3395L138.18 69.5595H138.15V72.0895H137.41V67.7795H138.12L138.76 69.1895L139.2 70.2295H139.23L139.67 69.1795L140.29 67.7695H141.01V72.0795H140.27Z" fill="#27AAE1"/>
<path d="M144.411 72.0795V68.4195H143.181V72.0795H142.441V67.7695H145.151V72.0795H144.411Z" fill="#27AAE1"/>
<path d="M148.55 71.1473H147.29C147.29 71.1473 147.26 71.2473 147.24 71.3373C147.22 71.4273 147.19 71.5173 147.16 71.6173C147.13 71.7173 147.11 71.8073 147.08 71.8973C147.06 71.9873 147.04 72.0473 147.02 72.0873H146.25L147.56 67.7773H148.28L149.59 72.0873H148.8L148.55 71.1573V71.1473ZM147.69 69.6473L147.46 70.5173H148.38L148.15 69.6573C148.15 69.6573 148.13 69.5573 148.11 69.4673C148.09 69.3773 148.07 69.2873 148.04 69.1973C148.02 69.0973 147.99 69.0073 147.97 68.9273C147.95 68.8473 147.94 68.7773 147.93 68.7473H147.9L147.69 69.6473Z" fill="#27AAE1"/>
<path d="M152.71 72.0795V70.2195H151.43V72.0795H150.68V67.7695H151.43V69.5795H152.71V67.7695H153.45V72.0795H152.71Z" fill="#27AAE1"/>
<path d="M154.91 72.0795V67.7695H155.65V70.6595C155.75 70.4795 155.84 70.2995 155.93 70.1295C156.02 69.9595 156.11 69.7695 156.2 69.5995C156.37 69.2895 156.53 68.9895 156.69 68.6895C156.85 68.3895 157.01 68.0795 157.17 67.7695H157.86V72.0795H157.12V69.2695H157.11C157.04 69.4095 156.96 69.5495 156.89 69.6895C156.82 69.8295 156.74 69.9695 156.67 70.1095L155.6 72.0895H154.9L154.91 72.0795Z" fill="#27AAE1"/>
<path d="M162.011 67.77V72.08H161.261V70.25H160.861C160.711 70.25 160.581 70.3 160.451 70.39C160.321 70.48 160.231 70.66 160.161 70.91L159.891 72.07H159.111L159.421 70.78C159.461 70.61 159.521 70.47 159.601 70.35C159.671 70.23 159.791 70.14 159.941 70.08C159.701 70 159.531 69.87 159.431 69.67C159.331 69.48 159.281 69.27 159.281 69.04C159.281 68.84 159.311 68.66 159.371 68.5C159.431 68.34 159.521 68.21 159.641 68.09C159.761 67.97 159.891 67.89 160.051 67.84C160.211 67.78 160.391 67.75 160.581 67.75H162.021L162.011 67.77ZM160.011 69.06C160.011 69.27 160.071 69.41 160.201 69.49C160.331 69.57 160.491 69.61 160.681 69.61H161.261V68.41H160.661C160.441 68.41 160.281 68.47 160.171 68.58C160.061 68.69 160.011 68.85 160.011 69.05V69.06Z" fill="#27AAE1"/>
<path d="M162.42 75.9102H32.2902C24.3202 75.9102 24.3202 78.7802 16.3502 78.7802C8.38016 78.7802 8.38016 75.9102 0.410156 75.9102" stroke="#00AEEF" stroke-width="1.29" stroke-miterlimit="10"/>
<path d="M162.42 78.8398H32.2902C24.3202 78.8398 24.3202 81.7098 16.3502 81.7098C8.38016 81.7098 8.38016 78.8398 0.410156 78.8398" stroke="#00AEEF" stroke-width="1.29" stroke-miterlimit="10"/>
<path d="M4.96977 103.9C4.96977 104.17 5.05977 104.39 5.24977 104.58C5.43977 104.76 5.66977 104.86 5.95977 104.86H11.2398V109.83H5.95977C5.13977 109.83 4.36977 109.68 3.64977 109.37C2.92977 109.06 2.29977 108.64 1.74977 108.1C1.19977 107.57 0.779766 106.94 0.469766 106.22C0.159766 105.5 0.00976562 104.73 0.00976562 103.91V93.0203C0.00976562 92.2003 0.159766 91.4303 0.469766 90.7103C0.779766 89.9903 1.20977 89.3603 1.74977 88.8103C2.28977 88.2603 2.92977 87.8403 3.64977 87.5303C4.36977 87.2203 5.13977 87.0703 5.95977 87.0703H10.9898V92.0403H5.95977C5.66977 92.0403 5.43977 92.1303 5.24977 92.3203C5.05977 92.5003 4.96977 92.7403 4.96977 93.0303V103.92V103.9Z" fill="#0061AF"/>
<path d="M20.7304 86.7109C21.9204 86.7109 22.9604 86.8809 23.8504 87.2209C24.7304 87.5609 25.4604 88.0209 26.0304 88.5909C26.6004 89.1709 27.0204 89.8209 27.3004 90.5509C27.5804 91.2809 27.7204 92.0409 27.7204 92.8209V103.961C27.7204 104.741 27.5804 105.501 27.2904 106.241C27.0004 106.981 26.5704 107.631 25.9904 108.201C25.4104 108.771 24.6904 109.221 23.8104 109.571C22.9404 109.921 21.9104 110.101 20.7404 110.101C19.5704 110.101 18.5704 109.921 17.6904 109.571C16.8104 109.221 16.0704 108.761 15.4704 108.201C14.8704 107.631 14.4204 106.981 14.1104 106.241C13.8004 105.501 13.6504 104.741 13.6504 103.961V92.8209C13.6504 92.0409 13.7904 91.2809 14.0704 90.5509C14.3504 89.8209 14.7704 89.1709 15.3504 88.5909C15.9304 88.0109 16.6604 87.5609 17.5604 87.2209C18.4504 86.8809 19.5204 86.7109 20.7504 86.7109H20.7304ZM22.7404 92.8209C22.7404 92.3709 22.5204 92.0309 22.0904 91.8009C21.6604 91.5709 21.1804 91.4609 20.6704 91.4609C20.1604 91.4609 19.6804 91.5709 19.2504 91.8009C18.8204 92.0309 18.6004 92.3709 18.6004 92.8209V103.961C18.6004 104.471 18.8204 104.861 19.2504 105.121C19.6804 105.381 20.1504 105.511 20.6704 105.511C21.1904 105.511 21.6604 105.381 22.0904 105.121C22.5204 104.861 22.7404 104.481 22.7404 103.961V92.8209Z" fill="#0061AF"/>
<path d="M37.6992 87.0508C38.5792 87.0508 39.3892 87.1908 40.1192 87.4708C40.8492 87.7508 41.4692 88.1308 41.9892 88.6308C42.4992 89.1208 42.8992 89.7108 43.1892 90.3908C43.4792 91.0708 43.6192 91.8108 43.6192 92.6108C43.6192 92.9608 43.5792 93.3308 43.5092 93.7208C43.4392 94.1108 43.3092 94.5108 43.1392 94.9108C42.9592 95.3108 42.7192 95.7008 42.4192 96.0708C42.1092 96.4408 41.7292 96.7708 41.2792 97.0608C41.9392 97.2908 42.4892 97.6808 42.9292 98.2508C43.3692 98.8208 43.5892 99.6608 43.5892 100.801V103.921C43.5892 105.941 43.1092 107.431 42.1592 108.391C41.1992 109.361 39.7492 109.841 37.7892 109.841H30.1992L30.4792 109.561V87.3508L30.1992 87.0708H37.6992V87.0508ZM35.4492 94.9808H37.7592C38.0292 94.9008 38.2492 94.6908 38.4192 94.3508C38.5892 94.0108 38.6892 93.6508 38.6992 93.2708C38.7092 92.8908 38.6292 92.5508 38.4692 92.2508C38.2992 91.9508 38.0092 91.8008 37.5792 91.8008H35.4492V94.9808ZM37.6692 105.041C37.9392 105.041 38.1592 104.951 38.3492 104.761C38.5392 104.571 38.6292 104.351 38.6292 104.081V100.991C38.6092 100.721 38.5092 100.501 38.3192 100.331C38.1292 100.151 37.9192 100.071 37.6692 100.071H35.4492V105.041H37.6692Z" fill="#0061AF"/>
<path d="M63.8104 109.423C63.3404 109.653 62.8504 109.823 62.3404 109.933C61.8404 110.043 61.3404 110.103 60.8404 110.103C60.3004 110.103 59.7804 110.063 59.2504 109.983C58.7304 109.903 58.2204 109.733 57.7204 109.493C57.2304 109.243 56.7604 108.903 56.3204 108.463C55.8804 108.023 55.4604 107.433 55.0704 106.693L52.6904 101.473H51.4204V109.553L51.7004 109.833H46.1504L46.4604 109.553V87.3425L46.1504 87.0625H51.7004L51.4204 87.3425V96.1025H52.4404L56.2704 87.3425H56.2404L55.9604 87.0625H61.9104L61.6304 87.3425L56.2904 98.4225L59.3404 104.443C59.6704 105.083 60.1004 105.443 60.6204 105.543C61.1404 105.633 61.6704 105.503 62.2104 105.153L63.7804 109.443L63.8104 109.423Z" fill="#0061AF"/>
<path d="M71.6405 86.7109C72.8305 86.7109 73.8706 86.8809 74.7606 87.2209C75.6406 87.5609 76.3706 88.0209 76.9406 88.5909C77.5106 89.1709 77.9305 89.8209 78.2105 90.5509C78.4905 91.2809 78.6305 92.0409 78.6305 92.8209V103.961C78.6305 104.741 78.4905 105.501 78.2005 106.241C77.9105 106.981 77.4806 107.631 76.9006 108.201C76.3206 108.771 75.6006 109.221 74.7206 109.571C73.8506 109.921 72.8206 110.101 71.6506 110.101C70.4806 110.101 69.4805 109.921 68.6005 109.571C67.7205 109.221 66.9805 108.761 66.3805 108.201C65.7805 107.631 65.3305 106.981 65.0205 106.241C64.7105 105.501 64.5605 104.741 64.5605 103.961V92.8209C64.5605 92.0409 64.7006 91.2809 64.9806 90.5509C65.2606 89.8209 65.6806 89.1709 66.2606 88.5909C66.8406 88.0109 67.5706 87.5609 68.4706 87.2209C69.3606 86.8809 70.4306 86.7109 71.6606 86.7109H71.6405ZM73.6506 92.8209C73.6506 92.3709 73.4305 92.0309 73.0005 91.8009C72.5705 91.5709 72.0906 91.4609 71.5806 91.4609C71.0706 91.4609 70.5906 91.5709 70.1606 91.8009C69.7306 92.0309 69.5106 92.3709 69.5106 92.8209V103.961C69.5106 104.471 69.7306 104.861 70.1606 105.121C70.5906 105.381 71.0606 105.511 71.5806 105.511C72.1006 105.511 72.5705 105.381 73.0005 105.121C73.4305 104.861 73.6506 104.481 73.6506 103.961V92.8209Z" fill="#0061AF"/>
<path d="M97.6892 86.8091V109.549L97.9692 109.829H92.4492L92.7292 109.549V103.969L92.8792 98.4491L89.5792 102.119L86.2492 98.4491L86.4392 104.099V109.559L86.7192 109.839H81.1992L81.4792 109.559V86.7891H81.7892L89.5992 95.5491L97.3792 86.8191H97.7192L97.6892 86.8091Z" fill="#0061AF"/>
<path d="M114.289 109.553L114.569 109.833H109.049L109.329 109.553V91.9025H105.779V109.553L106.059 109.833H100.539L100.819 109.553V87.3425L100.539 87.0625H114.579L114.299 87.3425V109.553H114.289Z" fill="#0061AF"/>
<path d="M124.221 86.7109C125.411 86.7109 126.451 86.8809 127.341 87.2209C128.221 87.5609 128.951 88.0209 129.521 88.5909C130.091 89.1709 130.511 89.8209 130.791 90.5509C131.071 91.2809 131.211 92.0409 131.211 92.8209V103.961C131.211 104.741 131.071 105.501 130.781 106.241C130.491 106.981 130.061 107.631 129.481 108.201C128.901 108.771 128.181 109.221 127.301 109.571C126.431 109.921 125.401 110.101 124.231 110.101C123.061 110.101 122.061 109.921 121.181 109.571C120.301 109.221 119.561 108.761 118.961 108.201C118.361 107.631 117.911 106.981 117.601 106.241C117.291 105.501 117.141 104.741 117.141 103.961V92.8209C117.141 92.0409 117.281 91.2809 117.561 90.5509C117.841 89.8209 118.261 89.1709 118.841 88.5909C119.421 88.0109 120.151 87.5609 121.051 87.2209C121.941 86.8809 123.011 86.7109 124.241 86.7109H124.221ZM126.231 92.8209C126.231 92.3709 126.011 92.0309 125.581 91.8009C125.151 91.5709 124.671 91.4609 124.161 91.4609C123.651 91.4609 123.171 91.5709 122.741 91.8009C122.311 92.0309 122.091 92.3709 122.091 92.8209V103.961C122.091 104.471 122.311 104.861 122.741 105.121C123.171 105.381 123.641 105.511 124.161 105.511C124.681 105.511 125.151 105.381 125.581 105.121C126.011 104.861 126.231 104.481 126.231 103.961V92.8209Z" fill="#0061AF"/>
<path d="M146.9 97.7325C146.9 98.7025 146.75 99.5425 146.44 100.263C146.13 100.983 145.71 101.593 145.17 102.083C144.63 102.573 144.01 102.943 143.29 103.193C142.57 103.443 141.8 103.562 140.98 103.562H139.01V109.553L139.29 109.833H133.77L134.05 109.553V87.3425L133.77 87.0625H140.99C141.81 87.0625 142.58 87.1725 143.3 87.3825C144.02 87.6025 144.65 87.9425 145.18 88.4125C145.71 88.8825 146.14 89.5025 146.45 90.2525C146.76 91.0025 146.91 91.9125 146.91 92.9825V97.7325H146.9ZM141.93 92.6425C141.93 92.3725 141.84 92.1525 141.65 91.9625C141.47 91.7725 141.24 91.6825 140.97 91.6825H139V98.9325H140.97C141.24 98.9325 141.46 98.8425 141.65 98.6525C141.84 98.4625 141.93 98.2325 141.93 97.9425V92.6325V92.6425Z" fill="#0061AF"/>
<path d="M162.23 87.0508V91.8308H157.94V109.541L158.22 109.821H152.7L152.98 109.541V91.8308H148.6V87.0508H162.24H162.23Z" fill="#0061AF"/>
<path d="M28.9198 59.9878L27.9898 52.2478H17.5098V51.2578H28.8598L29.8998 59.8778L28.9198 59.9878Z" fill="#758592"/>
<path d="M4.23 59.9878L3.25 59.8778L4.29 51.2578H15.64V52.2478H5.16L4.23 59.9878Z" fill="#758592"/>
<path d="M0.480469 57.0395L7.04047 72.0395L15.9405 74.1895V50.5195L0.480469 57.0395ZM13.5905 57.3195C13.2405 57.3195 12.9605 56.8195 12.9605 56.1995C12.9605 55.5795 13.2405 55.0795 13.5905 55.0795C13.9405 55.0795 14.2205 55.5795 14.2205 56.1995C14.2205 56.8195 13.9405 57.3195 13.5905 57.3195Z" fill="#758592"/>
<path d="M17.0312 50.5273V74.1973L25.9312 72.0473L32.4913 57.0473L17.0312 50.5273ZM18.7512 56.1973C18.7512 55.5773 19.0312 55.0773 19.3812 55.0773C19.7312 55.0773 20.0112 55.5773 20.0112 56.1973C20.0112 56.8173 19.7312 57.3173 19.3812 57.3173C19.0312 57.3173 18.7512 56.8173 18.7512 56.1973Z" fill="#758592"/>
<path d="M31.8608 46.3086H1.30078V48.7986H31.8608V46.3086Z" fill="#758592"/>
<path d="M30.1108 47.0173H3.05078V42.0273H30.1108V47.0173ZM4.03078 46.0373H29.1208V43.0173H4.03078V46.0373Z" fill="#758592"/>
<path d="M24.9714 42.6378H8.19141V40.2578H24.9714V42.6378ZM8.72141 42.1078H24.4414V40.7778H8.72141V42.1078Z" fill="#758592"/>
<path d="M13.7009 36.5898H10.9609V40.5198H13.7009V36.5898Z" fill="#758592"/>
<path d="M22.1912 36.5898H19.4512V40.5198H22.1912V36.5898Z" fill="#758592"/>
<path d="M11.4303 44.0078H5.07031V45.1778H11.4303V44.0078Z" fill="#758592"/>
<path d="M19.7506 44.0078H13.3906V45.1778H19.7506V44.0078Z" fill="#758592"/>
<path d="M28.0807 44.0078H21.7207V45.1778H28.0807V44.0078Z" fill="#758592"/>
<path d="M17.5109 33.8867V34.5867H15.6409V33.8867H15.2109V34.5867V34.6667V34.7467H17.9409V34.6667V34.5867V33.8867H17.5109Z" fill="#758592"/>
<path d="M17.611 38.9492H15.541V40.5192H17.611V38.9492Z" fill="#758592"/>
<path d="M16.7402 32.9883H16.4102V39.3683H16.7402V32.9883Z" fill="#758592"/>
<path d="M17.5109 37.168V37.868H15.6409V37.168H15.2109V37.868V37.948V38.028H17.9409V37.948V37.868V37.168H17.5109Z" fill="#758592"/>
<path d="M6.34061 47.9482L5.37891 48.1367L6.12523 51.9443L7.08693 51.7558L6.34061 47.9482Z" fill="#758592"/>
<path d="M27.273 47.9501L26.5273 51.7578L27.4891 51.9461L28.2347 48.1385L27.273 47.9501Z" fill="#758592"/>
<path d="M74.8195 70.3281H22.7695V72.1381H74.8195V70.3281Z" fill="#758592"/>
<path d="M49.1195 48.2188H36.6895V48.8587H49.1195V48.2188Z" fill="#758592"/>
<path d="M49.1095 49.5586H36.5195V50.5486H49.1095V49.5586Z" fill="#758592"/>
<path d="M49.1197 61.5195H36.1797V62.5095H49.1197V61.5195Z" fill="#758592"/>
<path d="M40.7633 54.5489L33.002 71.2539L33.8998 71.671L41.6611 54.966L40.7633 54.5489Z" fill="#758592"/>
<path d="M39.7896 61.6719L35.3359 71.2578L36.0524 71.5907L40.5061 62.0048L39.7896 61.6719Z" fill="#758592"/>
<path d="M46.1158 61.6719L41.6621 71.2578L42.3786 71.5907L46.8323 62.0048L46.1158 61.6719Z" fill="#758592"/>
<path d="M43.9516 54.9786L51.7129 71.6836L52.6107 71.2665L44.8494 54.5614L43.9516 54.9786Z" fill="#758592"/>
<path d="M45.1147 62.0118L49.5684 71.5977L50.2848 71.2648L45.8311 61.6789L45.1147 62.0118Z" fill="#758592"/>
<path d="M39.0795 62.0118L43.5332 71.5977L44.2497 71.2648L39.796 61.6789L39.0795 62.0118Z" fill="#758592"/>
<path d="M49.1197 51.6797H36.1797V52.7997H49.1197V51.6797Z" fill="#758592"/>
<path d="M46.1497 55.9391C46.1497 55.9391 45.3897 60.0091 43.0497 60.0091C40.7097 60.0091 39.9497 55.9391 39.9497 55.9391L38.9297 48.5391H47.1597L46.1397 55.9391H46.1497Z" fill="#758592"/>
<path d="M37.8397 52.2383H36.1797V61.5083H37.8397V52.2383Z" fill="#758592"/>
<path d="M49.119 52.2383H47.459V61.5083H49.119V52.2383Z" fill="#758592"/>
<path d="M36.5801 43.0998H40.5001V47.9198H36.5801C35.6201 47.9198 34.8301 47.1398 34.8301 46.1698V44.8398C34.8301 43.8798 35.6101 43.0898 36.5801 43.0898V43.0998Z" fill="#758592"/>
<path d="M42.8602 17.7383C44.3102 17.7383 45.4802 18.9083 45.4802 20.3583V35.8783H40.2402V20.3583C40.2402 18.9083 41.4102 17.7383 42.8602 17.7383Z" fill="#758592"/>
<path d="M43.9239 27.5425L43.6777 27.832L54.9535 37.4183L55.1997 37.1288L43.9239 27.5425Z" fill="#758592"/>
<path d="M27.9095 1.03027L27.543 1.35547L44.2673 20.2058L44.6339 19.8806L27.9095 1.03027Z" fill="#758592"/>
<path d="M39.4613 18.386L39.0996 18.2695L34.563 32.3571L34.9247 32.4736L39.4613 18.386Z" fill="#758592"/>
<path d="M49.7204 20.2543L39.0254 17.2461L38.6301 18.6516L49.325 21.6598L49.7204 20.2543Z" fill="#758592"/>
<path d="M49.2103 19.3537L47.3621 18.8338C46.8676 18.6948 46.3541 18.9829 46.215 19.4773L45.9253 20.5073C45.7862 21.0018 46.0743 21.5153 46.5687 21.6544L48.417 22.1743C48.9114 22.3133 49.425 22.0253 49.5641 21.5308L49.8538 20.5008C49.9929 20.0064 49.7048 19.4928 49.2103 19.3537Z" fill="#758592"/>
<path d="M38.9392 40.2484L21.7192 5.46839C21.7192 5.46839 21.2992 4.95839 20.9092 5.21839C20.5192 5.47839 20.6592 6.06839 20.6592 6.06839L32.3192 32.9384L38.9392 45.2584V40.2584V40.2484Z" fill="#758592"/>
<path d="M29.0896 1.17L8.06961 14.83L7.59961 14.11L11.7496 10.77L22.1796 2.58L28.3296 0L29.0896 1.17Z" fill="#758592"/>
<path d="M38.3594 36.4492V47.9192H53.2794C54.5794 47.9192 55.6294 46.8692 55.6294 45.5692V36.4492H38.3594ZM43.9594 43.0992H40.2494V37.4192H43.9594V43.0992ZM50.9194 46.8192H49.8894V37.4192H50.9194V46.8192ZM53.1394 46.8192H52.1094V37.4192H53.1394V46.8192Z" fill="#758592"/>
<path d="M59.4701 56.9297H52.8301V63.2997H59.4701V56.9297Z" fill="#758592"/>
<path d="M67.3099 56.9297H60.6699V63.2997H67.3099V56.9297Z" fill="#758592"/>
<path d="M59.4701 64.1797H52.8301V72.1397H59.4701V64.1797Z" fill="#758592"/>
<path d="M67.3099 64.1797H60.6699V72.1397H67.3099V64.1797Z" fill="#758592"/>
<path d="M74.8106 56.9297H68.3906V63.2997H74.8106V56.9297Z" fill="#758592"/>
<path d="M74.8106 64.1797H68.3906V72.1397H74.8106V64.1797Z" fill="#758592"/>
<path d="M59.4701 49.6797H52.8301V56.0497H59.4701V49.6797Z" fill="#758592"/>
<path d="M67.3099 49.6797H60.6699V56.0497H67.3099V49.6797Z" fill="#758592"/>
</g>
<defs>
<clipPath id="clip0_1301_67131">
<rect width="162.42" height="110.1" fill="white"/>
</clipPath>
</defs>
</svg>
