<svg width="158" height="159" viewBox="0 0 158 159" fill="none" xmlns="http://www.w3.org/2000/svg">
<path d="M78.8 156.85C121.91 156.85 156.85 121.9 156.85 78.8C156.85 35.7 121.91 0.75 78.8 0.75C35.69 0.75 0.75 35.69 0.75 78.8C0.75 121.91 35.7 156.85 78.8 156.85Z" fill="white"/>
<path d="M78.9993 128.821C78.5293 128.821 78.1393 128.441 78.1393 127.961V126.881C71.0893 124.491 64.5993 120.331 59.1393 115.051C56.1993 115.861 53.3093 116.861 50.4693 118.051C50.0293 118.231 49.5293 118.031 49.3493 117.591C49.1693 117.151 49.3693 116.651 49.8093 116.471C52.4093 115.381 55.0593 114.451 57.7493 113.671C48.7693 104.351 42.9393 91.9614 42.7093 79.7614H29.1393C28.6693 79.7614 28.2793 79.3814 28.2793 78.9014C28.2793 78.4214 28.6593 78.0414 29.1393 78.0414H42.7093C43.0093 65.9114 48.8193 53.6114 57.7493 44.3614C55.0593 43.5814 52.4093 42.6414 49.7993 41.5514C49.3593 41.3714 49.1593 40.8714 49.3393 40.4314C49.5193 39.9914 50.0193 39.7914 50.4593 39.9714C53.2993 41.1614 56.1993 42.1614 59.1393 42.9714C64.5893 37.7014 71.0793 33.5414 78.1293 31.1514V30.0514C78.1293 29.5814 78.5093 29.1914 78.9893 29.1914C79.4693 29.1914 79.8493 29.5714 79.8493 30.0514V31.1514C86.8493 33.5214 93.2993 37.6414 98.7193 42.8614C101.699 42.0214 104.629 40.9814 107.499 39.7614C107.939 39.5714 108.439 39.7814 108.619 40.2114C108.809 40.6514 108.599 41.1514 108.169 41.3314C105.529 42.4614 102.839 43.4314 100.109 44.2414C109.099 53.5114 114.959 65.8614 115.259 78.0414H129.949C130.419 78.0414 130.809 78.4214 130.809 78.9014C130.809 79.3814 130.429 79.7614 129.949 79.7614H115.269C115.039 92.0114 109.169 104.461 100.119 113.791C102.849 114.601 105.529 115.571 108.169 116.691C108.609 116.881 108.809 117.381 108.619 117.821C108.429 118.261 107.929 118.461 107.499 118.271C104.629 117.051 101.709 116.011 98.7293 115.171C93.2993 120.401 86.8393 124.521 79.8493 126.891V127.971C79.8493 128.441 79.4693 128.831 78.9893 128.831L78.9993 128.821ZM79.8593 112.411V125.061C86.0893 122.851 91.8693 119.221 96.8193 114.641C91.3093 113.241 85.6393 112.501 79.8593 112.411ZM61.0793 114.541C66.0493 119.161 71.8593 122.841 78.1393 125.061V112.411C72.3293 112.461 66.6293 113.171 61.0793 114.551V114.541ZM79.8593 110.691C86.1393 110.781 92.2993 111.631 98.2693 113.241C107.379 104.171 113.329 91.8614 113.569 79.7414H79.8593V110.691ZM44.4393 79.7414C44.6693 91.8114 50.5793 104.071 59.6293 113.141C65.6393 111.561 71.8293 110.741 78.1393 110.691V79.7514H44.4293L44.4393 79.7414ZM79.8593 78.0214H113.559C113.249 65.9814 107.309 53.7714 98.2593 44.7514C92.2893 46.3514 86.1393 47.2114 79.8593 47.3014V78.0214ZM44.4393 78.0214H78.1393V47.3014C71.8393 47.2514 65.6393 46.4314 59.6393 44.8514C50.6493 53.8614 44.7493 66.0214 44.4393 78.0214ZM61.0893 43.4514C66.6393 44.8214 72.3393 45.5414 78.1393 45.5814V32.9414C71.8593 35.1614 66.0593 38.8314 61.0893 43.4514ZM79.8593 32.9414V45.5814C85.6293 45.5014 91.2993 44.7514 96.8093 43.3514C91.8693 38.7814 86.0993 35.1414 79.8593 32.9414Z" fill="#1D1D1B"/>
<path d="M78.9993 128.821C78.5293 128.821 78.1393 128.441 78.1393 127.961V126.881C71.0893 124.491 64.5993 120.331 59.1393 115.051C56.1993 115.861 53.3093 116.861 50.4693 118.051C50.0293 118.231 49.5293 118.031 49.3493 117.591C49.1693 117.151 49.3693 116.651 49.8093 116.471C52.4093 115.381 55.0593 114.451 57.7493 113.671C48.7693 104.351 42.9393 91.9614 42.7093 79.7614H29.1393C28.6693 79.7614 28.2793 79.3814 28.2793 78.9014C28.2793 78.4214 28.6593 78.0414 29.1393 78.0414H42.7093C43.0093 65.9114 48.8193 53.6114 57.7493 44.3614C55.0593 43.5814 52.4093 42.6414 49.7993 41.5514C49.3593 41.3714 49.1593 40.8714 49.3393 40.4314C49.5193 39.9914 50.0193 39.7914 50.4593 39.9714C53.2993 41.1614 56.1993 42.1614 59.1393 42.9714C64.5893 37.7014 71.0793 33.5414 78.1293 31.1514V30.0514C78.1293 29.5814 78.5093 29.1914 78.9893 29.1914C79.4693 29.1914 79.8493 29.5714 79.8493 30.0514V31.1514C86.8493 33.5214 93.2993 37.6414 98.7193 42.8614C101.699 42.0214 104.629 40.9814 107.499 39.7614C107.939 39.5714 108.439 39.7814 108.619 40.2114C108.809 40.6514 108.599 41.1514 108.169 41.3314C105.529 42.4614 102.839 43.4314 100.109 44.2414C109.099 53.5114 114.959 65.8614 115.259 78.0414H129.949C130.419 78.0414 130.809 78.4214 130.809 78.9014C130.809 79.3814 130.429 79.7614 129.949 79.7614H115.269C115.039 92.0114 109.169 104.461 100.119 113.791C102.849 114.601 105.529 115.571 108.169 116.691C108.609 116.881 108.809 117.381 108.619 117.821C108.429 118.261 107.929 118.461 107.499 118.271C104.629 117.051 101.709 116.011 98.7293 115.171C93.2993 120.401 86.8393 124.521 79.8493 126.891V127.971C79.8493 128.441 79.4693 128.831 78.9893 128.831L78.9993 128.821ZM79.8593 112.411V125.061C86.0893 122.851 91.8693 119.221 96.8193 114.641C91.3093 113.241 85.6393 112.501 79.8593 112.411ZM61.0793 114.541C66.0493 119.161 71.8593 122.841 78.1393 125.061V112.411C72.3293 112.461 66.6293 113.171 61.0793 114.551V114.541ZM79.8593 110.691C86.1393 110.781 92.2993 111.631 98.2693 113.241C107.379 104.171 113.329 91.8614 113.569 79.7414H79.8593V110.691ZM44.4393 79.7414C44.6693 91.8114 50.5793 104.071 59.6293 113.141C65.6393 111.561 71.8293 110.741 78.1393 110.691V79.7514H44.4293L44.4393 79.7414ZM79.8593 78.0214H113.559C113.249 65.9814 107.309 53.7714 98.2593 44.7514C92.2893 46.3514 86.1393 47.2114 79.8593 47.3014V78.0214ZM44.4393 78.0214H78.1393V47.3014C71.8393 47.2514 65.6393 46.4314 59.6393 44.8514C50.6493 53.8614 44.7493 66.0214 44.4393 78.0214ZM61.0893 43.4514C66.6393 44.8214 72.3393 45.5414 78.1393 45.5814V32.9414C71.8593 35.1614 66.0593 38.8314 61.0893 43.4514ZM79.8593 32.9414V45.5814C85.6293 45.5014 91.2993 44.7514 96.8093 43.3514C91.8693 38.7814 86.0993 35.1414 79.8593 32.9414Z" stroke="#1D1D1B" stroke-width="0.36" stroke-miterlimit="10"/>
<path d="M57.8799 76.5519V69.4919H105.7C101.78 58.5319 91.2999 50.6719 79.0099 50.6719C63.3799 50.6719 50.6699 63.3819 50.6699 79.0119C50.6699 94.6419 63.3799 107.352 79.0099 107.352C94.6399 107.352 107.35 94.6419 107.35 79.0119C107.35 78.1819 107.31 77.3619 107.24 76.5519H57.8899H57.8799Z" fill="#009FE3"/>
<path d="M79.01 0.25C35.58 0.25 0.25 35.58 0.25 79C0.25 122.42 35.58 157.75 79 157.75C122.42 157.75 157.75 122.42 157.75 79C157.75 35.58 122.43 0.25 79.01 0.25ZM79.01 156.32C36.37 156.32 1.68 121.64 1.68 79C1.68 36.36 36.37 1.68 79.01 1.68C121.65 1.68 156.33 36.37 156.33 79C156.33 121.63 121.64 156.32 79.01 156.32Z" fill="#1D1D1B"/>
<path d="M79.01 0.25C35.58 0.25 0.25 35.58 0.25 79C0.25 122.42 35.58 157.75 79 157.75C122.42 157.75 157.75 122.42 157.75 79C157.75 35.58 122.43 0.25 79.01 0.25ZM79.01 156.32C36.37 156.32 1.68 121.64 1.68 79C1.68 36.36 36.37 1.68 79.01 1.68C121.65 1.68 156.33 36.37 156.33 79C156.33 121.63 121.64 156.32 79.01 156.32Z" stroke="#1D1D1B" stroke-width="0.5" stroke-miterlimit="10"/>
<path d="M79.0091 4.53906C37.9491 4.53906 4.53906 37.9491 4.53906 78.9991C4.53906 120.049 37.9391 153.459 78.9991 153.459C120.059 153.459 153.459 120.059 153.459 78.9991C153.459 37.9391 120.059 4.53906 79.0091 4.53906ZM79.0091 134.159C48.5891 134.159 23.8491 109.419 23.8491 78.9991C23.8491 48.5791 48.5991 23.8391 79.0091 23.8391C109.419 23.8391 134.169 48.5891 134.169 78.9991C134.169 109.409 109.419 134.159 79.0091 134.159Z" fill="#023E84"/>
<path d="M79.0007 26.6992C50.1707 26.6992 26.7207 50.1592 26.7207 78.9992C26.7207 107.839 50.1707 131.299 79.0007 131.299C107.831 131.299 131.301 107.839 131.301 78.9992C131.301 50.1592 107.841 26.6992 79.0007 26.6992ZM79.0007 126.979C52.5507 126.979 31.0207 105.459 31.0207 78.9992C31.0207 52.5392 52.5407 31.0192 79.0007 31.0192C105.461 31.0192 126.981 52.5392 126.981 78.9992C126.981 105.459 105.461 126.979 79.0007 126.979Z" fill="#009FE3"/>
<path d="M128.631 86.3508V76.5508H72.6309V96.1608H125.861L128.631 86.3508Z" fill="#009FE3"/>
<path d="M96.0796 87.2989C94.5296 89.5289 92.0296 92.1089 88.7096 92.9689C90.7096 93.8389 90.7496 94.1989 90.7496 94.1989C90.7496 94.1989 87.5695 97.8589 83.6295 97.8589C81.4495 97.8589 80.8696 97.0089 80.4596 95.9189V68.0189L92.1896 66.3789V62.6889H80.4596V62.1489C81.8896 61.5689 82.9096 60.1689 82.9096 58.5289C82.9096 56.3689 81.1596 54.6289 79.0096 54.6289C76.8596 54.6289 75.1096 56.3789 75.1096 58.5289C75.1096 60.1689 76.1195 61.5689 77.5595 62.1489V62.6889H65.8296V66.3789L77.5595 68.0189V95.9189C77.1495 97.0089 76.5596 97.8589 74.3896 97.8589C70.4595 97.8589 67.2695 94.1989 67.2695 94.1989C67.2695 94.1989 67.3095 93.8289 69.3095 92.9689C65.9895 92.1089 63.4796 89.5289 61.9296 87.2989C61.4496 92.9789 64.5396 97.0689 64.5396 97.0689C64.5396 97.0689 65.3595 96.1689 65.5295 95.7289C74.6195 103.259 77.5795 98.4289 79.0195 105.049C80.4495 98.4189 83.4196 103.259 92.5096 95.7289C92.6796 96.1589 93.4895 97.0689 93.4895 97.0689C93.4895 97.0689 96.5795 92.9789 96.0995 87.2989H96.0796Z" fill="white"/>
<path d="M126.961 77.6186C125.211 78.9786 122.781 79.8186 120.101 79.8186C117.421 79.8186 114.951 78.9586 113.191 77.5686C111.431 78.9586 108.981 79.8186 106.281 79.8186C103.581 79.8186 101.131 78.9586 99.3706 77.5686C97.6106 78.9586 95.1706 79.8186 92.4606 79.8186C89.7506 79.8186 87.3106 78.9586 85.5506 77.5686C83.7906 78.9586 81.3406 79.8186 78.6406 79.8186C75.9406 79.8186 73.4906 78.9586 71.7306 77.5686C69.9706 78.9586 67.5206 79.8186 64.8206 79.8186C62.1206 79.8186 59.6506 78.9486 57.8906 77.5586V83.1386C59.6506 84.5386 62.1006 85.3986 64.8206 85.3986C67.5406 85.3986 69.9706 84.5386 71.7306 83.1486C73.4906 84.5386 75.9306 85.3986 78.6406 85.3986C81.3506 85.3986 83.7906 84.5386 85.5506 83.1486C87.3106 84.5386 89.7506 85.3986 92.4606 85.3986C95.1706 85.3986 97.6106 84.5386 99.3706 83.1486C101.131 84.5386 103.571 85.3986 106.281 85.3986C108.991 85.3986 111.431 84.5386 113.191 83.1486C114.951 84.5386 117.391 85.3986 120.101 85.3986C122.811 85.3986 125.051 84.6086 126.791 83.3186C126.921 81.8986 126.991 80.4586 126.991 79.0086C126.991 78.5486 126.991 78.0786 126.971 77.6186H126.961Z" fill="white"/>
<path d="M11.1095 90.8711L10.2695 83.6611L12.8395 83.2311L12.8995 83.7011C12.2595 83.8711 11.8395 84.2011 11.6495 84.7111C11.4595 85.2111 11.3995 85.7311 11.4595 86.2711L11.5295 86.8811L14.8695 86.4911C14.8295 86.1711 14.7395 85.9211 14.5895 85.7511C14.4395 85.5811 14.2395 85.4611 13.9995 85.4111C13.7595 85.3511 13.4595 85.3411 13.1095 85.3611L13.0495 84.8711L17.1295 84.3911L17.1895 84.8811C16.6795 84.9711 16.2895 85.1311 16.0395 85.3611C15.7795 85.5911 15.6795 85.9411 15.7395 86.4011L18.4895 86.0811C18.8595 86.0411 19.0895 85.9511 19.1895 85.8111C19.2795 85.6711 19.3195 85.4911 19.2895 85.2511C19.2395 84.8511 19.1195 84.4711 18.9295 84.1011C18.7295 83.7311 18.4795 83.4211 18.1595 83.1611C17.8395 82.9111 17.4695 82.7311 17.0495 82.6511L17.1595 82.1211L19.7695 82.4411L20.6295 89.7811L20.1895 89.8311L20.1595 89.5811C20.1295 89.3611 20.0095 89.2211 19.7995 89.1811C19.5795 89.1311 19.2895 89.1311 18.9295 89.1811L12.6695 89.9111C12.3095 89.9511 12.0295 90.0211 11.8295 90.1211C11.6295 90.2211 11.5395 90.3811 11.5695 90.6011L11.5995 90.8611L11.1595 90.9111L11.1095 90.8711Z" fill="white"/>
<path d="M9.82046 74.2608C9.75046 75.2608 9.58046 75.9708 9.29046 76.3808C9.00046 76.7908 8.69046 76.9808 8.34046 76.9608C8.09046 76.9408 7.89046 76.8408 7.74046 76.6408C7.59046 76.4408 7.52046 76.1808 7.54046 75.8508C7.56046 75.5108 7.66046 75.2608 7.82046 75.1008C7.99046 74.9408 8.16046 74.8608 8.35046 74.8708L8.59046 74.9208C8.69046 74.9608 8.77046 74.9808 8.83046 74.9908C8.93046 74.9908 9.02046 74.9408 9.11046 74.8108C9.20046 74.6808 9.25046 74.4908 9.27046 74.2208C9.29046 73.9508 9.27046 73.7508 9.19046 73.6208C9.12046 73.4808 9.04046 73.4108 8.94046 73.4108C8.87046 73.4108 8.79046 73.4108 8.69046 73.4508L8.44046 73.4708C8.25046 73.4608 8.09046 73.3608 7.94046 73.1708C7.80046 72.9808 7.74046 72.7208 7.76046 72.3908C7.78046 72.0608 7.88046 71.8008 8.06046 71.6308C8.24046 71.4608 8.45046 71.3808 8.70046 71.4008C9.08046 71.4208 9.37046 71.6808 9.58046 72.1608C9.79046 72.6408 9.87046 73.3408 9.81046 74.2608H9.82046ZM16.7105 76.0708V76.0208L11.7705 73.0408H11.6505C11.4905 73.0208 11.3305 73.0508 11.1505 73.1308C10.9705 73.2108 10.8705 73.3408 10.8605 73.5308L10.8405 73.7908L10.4005 73.7608L10.7105 69.0508L11.1505 69.0808L11.1305 69.3408C11.1205 69.5608 11.2105 69.7208 11.4305 69.8008C11.6405 69.8908 11.9205 69.9408 12.2705 69.9708L18.5605 70.3908C18.9105 70.4108 19.2005 70.3908 19.4205 70.3408C19.6405 70.2808 19.7605 70.1408 19.7805 69.9208L19.8005 69.6608L20.2405 69.6908L19.9305 74.4008L19.4905 74.3708L19.5105 74.1108C19.5205 73.8908 19.4305 73.7308 19.2105 73.6508C19.0005 73.5608 18.7205 73.5108 18.3605 73.4808L13.5505 73.1608V73.2208L18.4805 76.1908H18.6105C18.8205 76.2108 19.0105 76.1708 19.1605 76.0708C19.3105 75.9708 19.3905 75.8508 19.4005 75.7008L19.4205 75.4408L19.8605 75.4708L19.5505 80.1808L19.1105 80.1508L19.1305 79.8908C19.1405 79.6708 19.0505 79.5208 18.8505 79.4308C18.6505 79.3408 18.3605 79.2908 17.9905 79.2608L11.7005 78.8408C11.3405 78.8208 11.0505 78.8408 10.8305 78.8908C10.6105 78.9508 10.5005 79.0908 10.4805 79.3108L10.4605 79.5708L10.0205 79.5408L10.3305 74.8308L10.7705 74.8608L10.7505 75.1208C10.7405 75.3408 10.8305 75.5008 11.0505 75.5808C11.2605 75.6708 11.5505 75.7208 11.9005 75.7508L16.7305 76.0708H16.7105Z" fill="white"/>
<path d="M13.4698 56.9787L16.6098 57.8187L16.4798 58.2887C16.1098 58.2487 15.7198 58.2588 15.3098 58.3288C14.8998 58.3988 14.5298 58.5487 14.2098 58.7787C13.8898 59.0087 13.6698 59.3187 13.5698 59.7287C13.4698 60.1187 13.4598 60.5187 13.5598 60.9287C13.6598 61.3387 13.9598 61.7587 14.4798 62.1787C14.9998 62.5987 15.7998 62.9488 16.8698 63.2388C17.8598 63.4988 18.6698 63.5687 19.3198 63.4487C19.9698 63.3187 20.4498 63.0887 20.7598 62.7587C21.0698 62.4287 21.2798 62.0587 21.3898 61.6687C21.4798 61.3187 21.4898 60.9287 21.4098 60.5087C21.3298 60.0787 21.1498 59.6187 20.8698 59.1187L21.4598 58.7388C22.3398 60.1088 22.5798 61.5387 22.1798 63.0187C21.9698 63.7887 21.6598 64.4487 21.2298 64.9887C20.7998 65.5287 20.3098 65.9587 19.7298 66.2487C19.1598 66.5487 18.5598 66.7287 17.9398 66.7787C17.3198 66.8387 16.7098 66.7788 16.0998 66.6188C15.3798 66.4288 14.7398 66.1187 14.1798 65.7087C13.6298 65.2987 13.1898 64.7988 12.8798 64.2288C12.5598 63.6488 12.3698 63.0187 12.2998 62.3387C12.2298 61.6487 12.2998 60.9287 12.4998 60.1587C12.6098 59.7387 12.7398 59.3987 12.8698 59.1387C13.0098 58.8787 13.1998 58.5687 13.4398 58.2087C13.5298 58.0687 13.5798 57.9588 13.5998 57.8988C13.6298 57.7788 13.6298 57.6787 13.5798 57.6187C13.5398 57.5587 13.4398 57.5087 13.2998 57.4587L13.4298 56.9688L13.4698 56.9787Z" fill="white"/>
<path d="M14.9492 53.4105L16.9992 49.1505L17.3992 49.3405L17.2892 49.5705C17.1892 49.7705 17.2292 49.9505 17.3892 50.1105C17.5492 50.2705 17.7992 50.4305 18.1092 50.5805L20.4492 51.7105L20.4892 51.6305L19.7292 49.7005C19.5392 49.2205 19.3792 48.8605 19.2292 48.6205C19.0792 48.3905 18.9192 48.2205 18.7292 48.1305C18.5292 48.0405 18.3592 48.0305 18.1892 48.1205C18.0292 48.2005 17.8692 48.3805 17.7192 48.6505L17.3192 48.4605L18.9892 44.9805L19.3892 45.1705C19.2792 45.4005 19.2392 45.6705 19.2692 45.9905C19.2992 46.3105 19.4092 46.7405 19.6192 47.2905L20.3892 49.3505L25.6292 48.9305C25.8092 48.9205 26.0092 48.9005 26.2192 48.8805C26.4292 48.8605 26.6292 48.8305 26.8292 48.7705C27.0292 48.7105 27.2292 48.6105 27.4392 48.4705L27.8392 48.6605L25.8992 52.7005L25.4992 52.5105L25.5792 52.3505L25.5592 52.1705L25.3792 52.0005C25.2692 51.9505 25.0992 51.9305 24.8492 51.9305L21.2692 52.0105L21.2292 52.0905L23.7992 53.3205C24.1192 53.4705 24.3892 53.5605 24.6192 53.5905C24.8492 53.6205 25.0092 53.5305 25.1092 53.3305L25.2192 53.1005L25.6192 53.2905L23.5692 57.5505L23.1692 57.3605L23.2792 57.1305C23.3792 56.9305 23.3492 56.7505 23.1892 56.5905C23.0292 56.4305 22.7892 56.2805 22.4592 56.1205L16.7692 53.3905C16.4392 53.2305 16.1692 53.1405 15.9392 53.1105C15.7092 53.0805 15.5592 53.1705 15.4592 53.3705L15.3492 53.6005L14.9492 53.4105Z" fill="white"/>
<path d="M28.4099 42.5406L28.4399 42.5006L25.9299 37.3006L25.8299 37.2206C25.7099 37.1306 25.5499 37.0606 25.3499 37.0306C25.1599 36.9906 24.9999 37.0506 24.8899 37.2106L24.7299 37.4206L24.3799 37.1606L27.2199 33.3906L27.5699 33.6506L27.4199 33.8606C27.2899 34.0406 27.2799 34.2206 27.4199 34.4106C27.5499 34.6006 27.7499 34.8006 28.0399 35.0106L33.0799 38.8006C33.3599 39.0106 33.6099 39.1506 33.8299 39.2306C34.0499 39.3006 34.2199 39.2506 34.3599 39.0706L34.5199 38.8606L34.8699 39.1306L32.0299 42.9006L31.6799 42.6406L31.8399 42.4306C31.9699 42.2506 31.9699 42.0706 31.8399 41.8806C31.7099 41.6906 31.5099 41.4906 31.2199 41.2806L27.3699 38.3806L27.3399 38.4206L29.8399 43.6106L29.9499 43.6906C30.1199 43.8206 30.2999 43.8806 30.4799 43.8806C30.6599 43.8806 30.7999 43.8206 30.8899 43.7006L31.0399 43.4906L31.3899 43.7506L28.5499 47.5206L28.1999 47.2506L28.3599 47.0406C28.4899 46.8606 28.4999 46.6806 28.3799 46.5006C28.2599 46.3206 28.0499 46.1106 27.7499 45.8906L22.7099 42.1006C22.4199 41.8806 22.1699 41.7406 21.9499 41.6706C21.7399 41.6006 21.5599 41.6606 21.4299 41.8306L21.2699 42.0406L20.9199 41.7806L23.7599 38.0106L24.1099 38.2706L23.9499 38.4806C23.8199 38.6606 23.8199 38.8406 23.9499 39.0306C24.0799 39.2206 24.2899 39.4206 24.5699 39.6306L28.4299 42.5406H28.4099Z" fill="white"/>
<path d="M36.9808 32.9297L37.0208 32.8997L35.6308 27.2997L35.5508 27.2097C35.4508 27.0897 35.3008 26.9997 35.1208 26.9197C34.9408 26.8497 34.7708 26.8697 34.6308 26.9997L34.4408 27.1697L34.1508 26.8397L37.7008 23.7297L37.9908 24.0597L37.8008 24.2297C37.6308 24.3797 37.5908 24.5597 37.6808 24.7697C37.7708 24.9797 37.9308 25.2197 38.1608 25.4797L42.3208 30.2197C42.5508 30.4797 42.7708 30.6697 42.9708 30.7897C43.1708 30.9097 43.3508 30.8897 43.5208 30.7397L43.7108 30.5697L44.0008 30.8997L40.4508 34.0097L40.1608 33.6797L40.3508 33.5097C40.5208 33.3597 40.5608 33.1797 40.4708 32.9697C40.3808 32.7597 40.2208 32.5197 39.9908 32.2597L36.8108 28.6297L36.7708 28.6697L38.1608 34.2597L38.2508 34.3597C38.3908 34.5197 38.5508 34.6197 38.7308 34.6497C38.9108 34.6897 39.0508 34.6497 39.1608 34.5597L39.3508 34.3897L39.6408 34.7197L36.0908 37.8297L35.8008 37.4997L35.9908 37.3297C36.1608 37.1797 36.2008 37.0097 36.1208 36.7997C36.0408 36.5897 35.8708 36.3497 35.6308 36.0797L31.4708 31.3397C31.2308 31.0697 31.0108 30.8697 30.8208 30.7597C30.6308 30.6497 30.4508 30.6697 30.2808 30.8097L30.0908 30.9797L29.8008 30.6497L33.3508 27.5397L33.6408 27.8697L33.4508 28.0397C33.2808 28.1897 33.2408 28.3697 33.3308 28.5797C33.4208 28.7897 33.5808 29.0297 33.8108 29.2897L37.0008 32.9297H36.9808ZM33.3808 26.7797C32.6308 27.4397 32.0008 27.8197 31.5108 27.8997C31.0208 27.9897 30.6608 27.8997 30.4308 27.6397C30.2708 27.4497 30.2008 27.2397 30.2308 26.9897C30.2608 26.7397 30.4008 26.5097 30.6508 26.2897C30.9008 26.0697 31.1508 25.9597 31.3808 25.9597C31.6108 25.9597 31.7908 26.0297 31.9208 26.1797L32.0508 26.3897C32.0908 26.4897 32.1308 26.5597 32.1708 26.6097C32.2408 26.6897 32.3408 26.7097 32.4908 26.6797C32.6408 26.6497 32.8208 26.5497 33.0208 26.3697C33.2208 26.1897 33.3408 26.0297 33.3908 25.8897C33.4408 25.7497 33.4308 25.6397 33.3608 25.5597L33.1608 25.4097L32.9708 25.2497C32.8508 25.1097 32.8008 24.9197 32.8308 24.6897C32.8608 24.4597 33.0008 24.2297 33.2508 24.0097C33.5008 23.7897 33.7508 23.6797 34.0008 23.6797C34.2508 23.6797 34.4508 23.7797 34.6208 23.9697C34.8708 24.2497 34.9008 24.6397 34.7008 25.1297C34.5108 25.6197 34.0708 26.1697 33.3708 26.7797H33.3808Z" fill="white"/>
<path d="M46.1309 18.1981L49.9109 16.5881L54.4609 21.0181L54.6909 14.5581L58.1709 13.0781L58.3409 13.4781L58.1509 13.5581C57.9909 13.6281 57.8809 13.7281 57.8409 13.8581C57.8009 13.9881 57.8009 14.1281 57.8409 14.2981C57.8809 14.4581 57.9609 14.6581 58.0509 14.8881L60.5209 20.6981C60.6209 20.9281 60.7109 21.1181 60.8009 21.2581C60.8909 21.3981 60.9909 21.5081 61.1109 21.5581C61.2309 21.6181 61.3709 21.6081 61.5309 21.5481L61.7309 21.4581L61.9009 21.8681L57.3609 23.7981L57.1909 23.3981L57.3209 23.3381C57.8609 23.1081 57.9709 22.6281 57.6509 21.8881L55.5309 16.8881L55.4809 16.9081L55.2409 24.6981L54.3209 25.0881L48.7709 19.7581L48.7209 19.7781L50.6409 24.2981C50.8009 24.6781 50.9509 24.9681 51.0709 25.1681C51.2009 25.3681 51.3509 25.4981 51.5209 25.5781C51.6909 25.6581 51.9009 25.6381 52.1409 25.5381L52.2609 25.4881L52.4309 25.8881L49.8609 26.9781L49.6909 26.5681L49.8909 26.4781C50.1309 26.3781 50.2409 26.2281 50.2309 26.0181C50.2209 25.8181 50.1309 25.5281 49.9809 25.1581L47.5109 19.3481C47.3509 18.9781 47.2009 18.7181 47.0609 18.5681C46.9209 18.4181 46.7309 18.3981 46.4909 18.4981L46.3009 18.5781L46.1309 18.1781V18.1981Z" fill="white"/>
<path d="M68.9102 20.8516C67.7402 21.0516 66.7102 20.9916 65.8102 20.6616C64.9202 20.3316 64.2102 19.8216 63.6802 19.1316C63.1602 18.4416 62.8202 17.6816 62.6802 16.8416C62.5702 16.2216 62.5702 15.6016 62.6802 14.9716C62.7902 14.3416 63.0302 13.7516 63.3902 13.2016C63.7602 12.6516 64.2502 12.1816 64.8802 11.7916C65.5102 11.4016 66.2702 11.1216 67.1802 10.9716C68.0902 10.8116 68.9102 10.8116 69.6402 10.9716C70.3702 11.1316 70.9902 11.4016 71.5202 11.8016C72.0402 12.1916 72.4602 12.6716 72.7702 13.2216C73.0802 13.7716 73.2902 14.3616 73.4002 15.0016C73.5502 15.8516 73.5002 16.6916 73.2402 17.5116C72.9902 18.3316 72.5002 19.0516 71.7702 19.6616C71.0502 20.2716 70.0902 20.6816 68.9002 20.8916L68.9102 20.8516ZM68.7602 19.9916C69.1302 19.9316 69.4202 19.7416 69.6302 19.4416C69.8402 19.1416 69.9802 18.7716 70.0502 18.3416C70.1202 17.9116 70.1502 17.4516 70.1302 16.9716C70.1102 16.4816 70.0602 16.0216 69.9802 15.5716C69.9002 15.1216 69.7902 14.6616 69.6402 14.1916C69.4902 13.7216 69.3102 13.3016 69.1002 12.9316C68.8902 12.5616 68.6302 12.2716 68.3302 12.0516C68.0302 11.8316 67.6902 11.7616 67.3302 11.8216C66.9702 11.8816 66.6802 12.0716 66.4702 12.3716C66.2602 12.6716 66.1202 13.0416 66.0402 13.4816C65.9602 13.9216 65.9302 14.3716 65.9502 14.8516C65.9702 15.3316 66.0202 15.7916 66.1002 16.2416C66.1802 16.6916 66.2902 17.1416 66.4302 17.5916C66.5702 18.0416 66.7502 18.4616 66.9802 18.8616C67.2002 19.2516 67.4602 19.5616 67.7602 19.7716C68.0602 19.9816 68.3902 20.0616 68.7602 19.9916Z" fill="white"/>
<path d="M76.3398 10.1116L82.1398 10.2616C83.0398 10.2816 83.8298 10.4616 84.5198 10.7916C85.2098 11.1216 85.5398 11.8316 85.5098 12.9016C85.4998 13.3916 85.3798 13.8416 85.1398 14.2216C84.9098 14.6116 84.4798 14.9216 83.8699 15.1716C83.2499 15.4116 82.3999 15.5216 81.2999 15.4916C80.9099 15.4916 80.5199 15.4616 80.1199 15.4216L80.0499 18.1216C80.0499 18.4816 80.0598 18.7416 80.1098 18.9116C80.1598 19.0816 80.2298 19.1916 80.3198 19.2416C80.4098 19.2916 80.5198 19.3216 80.6698 19.3216H80.9998L80.9898 19.7716L76.0898 19.6516V19.2116H76.3198C76.5598 19.2116 76.7199 19.1216 76.7999 18.9216C76.8799 18.7216 76.9298 18.4316 76.9398 18.0516L77.0998 11.7516C77.0998 11.3716 77.0798 11.0816 77.0098 10.8716C76.9398 10.6616 76.7898 10.5616 76.5598 10.5516H76.3298L76.3398 10.1016V10.1116ZM80.2299 11.0816L80.1398 14.5716C80.2398 14.5916 80.3898 14.6016 80.5798 14.6116C81.3098 14.6316 81.7898 14.4416 82.0298 14.0616C82.2598 13.6716 82.3898 13.2716 82.3998 12.8316C82.4098 12.3216 82.3098 11.9316 82.0998 11.6816C81.8898 11.4316 81.6598 11.2716 81.3998 11.2016C81.1498 11.1316 80.8898 11.1016 80.6298 11.0916H80.2198L80.2299 11.0816Z" fill="white"/>
<path d="M97.49 12.3888L96.82 15.5688L96.34 15.4688C96.36 15.0988 96.33 14.7088 96.23 14.2988C96.14 13.8888 95.97 13.5388 95.73 13.2288C95.49 12.9188 95.16 12.7288 94.75 12.6388C94.36 12.5588 93.96 12.5688 93.55 12.6888C93.14 12.8088 92.74 13.1388 92.35 13.6788C91.96 14.2188 91.65 15.0388 91.42 16.1288C91.21 17.1288 91.19 17.9488 91.35 18.5888C91.51 19.2288 91.76 19.6988 92.11 19.9888C92.46 20.2788 92.83 20.4688 93.24 20.5588C93.59 20.6288 93.98 20.6188 94.4 20.5188C94.82 20.4188 95.27 20.2088 95.76 19.8988L96.17 20.4688C94.85 21.4188 93.44 21.7388 91.93 21.4188C91.15 21.2588 90.48 20.9788 89.91 20.5788C89.34 20.1788 88.89 19.7088 88.57 19.1588C88.24 18.6088 88.03 18.0188 87.94 17.4088C87.85 16.7988 87.87 16.1788 88 15.5688C88.15 14.8388 88.42 14.1788 88.8 13.6088C89.18 13.0388 89.65 12.5688 90.21 12.2288C90.77 11.8788 91.39 11.6588 92.07 11.5488C92.75 11.4488 93.48 11.4688 94.25 11.6388C94.67 11.7288 95.02 11.8288 95.29 11.9488C95.56 12.0688 95.88 12.2388 96.25 12.4688C96.39 12.5488 96.5 12.5988 96.57 12.6188C96.7 12.6488 96.79 12.6388 96.85 12.5888C96.91 12.5388 96.96 12.4488 97 12.2988L97.49 12.3988V12.3888Z" fill="white"/>
<path d="M101.15 13.6797L105.51 15.4897L105.34 15.8997L105.1 15.7997C104.89 15.7197 104.72 15.7597 104.57 15.9297C104.42 16.0997 104.28 16.3497 104.14 16.6797L103.14 19.0797L103.22 19.1097L105.11 18.2497C105.58 18.0397 105.93 17.8497 106.16 17.6997C106.39 17.5397 106.54 17.3697 106.62 17.1697C106.7 16.9697 106.7 16.7897 106.61 16.6297C106.52 16.4697 106.33 16.3297 106.06 16.1897L106.23 15.7797L109.79 17.2597L109.62 17.6697C109.39 17.5697 109.11 17.5497 108.8 17.5897C108.48 17.6297 108.06 17.7697 107.52 18.0097L105.51 18.8897L106.22 24.0997C106.24 24.2797 106.27 24.4797 106.3 24.6797C106.33 24.8897 106.37 25.0897 106.44 25.2797C106.51 25.4697 106.62 25.6697 106.77 25.8697L106.6 26.2797L102.46 24.5597L102.63 24.1497L102.8 24.2197L102.98 24.1897L103.14 23.9997C103.18 23.8897 103.2 23.7197 103.18 23.4697L102.91 19.8997L102.83 19.8697L101.74 22.4997C101.61 22.8297 101.53 23.0997 101.51 23.3297C101.49 23.5597 101.59 23.7197 101.79 23.7997L102.03 23.8997L101.86 24.3097L97.5 22.4997L97.67 22.0897L97.91 22.1897C98.12 22.2797 98.29 22.2397 98.44 22.0697C98.59 21.8997 98.73 21.6497 98.87 21.3097L101.29 15.4897C101.43 15.1497 101.51 14.8697 101.52 14.6497C101.53 14.4297 101.44 14.2697 101.23 14.1897L100.99 14.0897L101.16 13.6797H101.15Z" fill="white"/>
<path d="M112.18 30.2082C111.2 29.5382 110.5 28.7782 110.09 27.9183C109.68 27.0582 109.53 26.1983 109.63 25.3383C109.73 24.4783 110.02 23.6982 110.5 22.9882C110.85 22.4682 111.29 22.0182 111.81 21.6482C112.33 21.2682 112.91 21.0083 113.56 20.8683C114.21 20.7283 114.89 20.7282 115.61 20.8882C116.33 21.0382 117.07 21.3782 117.83 21.8882C118.6 22.4082 119.19 22.9783 119.6 23.5983C120.01 24.2183 120.27 24.8482 120.37 25.4983C120.47 26.1483 120.44 26.7782 120.28 27.3882C120.12 27.9982 119.86 28.5783 119.5 29.1083C119.01 29.8283 118.39 30.3882 117.64 30.7982C116.89 31.2082 116.04 31.3882 115.09 31.3182C114.14 31.2582 113.17 30.8882 112.17 30.2082H112.18ZM112.67 29.4882C112.98 29.6982 113.31 29.7683 113.68 29.6983C114.04 29.6283 114.4 29.4583 114.75 29.1983C115.1 28.9383 115.44 28.6283 115.76 28.2683C116.08 27.9083 116.38 27.5382 116.63 27.1582C116.89 26.7782 117.13 26.3683 117.35 25.9283C117.57 25.4883 117.73 25.0682 117.84 24.6482C117.95 24.2382 117.96 23.8482 117.9 23.4782C117.83 23.1082 117.65 22.8283 117.34 22.6183C117.03 22.4083 116.7 22.3482 116.34 22.4182C115.98 22.4883 115.62 22.6583 115.26 22.9183C114.9 23.1783 114.56 23.4883 114.24 23.8383C113.92 24.1983 113.63 24.5583 113.37 24.9483C113.11 25.3283 112.88 25.7282 112.67 26.1482C112.46 26.5682 112.3 26.9983 112.18 27.4383C112.06 27.8783 112.04 28.2782 112.11 28.6382C112.18 28.9982 112.36 29.2882 112.67 29.4983V29.4882Z" fill="white"/>
<path d="M123.151 34.9619L123.181 35.0019L128.721 33.3619L128.811 33.2719C128.921 33.1619 129.011 33.0219 129.081 32.8319C129.151 32.6419 129.111 32.4819 128.981 32.3419L128.801 32.1519L129.121 31.8519L132.391 35.2619L132.071 35.5619L131.891 35.3719C131.741 35.2119 131.551 35.1819 131.351 35.2819C131.141 35.3819 130.911 35.5519 130.661 35.7919L126.111 40.1519C125.861 40.3919 125.681 40.6219 125.571 40.8219C125.461 41.0219 125.491 41.2119 125.641 41.3719L125.821 41.5619L125.501 41.8619L122.231 38.4519L122.551 38.1519L122.731 38.3419C122.881 38.5019 123.071 38.5319 123.271 38.4319C123.481 38.3319 123.711 38.1619 123.961 37.9219L127.441 34.5819L127.401 34.5419L121.881 36.1819L121.781 36.2719C121.631 36.4219 121.541 36.5819 121.511 36.7619C121.481 36.9419 121.511 37.0819 121.621 37.1919L121.801 37.3819L121.481 37.6819L118.211 34.2719L118.531 33.9719L118.711 34.1619C118.861 34.3219 119.041 34.3519 119.241 34.2619C119.441 34.1719 119.681 33.9919 119.941 33.7419L124.491 29.3819C124.751 29.1319 124.941 28.9019 125.041 28.7019C125.141 28.5019 125.121 28.3219 124.961 28.1619L124.781 27.9719L125.101 27.6719L128.371 31.0819L128.051 31.3819L127.871 31.1919C127.721 31.0319 127.541 31.0019 127.331 31.1019C127.121 31.2019 126.891 31.3719 126.641 31.6119L123.151 34.9619ZM129.141 31.0919C128.441 30.3619 128.041 29.7619 127.931 29.2719C127.821 28.7819 127.891 28.4219 128.141 28.1819C128.321 28.0119 128.531 27.9319 128.781 27.9619C129.031 27.9919 129.271 28.1119 129.491 28.3519C129.721 28.5919 129.851 28.8319 129.851 29.0719C129.851 29.3019 129.801 29.4819 129.661 29.6119L129.461 29.7519C129.371 29.7919 129.291 29.8419 129.251 29.8819C129.181 29.9519 129.161 30.0619 129.191 30.2119C129.231 30.3619 129.331 30.5319 129.521 30.7219C129.711 30.9119 129.871 31.0319 130.021 31.0719C130.171 31.1119 130.281 31.1019 130.351 31.0319C130.401 30.9819 130.451 30.9119 130.491 30.8219L130.641 30.6219C130.781 30.4919 130.961 30.4419 131.201 30.4619C131.441 30.4819 131.671 30.6119 131.901 30.8519C132.131 31.0919 132.251 31.3419 132.261 31.5819C132.261 31.8319 132.181 32.0419 132.001 32.2119C131.731 32.4719 131.341 32.5219 130.841 32.3519C130.341 32.1819 129.771 31.7619 129.131 31.1019L129.141 31.0919Z" fill="white"/>
<path d="M129.721 47.9289L130.111 47.7289L130.211 47.9289C130.321 48.1389 130.481 48.2389 130.701 48.2189C130.921 48.1989 131.191 48.0989 131.531 47.9289L137.161 45.0889C137.501 44.9189 137.741 44.7489 137.891 44.5889C138.041 44.4289 138.061 44.2389 137.951 44.0289L137.851 43.8289L138.251 43.6289L142.821 52.7089L142.421 52.9089L142.341 52.7489C142.251 52.5589 142.111 52.4589 141.931 52.4289C141.751 52.3989 141.441 52.4989 141.011 52.7189L135.381 55.5589C134.931 55.7789 134.681 55.9789 134.601 56.1489C134.521 56.3189 134.541 56.5189 134.651 56.7289L134.691 56.8089L134.301 57.0089L132.181 52.7889L132.571 52.5889L132.661 52.7789C132.761 52.9789 132.921 53.0789 133.121 53.0689C133.331 53.0689 133.621 52.9689 133.981 52.7789L140.281 49.6089L139.231 47.5189L132.931 50.6889C132.701 50.7989 132.521 50.9089 132.391 51.0089C132.261 51.1089 132.161 51.2189 132.111 51.3389C132.061 51.4589 132.071 51.5889 132.141 51.7389L132.251 51.9489L131.861 52.1489L129.741 47.9289H129.721Z" fill="white"/>
<path d="M136.09 64.0605C135.79 62.9105 135.77 61.8805 136.02 60.9605C136.28 60.0405 136.73 59.2905 137.37 58.7105C138.01 58.1305 138.75 57.7305 139.57 57.5105C140.18 57.3505 140.8 57.3005 141.44 57.3605C142.08 57.4205 142.69 57.6005 143.27 57.9205C143.85 58.2405 144.36 58.6905 144.81 59.2805C145.26 59.8705 145.59 60.6105 145.83 61.5005C146.06 62.4005 146.13 63.2105 146.04 63.9505C145.94 64.6905 145.72 65.3405 145.37 65.8905C145.02 66.4405 144.59 66.9005 144.06 67.2605C143.54 67.6205 142.96 67.8805 142.34 68.0405C141.5 68.2605 140.66 68.2805 139.82 68.0905C138.98 67.9005 138.23 67.4805 137.55 66.8105C136.88 66.1405 136.39 65.2205 136.08 64.0605H136.09ZM136.94 63.8405C137.03 64.2005 137.24 64.4705 137.56 64.6605C137.88 64.8405 138.26 64.9505 138.69 64.9905C139.12 65.0305 139.58 65.0105 140.07 64.9505C140.55 64.8905 141.02 64.8005 141.46 64.6905C141.91 64.5705 142.35 64.4205 142.81 64.2405C143.26 64.0505 143.67 63.8405 144.02 63.6005C144.37 63.3605 144.64 63.0805 144.83 62.7605C145.02 62.4405 145.07 62.1005 144.98 61.7405C144.89 61.3805 144.68 61.1105 144.36 60.9305C144.04 60.7505 143.66 60.6305 143.22 60.5905C142.78 60.5505 142.32 60.5605 141.85 60.6205C141.38 60.6805 140.92 60.7705 140.47 60.8805C140.03 61.0005 139.59 61.1405 139.15 61.3205C138.71 61.5005 138.31 61.7205 137.93 61.9705C137.56 62.2205 137.27 62.5105 137.09 62.8305C136.9 63.1405 136.86 63.4805 136.95 63.8405H136.94Z" fill="white"/>
<path d="M147.441 70.5703L147.771 76.3703C147.821 77.2603 147.711 78.0703 147.431 78.7803C147.151 79.4903 146.481 79.8803 145.401 79.9403C144.911 79.9703 144.461 79.8803 144.051 79.6803C143.641 79.4803 143.291 79.0803 143.001 78.4903C142.711 77.8903 142.531 77.0503 142.461 75.9603C142.441 75.5703 142.431 75.1803 142.431 74.7803L139.731 74.9403C139.371 74.9603 139.111 75.0003 138.951 75.0703C138.791 75.1403 138.681 75.2103 138.641 75.3103C138.601 75.4003 138.581 75.5203 138.591 75.6603L138.611 75.9903L138.171 76.0203L137.891 71.1303L138.331 71.1003V71.3203C138.361 71.5603 138.471 71.7103 138.671 71.7803C138.871 71.8503 139.171 71.8703 139.551 71.8503L145.841 71.4903C146.221 71.4703 146.511 71.4103 146.711 71.3203C146.911 71.2303 147.001 71.0703 146.991 70.8403V70.6103L147.421 70.5803L147.441 70.5703ZM146.791 74.5303L143.301 74.7303C143.291 74.8303 143.291 74.9803 143.301 75.1803C143.341 75.9103 143.571 76.3803 143.971 76.5803C144.371 76.7803 144.791 76.8703 145.231 76.8503C145.741 76.8203 146.121 76.6903 146.351 76.4603C146.581 76.2303 146.721 75.9903 146.771 75.7303C146.811 75.4703 146.831 75.2103 146.821 74.9503L146.791 74.5403V74.5303Z" fill="white"/>
<path d="M138.139 83.5114L138.579 83.5614L138.539 83.9214C138.509 84.1914 138.579 84.3714 138.769 84.4714C138.949 84.5614 139.239 84.6314 139.639 84.6814L146.649 85.5014L146.669 85.3314C146.719 84.9214 146.669 84.5514 146.549 84.2314C146.419 83.9014 146.229 83.6314 145.969 83.4114C145.709 83.1914 145.429 83.0314 145.099 82.9414L145.159 82.4414L147.829 82.8714L146.829 91.4414L144.129 91.2514L144.189 90.7514C144.719 90.7114 145.179 90.5314 145.569 90.1914C145.959 89.8514 146.189 89.3814 146.259 88.7814L146.279 88.6014L139.269 87.7814C138.969 87.7514 138.739 87.7314 138.569 87.7514C138.409 87.7614 138.279 87.8114 138.189 87.9014C138.099 87.9914 138.039 88.1214 138.019 88.3114L137.979 88.6314L137.539 88.5814L138.129 83.5314L138.139 83.5114Z" fill="white"/>
<path d="M24.1497 104.649L26.6997 109.079L26.3197 109.299C26.2397 109.159 26.1397 109.069 26.0097 109.029C25.8897 108.989 25.7597 109.009 25.6197 109.089C25.5097 109.149 25.3497 109.339 25.1297 109.659L23.3197 112.279L23.3497 112.319L25.8397 112.209C26.3197 112.169 26.6697 112.089 26.8897 111.959C27.0997 111.839 27.2297 111.659 27.2797 111.419C27.3297 111.179 27.2797 110.939 27.1297 110.679L27.5097 110.459L29.2397 113.469L28.8597 113.689C28.6697 113.489 28.4497 113.349 28.2097 113.289C27.9697 113.229 27.6597 113.199 27.2997 113.209L22.3197 113.409L20.6297 114.389C20.2997 114.579 20.0697 114.749 19.9297 114.919C19.7897 115.079 19.7797 115.279 19.9197 115.509L20.0397 115.709L19.6597 115.929L17.1797 111.629L17.5597 111.409L17.6597 111.589C17.7997 111.829 17.9697 111.929 18.1797 111.909C18.3897 111.879 18.6597 111.769 19.0097 111.559L20.8297 110.509L23.4397 106.329C23.6697 105.959 23.8097 105.669 23.8497 105.449C23.8897 105.229 23.8697 105.029 23.7897 104.849L24.1697 104.629L24.1497 104.649Z" fill="white"/>
<path d="M30.2009 114.66L35.1109 120.49L33.2109 122.27L32.8909 121.89C33.3309 121.39 33.4809 120.87 33.3509 120.33C33.2209 119.79 32.9709 119.3 32.6009 118.87L32.1809 118.37L29.6109 120.53C29.8309 120.79 30.0509 120.95 30.2809 121.02C30.5109 121.09 30.7409 121.08 30.9809 121C31.2209 120.92 31.4809 120.77 31.7609 120.56L32.0909 120.96L28.9509 123.6L28.6109 123.2C28.9909 122.84 29.2209 122.49 29.3009 122.15C29.3809 121.81 29.2609 121.45 28.9509 121.08L26.8309 122.86C26.5409 123.1 26.4009 123.31 26.4009 123.48C26.4009 123.65 26.4809 123.83 26.6409 124.02C26.9109 124.34 27.2409 124.61 27.6209 124.83C28.0009 125.05 28.4009 125.18 28.8109 125.23C29.2309 125.28 29.6409 125.23 30.0409 125.07L30.2509 125.6L27.8809 126.75L22.8809 120.81L23.2209 120.53L23.3909 120.74C23.5409 120.92 23.7209 120.97 23.9309 120.89C24.1409 120.81 24.3909 120.66 24.6709 120.42L29.5009 116.36C29.7809 116.13 29.9709 115.91 30.0909 115.72C30.2009 115.52 30.1809 115.34 30.0309 115.16L29.8609 114.95L30.2009 114.66Z" fill="white"/>
<path d="M30.5293 129.339L30.8193 129.009L30.9893 129.159C31.1893 129.339 31.3893 129.379 31.5693 129.279C31.7593 129.179 31.9793 128.979 32.2393 128.689L36.4493 123.999C36.7093 123.709 36.8793 123.469 36.9593 123.269C37.0393 123.079 36.9793 122.889 36.7793 122.709L36.6093 122.549L36.8993 122.219L40.5893 125.539L40.2993 125.869L40.1493 125.729C40.0093 125.599 39.8693 125.539 39.7293 125.549C39.5893 125.559 39.4593 125.619 39.3293 125.729C39.1993 125.839 39.0493 125.989 38.8793 126.169L34.6693 130.859C34.4993 131.049 34.3693 131.209 34.2793 131.349C34.1893 131.489 34.1393 131.629 34.1393 131.769C34.1393 131.909 34.2193 132.039 34.3593 132.169L34.5093 132.309L34.2193 132.639L30.5293 129.319V129.339Z" fill="white"/>
<path d="M47.0791 133.911L46.6391 133.621C46.8791 133.031 46.9691 132.401 46.8891 131.731C46.8191 131.061 46.4091 130.481 45.6691 129.991C45.3391 129.771 44.9891 129.641 44.6391 129.611C44.2891 129.581 44.0191 129.701 43.8491 129.961C43.6991 130.191 43.6491 130.441 43.7091 130.711C43.7691 130.981 43.8891 131.261 44.0791 131.531C44.2691 131.811 44.5091 132.131 44.8091 132.501C45.1091 132.871 45.3291 133.161 45.4591 133.351C46.3991 134.741 46.4691 136.031 45.6791 137.221C45.2491 137.871 44.7391 138.271 44.1291 138.441C43.5291 138.601 42.9191 138.601 42.3191 138.431C41.7191 138.261 41.1591 138.001 40.6591 137.671C40.1191 137.311 39.5991 136.831 39.0991 136.211C38.9291 135.991 38.7891 135.811 38.6791 135.671C38.5691 135.531 38.4591 135.431 38.3491 135.361C38.1891 135.261 38.0491 135.221 37.9091 135.271C37.7691 135.311 37.6591 135.401 37.5691 135.541L37.1191 135.241L39.1091 132.231L39.5591 132.531C39.3591 133.041 39.3091 133.591 39.3891 134.181C39.4791 134.771 39.6691 135.311 39.9691 135.811C40.2691 136.311 40.6091 136.691 41.0091 136.951C41.3391 137.171 41.6891 137.271 42.0491 137.241C42.4191 137.221 42.7191 137.031 42.9591 136.661C43.1191 136.421 43.1691 136.191 43.1291 135.951C43.0891 135.711 42.9891 135.491 42.8391 135.281C42.6891 135.071 42.3591 134.631 41.8391 133.951C41.4191 133.421 41.0791 132.921 40.8091 132.451C40.5491 131.981 40.3991 131.481 40.3591 130.951C40.3291 130.421 40.4791 129.891 40.8291 129.371C41.1691 128.861 41.5991 128.511 42.1391 128.311C42.6791 128.111 43.2791 128.091 43.9391 128.231C44.5991 128.371 45.2791 128.671 45.9591 129.121C46.4191 129.431 46.8191 129.821 47.1591 130.311C47.2691 130.471 47.3491 130.591 47.4191 130.691C47.4891 130.791 47.5391 130.861 47.5891 130.911L47.7491 131.061C47.8591 131.131 47.9691 131.161 48.0791 131.151C48.1991 131.141 48.2891 131.081 48.3591 130.971L48.4291 130.861L48.8691 131.151L47.0491 133.901L47.0791 133.911Z" fill="white"/>
<path d="M47.9905 141.772L48.1605 141.362L48.3605 141.442C48.5805 141.532 48.7705 141.512 48.9305 141.372C49.0905 141.232 49.2405 140.972 49.4005 140.592L51.8005 134.752C51.9705 134.342 52.0405 134.042 52.0105 133.842C51.9805 133.642 51.8605 133.502 51.6505 133.412L51.4605 133.332L51.6305 132.922L56.2205 134.802L56.0505 135.212L55.8405 135.122C55.6805 135.052 55.5405 135.052 55.4205 135.112C55.3005 135.172 55.1905 135.272 55.1005 135.412C55.0105 135.552 54.9105 135.742 54.8205 135.982L53.8305 138.392L53.9105 138.432L55.9005 137.602C56.4105 137.392 56.7805 137.202 57.0005 137.042C57.2305 136.882 57.3705 136.712 57.4505 136.532C57.5305 136.332 57.5205 136.152 57.4205 135.992C57.3205 135.832 57.1205 135.682 56.8305 135.542L57.0005 135.132L60.7505 136.672L60.5805 137.082C60.4205 137.022 60.2505 136.982 60.0605 136.972C59.8705 136.962 59.6505 136.992 59.3805 137.052C59.1205 137.122 58.7805 137.232 58.3805 137.392L56.3105 138.252L57.1605 143.512C57.1605 143.512 57.1805 143.652 57.2105 143.852C57.2405 144.052 57.2705 144.232 57.3205 144.402C57.3605 144.562 57.4205 144.722 57.4905 144.862C57.5605 145.012 57.6505 145.152 57.7705 145.302L57.6005 145.712L53.2505 143.922L53.4205 143.512L53.5505 143.562H53.7805C53.8505 143.532 53.9105 143.472 53.9505 143.362L53.9905 143.192V142.992L53.9805 142.822L53.5805 139.202L53.4905 139.172L52.4105 141.802C52.2505 142.182 52.1805 142.472 52.1905 142.682C52.2005 142.892 52.3205 143.042 52.5405 143.132L52.7405 143.212L52.5705 143.622L47.9805 141.742L47.9905 141.772Z" fill="white"/>
<path d="M77.3009 142.482L76.7709 142.442C76.7009 141.812 76.4709 141.222 76.0909 140.662C75.7109 140.112 75.0709 139.792 74.1809 139.722C73.7809 139.692 73.4209 139.742 73.1009 139.882C72.7809 140.022 72.6009 140.252 72.5809 140.572C72.5609 140.842 72.6409 141.082 72.8209 141.292C73.0009 141.502 73.2409 141.682 73.5409 141.832C73.8409 141.982 74.2009 142.152 74.6509 142.332C75.0909 142.512 75.4209 142.662 75.6309 142.772C77.1209 143.542 77.8009 144.642 77.6809 146.062C77.6209 146.832 77.3609 147.432 76.9109 147.872C76.4609 148.312 75.9309 148.592 75.3209 148.732C74.7109 148.872 74.1009 148.912 73.4909 148.862C72.8409 148.812 72.1509 148.632 71.4209 148.332C71.1609 148.222 70.9609 148.132 70.7909 148.062C70.6309 147.992 70.4809 147.952 70.3509 147.942C70.1609 147.922 70.0209 147.972 69.9209 148.072C69.8209 148.172 69.7609 148.302 69.7509 148.472L69.2109 148.422L69.5109 144.832L70.0509 144.882C70.1209 145.422 70.3409 145.932 70.7009 146.402C71.0609 146.872 71.4909 147.262 71.9909 147.552C72.4909 147.842 72.9809 148.012 73.4509 148.052C73.8409 148.082 74.2009 148.002 74.5109 147.812C74.8209 147.622 74.9909 147.302 75.0309 146.872C75.0509 146.592 74.9909 146.352 74.8309 146.162C74.6809 145.972 74.4809 145.822 74.2509 145.712C74.0209 145.602 73.5209 145.372 72.7309 145.032C72.1109 144.772 71.5709 144.492 71.1109 144.202C70.6509 143.912 70.2809 143.552 70.0009 143.102C69.7209 142.652 69.6009 142.122 69.6609 141.492C69.7109 140.882 69.9309 140.362 70.3009 139.932C70.6809 139.502 71.1909 139.192 71.8409 138.992C72.4909 138.792 73.2209 138.732 74.0409 138.802C74.5909 138.852 75.1309 139.002 75.6709 139.272C75.8409 139.362 75.9809 139.432 76.0809 139.482C76.1809 139.532 76.2709 139.572 76.3309 139.602L76.5409 139.652C76.6709 139.662 76.7809 139.632 76.8709 139.572C76.9709 139.502 77.0209 139.402 77.0309 139.272V139.142L77.5709 139.182L77.2909 142.472L77.3009 142.482Z" fill="white"/>
<path d="M80.6799 139.391L88.2699 138.691L88.6499 141.271L88.1499 141.321C87.9899 140.681 87.6499 140.251 87.1299 140.051C86.5999 139.851 86.0599 139.771 85.4999 139.831L84.8599 139.891L85.1699 143.241C85.5099 143.211 85.7699 143.121 85.9599 142.971C86.1499 142.821 86.2699 142.631 86.3399 142.391C86.4099 142.151 86.4299 141.851 86.4199 141.501L86.9399 141.451L87.3199 145.531L86.7999 145.581C86.7199 145.071 86.5699 144.681 86.3299 144.421C86.0999 144.161 85.7399 144.051 85.2499 144.101L85.4999 146.861C85.5399 147.231 85.6199 147.471 85.7599 147.561C85.8999 147.661 86.0999 147.691 86.3399 147.671C86.7599 147.631 87.1699 147.521 87.5599 147.331C87.9499 147.141 88.2899 146.891 88.5699 146.581C88.8499 146.271 89.0399 145.901 89.1399 145.481L89.6899 145.601L89.2799 148.201L81.5499 148.911L81.5099 148.471L81.7799 148.441C82.0099 148.421 82.1599 148.301 82.2099 148.081C82.2699 147.861 82.2799 147.571 82.2499 147.211L81.6699 140.931C81.6399 140.571 81.5699 140.281 81.4699 140.081C81.3699 139.881 81.2099 139.791 80.9799 139.811L80.7099 139.841L80.6699 139.401L80.6799 139.391Z" fill="white"/>
<path d="M97.2497 143.291L94.8797 143.941L94.8197 144.781C94.7897 145.161 94.8097 145.461 94.8697 145.691C94.9397 145.951 95.0697 146.141 95.2697 146.261C95.4597 146.381 95.6697 146.411 95.8997 146.351L96.0197 146.771L92.7997 147.651L92.6797 147.231C92.9297 147.141 93.1397 146.951 93.2997 146.671C93.4697 146.381 93.5897 145.911 93.6497 145.251L94.4697 137.031L96.2697 136.531L101.56 143.911C101.7 144.101 101.82 144.231 101.92 144.321C102.02 144.401 102.12 144.461 102.22 144.491C102.32 144.521 102.43 144.531 102.54 144.521L102.66 144.941L98.2797 146.141L98.1597 145.721C98.4797 145.631 98.6097 145.461 98.5297 145.191C98.4997 145.081 98.4197 144.941 98.2997 144.761L97.2597 143.271L97.2497 143.291ZM96.7297 142.521L95.1397 140.231L94.9397 143.021L96.7297 142.531V142.521Z" fill="white"/>
<path d="M101.5 135.161L106.97 132.471C107.81 132.051 108.63 131.831 109.43 131.791C110.23 131.751 110.86 132.221 111.34 133.181C111.56 133.621 111.65 134.071 111.61 134.531C111.57 134.991 111.33 135.471 110.87 135.991C110.41 136.511 109.66 137.021 108.63 137.531C108.26 137.711 107.89 137.881 107.5 138.041L108.69 140.461C108.85 140.781 108.99 141.001 109.12 141.131C109.25 141.261 109.36 141.321 109.47 141.321C109.58 141.321 109.69 141.291 109.83 141.221L110.14 141.071L110.33 141.461L105.72 143.731L105.52 143.331L105.73 143.231C105.95 143.121 106.06 142.961 106.04 142.741C106.02 142.521 105.93 142.241 105.76 141.901L102.98 136.241C102.81 135.901 102.65 135.651 102.48 135.511C102.32 135.361 102.13 135.341 101.91 135.451L101.69 135.561L101.49 135.161H101.5ZM105.57 134.131L107.11 137.261C107.21 137.231 107.36 137.171 107.54 137.081C108.23 136.741 108.59 136.341 108.63 135.891C108.67 135.431 108.59 135.011 108.4 134.621C108.17 134.161 107.9 133.871 107.59 133.751C107.28 133.631 106.99 133.601 106.72 133.671C106.45 133.731 106.2 133.831 105.95 133.951L105.57 134.141V134.131Z" fill="white"/>
<path d="M122.8 133.8C121.82 134.58 120.85 135.05 119.87 135.21C118.89 135.37 118 135.28 117.2 134.94C116.39 134.6 115.73 134.09 115.19 133.42C114.8 132.93 114.5 132.38 114.31 131.76C114.11 131.15 114.05 130.5 114.13 129.83C114.2 129.16 114.43 128.49 114.82 127.82C115.21 127.15 115.78 126.52 116.54 125.92C117.3 125.32 118.05 124.9 118.79 124.67C119.53 124.44 120.24 124.36 120.9 124.45C121.56 124.53 122.17 124.74 122.71 125.07C123.26 125.4 123.73 125.81 124.13 126.32C124.67 127 125.02 127.77 125.17 128.62C125.32 129.47 125.21 130.36 124.84 131.27C124.47 132.18 123.78 133.03 122.79 133.82L122.8 133.8ZM122.26 133.12C122.57 132.88 122.74 132.57 122.8 132.19C122.85 131.81 122.8 131.42 122.67 131C122.53 130.59 122.34 130.17 122.09 129.75C121.84 129.33 121.58 128.94 121.29 128.58C121 128.22 120.68 127.87 120.33 127.53C119.97 127.19 119.61 126.91 119.24 126.69C118.87 126.47 118.5 126.34 118.12 126.3C117.74 126.26 117.4 126.36 117.09 126.61C116.79 126.85 116.61 127.16 116.56 127.53C116.51 127.91 116.56 128.31 116.69 128.73C116.83 129.15 117.01 129.57 117.26 129.98C117.5 130.39 117.77 130.78 118.05 131.14C118.33 131.5 118.65 131.84 118.99 132.16C119.33 132.49 119.7 132.77 120.09 133C120.48 133.24 120.86 133.37 121.23 133.41C121.6 133.45 121.94 133.34 122.25 133.1L122.26 133.12Z" fill="white"/>
<path d="M122.9 120.691L126.61 116.151C127.1 115.551 127.57 115.111 128.03 114.841C128.49 114.571 128.89 114.421 129.25 114.411C129.61 114.391 129.91 114.441 130.16 114.541C130.41 114.641 130.63 114.771 130.8 114.911C131.22 115.251 131.48 115.701 131.58 116.261C131.69 116.821 131.56 117.441 131.2 118.121L135.48 118.741C135.91 118.801 136.22 118.741 136.42 118.541L136.76 118.821L134.53 121.551L129.55 120.741L129.52 120.781L131.65 122.521C131.85 122.681 132.02 122.801 132.17 122.881C132.32 122.961 132.46 123.001 132.59 122.991C132.72 122.991 132.84 122.911 132.95 122.781L133.1 122.601L133.44 122.881L130.3 126.731L129.96 126.451L130.1 126.281C130.25 126.101 130.28 125.911 130.19 125.721C130.1 125.531 129.9 125.301 129.58 125.051L124.7 121.061C124.38 120.801 124.12 120.651 123.92 120.601C123.71 120.551 123.54 120.621 123.39 120.801L123.25 120.971L122.91 120.691H122.9ZM126.18 118.061L128.85 120.231C129.2 119.811 129.42 119.351 129.51 118.851C129.61 118.361 129.37 117.881 128.82 117.431C127.97 116.741 127.09 116.951 126.19 118.061H126.18Z" fill="white"/>
<path d="M139.36 114.46L138.97 114.25L139.15 113.92C139.29 113.67 139.29 113.47 139.15 113.3C139.02 113.14 138.78 112.97 138.42 112.77L132.22 109.4L132.13 109.56C131.92 109.94 131.82 110.31 131.81 110.68C131.8 111.05 131.87 111.38 132.02 111.69C132.17 112 132.38 112.26 132.64 112.47L132.39 112.93L130.07 111.54L134.39 103.57L136.83 104.75L136.58 105.21C136.07 105.05 135.57 105.06 135.07 105.25C134.57 105.44 134.17 105.81 133.87 106.37L133.78 106.54L139.98 109.91C140.25 110.05 140.46 110.15 140.61 110.2C140.77 110.25 140.91 110.25 141.03 110.2C141.15 110.15 141.26 110.04 141.35 109.87L141.51 109.57L141.9 109.78L139.35 114.47L139.36 114.46Z" fill="white"/>
</svg>
