<svg width="272" height="99" viewBox="0 0 272 99" fill="none" xmlns="http://www.w3.org/2000/svg">
<g clip-path="url(#clip0_1301_67223)">
<path d="M271.39 0H0V98.84H271.39V0Z" fill="black"/>
<path d="M35.4397 31.7827C35.4397 31.7827 35.4397 31.7627 35.4397 31.7227L59.8897 31.7427L59.8597 41.8727H36.9197C35.9597 38.4627 35.4397 35.0627 35.4297 31.7927" fill="#D67C1C"/>
<path d="M43.3401 55.883C41.2201 52.513 39.4001 49.123 38.0801 45.543H63.4401V55.873C63.4401 55.873 55.6101 55.783 43.3401 55.883Z" fill="#D67C1C"/>
<path d="M64.9905 74.6014C64.6205 74.8014 64.1905 74.9114 63.7505 74.9114C63.3105 74.9114 62.8805 74.8014 62.5105 74.6014C58.0905 72.2114 53.9306 68.8314 50.3106 64.9914C50.1706 64.7914 50.0905 64.6014 50.1605 64.4614C50.3105 64.1414 50.8706 64.2014 51.6306 64.1914H77.0506C77.2306 64.2414 77.3605 64.3014 77.4205 64.4314C77.4905 64.5514 77.4105 64.7414 77.2705 64.9414C73.6205 68.8414 69.4706 72.1814 64.9806 74.6014" fill="#D67C1C"/>
<path d="M84.189 55.9719C83.589 56.9219 82.959 57.8519 82.309 58.7719C82.239 58.8619 82.179 58.9519 82.119 59.0419C81.919 59.3219 81.719 59.5919 81.509 59.8719C81.419 59.9719 81.339 60.0219 81.269 60.0019C81.199 59.9719 81.159 59.8819 81.149 59.7419V58.9919C81.149 58.8719 81.149 58.7419 81.149 58.6119L81.179 46.5419L77.939 45.3819L77.879 34.1719L62.339 28.0619H41.439C41.349 28.0419 41.289 28.0119 41.289 27.9819C41.279 27.9319 41.309 27.8819 41.369 27.8319C43.689 26.9519 46.259 26.2119 48.979 25.6019C53.839 24.5319 59.049 23.9319 63.759 23.9219C68.459 23.9219 73.679 24.5219 78.539 25.6019C83.419 26.6919 87.849 28.1919 91.149 30.2419C91.769 30.6419 92.079 31.2319 92.069 31.7819C92.059 39.6619 89.049 48.2419 84.189 55.9619" fill="#D67C1C"/>
<path d="M123.54 53.5433H105.78V50.1333H123.45C124.39 50.1333 125.15 50.9033 125.15 51.8433C125.15 52.7833 124.44 53.4833 123.54 53.5433ZM105.78 44.3733C105.78 44.3733 123.35 44.3733 123.36 44.3733C124.26 44.3733 124.99 45.1033 124.99 46.0033C124.99 46.9033 124.29 47.5933 123.42 47.6233H105.78V44.3733ZM126.08 48.6633C127.07 47.9933 127.72 46.8633 127.72 45.5833C127.72 43.5333 126.06 41.8633 124 41.8633C123.98 41.8633 103.02 41.8633 103.02 41.8633V56.0433H124.32C124.32 56.0433 124.34 56.0433 124.35 56.0433C126.5 56.0433 128.24 54.3033 128.24 52.1433C128.24 50.6133 127.36 49.2933 126.07 48.6533" fill="white"/>
<path d="M133.41 44.3537H150.42C151.5 44.3837 152.36 45.2537 152.36 46.3438C152.36 47.4338 151.48 48.3238 150.39 48.3338H133.41V44.3537ZM152.33 56.0337H155.5L151.74 50.7438C153.76 50.3038 155.28 48.5037 155.28 46.3438C155.28 43.8637 153.27 41.8438 150.78 41.8438C150.74 41.8438 150.7 41.8438 150.66 41.8438H130.67V56.0238H133.42V50.8338H148.65L152.34 56.0337H152.33Z" fill="white"/>
<path d="M213.859 44.3537H230.869C231.949 44.3837 232.809 45.2537 232.809 46.3438C232.809 47.4338 231.929 48.3238 230.839 48.3338H213.859V44.3537ZM232.779 56.0337H235.949L232.189 50.7438C234.209 50.3038 235.729 48.5037 235.729 46.3438C235.729 43.8637 233.719 41.8438 231.229 41.8438C231.189 41.8438 231.149 41.8438 231.109 41.8438H211.119V56.0238H213.869V50.8338H229.099L232.789 56.0337H232.779Z" fill="white"/>
<path d="M160.311 47.6916V46.4216C160.311 46.4216 160.311 46.3816 160.311 46.3516C160.311 45.2516 161.181 44.3716 162.271 44.3516H179.461V47.6916H160.311ZM161.881 41.8516V41.8716C159.491 41.9716 157.591 43.9116 157.561 46.3216V56.0416H160.311V50.2016H179.461V56.0416H182.211V41.8516H161.891H161.881Z" fill="white"/>
<path d="M208.459 53.5416H187.879V50.2016H204.379V47.6916H187.879V44.3416H208.459V41.8516H185.119V56.0316H208.459V53.5416Z" fill="white"/>
</g>
<defs>
<clipPath id="clip0_1301_67223">
<rect width="271.39" height="98.84" fill="white"/>
</clipPath>
</defs>
</svg>
