<svg width="247" height="60" viewBox="0 0 247 60" fill="none" xmlns="http://www.w3.org/2000/svg">
<g clip-path="url(#clip0_1295_66569)">
<path d="M35.2508 41.8283H35.2308L24.3008 22.9883L35.2508 41.8283Z" fill="#004153"/>
<path d="M54.1007 58.9603H32.9307C28.5807 58.8103 25.4807 56.5603 23.8907 53.8103L9.9707 29.8603C9.9707 29.8603 18.4207 29.0503 24.1407 38.9403L29.9207 48.8403C31.2007 51.0403 32.0707 51.6703 34.7007 51.6703H40.9607L19.9807 15.5903C19.9807 15.5903 28.4307 14.7803 34.1507 24.6703L54.1007 58.9603Z" fill="#004153"/>
<path d="M17.54 58.9617H8.65L0 44.0917C0 44.0917 8.58 43.5417 14.16 53.1717L17.54 58.9617Z" fill="#004153"/>
<path d="M82.1798 58.9588H69.5598C65.2098 58.8188 62.1098 56.5788 60.5198 53.8188L30.0098 1.28884C30.0098 1.28884 38.4598 0.478839 44.1798 10.3688L66.5398 48.8488C67.8198 51.0488 68.6898 51.6788 71.3198 51.6788H77.5798L58.7598 19.2488C54.6398 12.1288 59.3598 3.87884 64.4198 1.44884C69.7698 -1.11116 78.3798 -0.971161 83.0298 7.53884C85.2198 11.5588 83.2398 17.0188 83.2398 17.0188L85.0198 22.0288C85.0198 22.0288 85.5198 23.6888 84.5498 23.9788C83.5398 24.2588 82.8898 23.0688 82.8898 23.0688L75.4598 10.1888C73.8598 7.40884 70.1398 7.00884 67.8998 8.29884C65.6498 9.60884 63.8298 12.5688 65.6998 15.8388C65.7498 15.9288 85.8198 50.5588 85.8198 50.5588C88.4398 54.9688 87.6198 58.9688 82.1798 58.9688" fill="#004153"/>
<path d="M99.6602 29.0306L102.53 26.3506C104.03 28.2306 105.97 28.8006 107.73 28.8006C109.71 28.8006 111.4 28.1306 111.4 26.6306C111.4 22.4506 100.43 24.3706 100.43 17.2606C100.43 13.2706 103.94 11.3906 107.99 11.3906C110.92 11.3906 113.89 12.7006 115.42 14.8706L112.65 17.6106C111.6 16.2406 109.81 15.2806 107.96 15.2806C106.11 15.2806 104.61 15.9206 104.61 17.2906C104.61 20.6406 115.58 19.2006 115.58 26.3806C115.58 30.7806 111.79 32.6906 107.83 32.6906C104.1 32.6906 101.49 31.5706 99.6702 29.0206" fill="#004153"/>
<path d="M117.9 11.7188H122.2L126.63 27.5988L131.29 11.7188H135.85L140.47 27.5988L144.93 11.7188H149.14L142.96 32.4087H137.95L133.52 17.6487L129.09 32.4087H124.08L117.9 11.7188Z" fill="#004153"/>
<path d="M156.79 24.8605H162.62L159.65 16.4105L156.78 24.8605H156.79ZM164 28.6905H155.49L154.25 32.4205H149.82L157.09 11.7305H162.16L169.46 32.4205H165.32L164.01 28.6905H164Z" fill="#004153"/>
<path d="M173.4 11.7188H177.22L187.74 25.5188V11.7188H191.86V32.4087H188.03L177.51 18.5687V32.4087H173.4V11.7188Z" fill="#004153"/>
<path d="M113.5 38.2891V46.5391H105.47V38.2891H101.32V58.9791H105.47V50.4291H113.5V58.9791H117.64V38.2891H113.5Z" fill="#004153"/>
<path d="M123.67 38.2891V58.9791H136.48V55.0591H127.75V50.4291H135.56V46.6091H127.75V42.1791H136.35V38.2891H123.67Z" fill="#004153"/>
<path d="M141.58 38.2891V58.9791H154.43V54.9891H146.11V38.2891H141.58Z" fill="#004153"/>
<path d="M158.57 38.2891V58.9791H171.42V54.9891H163.1V38.2891H158.57Z" fill="#004153"/>
<path d="M175.561 38.2891V58.9791H188.381V55.0591H179.651V50.4291H187.461V46.6091H179.651V42.1791H188.251V38.2891H175.561Z" fill="#004153"/>
<path d="M207.83 38.2891V52.0891L197.31 38.2891H193.48V58.9791H197.59V45.1391L208.11 58.9791H211.94V38.2891H207.83Z" fill="#004153"/>
<path d="M222.111 38.2891H217.961V58.9791H222.111V38.2891Z" fill="#004153"/>
<path d="M237.601 37.9688C241.331 37.9688 244.451 39.7187 246.371 42.5887L242.861 44.7587C241.681 42.9387 239.861 41.8587 237.601 41.8587C233.841 41.8587 231.061 44.9787 231.061 48.6187C231.061 52.2587 233.831 55.3787 237.601 55.3787C239.861 55.3787 241.681 54.2987 242.861 52.4787L246.371 54.6488C244.461 57.5187 241.331 59.2687 237.601 59.2687C231.131 59.2687 226.891 54.4887 226.891 48.6187C226.891 42.7487 231.131 37.9688 237.601 37.9688Z" fill="#004153"/>
</g>
<defs>
<clipPath id="clip0_1295_66569">
<rect width="246.37" height="59.26" fill="white"/>
</clipPath>
</defs>
</svg>
